/* XPM */
static char *result[] = {
/* columns rows colors chars-per-pixel */
"40 40 172 2 ",
"   c #795E38",
".  c #7F623A",
"X  c #84643D",
"o  c #88663D",
"O  c #9B743F",
"+  c #856941",
"@  c #8B6B43",
"#  c #866948",
"$  c #906E46",
"%  c #8E704C",
"&  c #937445",
"*  c #9A7445",
"=  c #9C7C46",
"-  c #94744B",
";  c #9A774A",
":  c #9C7A4B",
">  c #9C7C51",
",  c #A17F47",
"<  c #A27D4C",
"1  c #A37F51",
"2  c #9D814B",
"3  c #9F8153",
"4  c #A4824D",
"5  c #A9854F",
"6  c #A4884E",
"7  c #A58352",
"8  c #AA8553",
"9  c #A68851",
"0  c #AC8A55",
"q  c #A78659",
"w  c #A98759",
"e  c #A68A5A",
"r  c #AD8C5A",
"t  c #B08757",
"y  c #B18C56",
"u  c #B18658",
"i  c #B28E5A",
"p  c #AD9157",
"a  c #AE915D",
"s  c #B49156",
"d  c #B4925D",
"f  c #B9955E",
"g  c #BB9A5F",
"h  c #9E8A64",
"j  c #9E906D",
"k  c #9E9572",
"l  c #9D9875",
"z  c #9D997B",
"x  c #A58E63",
"c  c #AE8E60",
"v  c #B28F61",
"b  c #A79465",
"n  c #AD9365",
"m  c #A4906A",
"M  c #AE9468",
"N  c #B59462",
"B  c #BA9662",
"V  c #B69965",
"C  c #BC9A64",
"Z  c #B69A6B",
"A  c #BD9C6A",
"S  c #AA9771",
"D  c #B19E72",
"F  c #BFA16B",
"G  c #BFA373",
"H  c #B0A47E",
"J  c #BCAA7C",
"K  c #C19D65",
"L  c #C29E69",
"P  c #C3A166",
"I  c #C4A26B",
"U  c #C9A56D",
"Y  c #CCA96D",
"T  c #C4A672",
"R  c #C9A671",
"E  c #C6A872",
"W  c #CCAA73",
"Q  c #CEAF79",
"!  c #D1AD72",
"~  c #D1AF7A",
"^  c #CFB17B",
"/  c #D4B175",
"(  c #D3B37A",
")  c #D8B678",
"_  c #DAB97D",
"`  c #95A38E",
"'  c #9EA38A",
"]  c #9DAF97",
"[  c #90A69A",
"{  c #95AE99",
"}  c #9BAD9C",
"|  c #A3A484",
" . c #A3A288",
".. c #ABAC8B",
"X. c #B6AC85",
"o. c #BCB286",
"O. c #B4B08D",
"+. c #A6AB93",
"@. c #ACB193",
"#. c #B0B596",
"$. c #B3B69B",
"%. c #97B6AE",
"&. c #ACB6A3",
"*. c #A6B8A3",
"=. c #A9B8A7",
"-. c #A0BAAF",
";. c #C7B485",
":. c #D6B882",
">. c #9AC3BD",
",. c #A6C6B2",
"<. c #A1C5B9",
"1. c #B1C4B5",
"2. c #AAC7C1",
"3. c #A0C9C4",
"4. c #A5CDC9",
"5. c #AECFCA",
"6. c #B3CCC4",
"7. c #A8D7CC",
"8. c #B0D4CA",
"9. c #AAD7D7",
"0. c #ACDBD3",
"q. c #ABDBDA",
"w. c #B5D3D1",
"e. c #B4D9D4",
"r. c #BED9D7",
"t. c #B1DEDD",
"y. c #8AE5E5",
"u. c #85E6EC",
"i. c #8DE4EA",
"p. c #82E9ED",
"a. c #99E7E3",
"s. c #93E5EA",
"d. c #9DE5EA",
"f. c #85E6F2",
"g. c #81E8F1",
"h. c #A4E3E4",
"j. c #A3E7EB",
"k. c #A3E9EB",
"l. c #ACE9EB",
"z. c #B2E2E1",
"x. c #B3E7EA",
"c. c #B4EAEC",
"v. c #BDEBEC",
"b. c #B9EEF0",
"n. c #C3DDD9",
"m. c #C3E0E0",
"M. c #C9E7E7",
"N. c #C4ECEB",
"B. c #CBECEC",
"V. c #D3EAE7",
"C. c #D3EBEB",
"Z. c #C2EEF0",
"A. c #CDEFF0",
"S. c #C4F1F2",
"D. c #CBF2F3",
"F. c #D4F3F4",
"G. c #DCF4F4",
"H. c #DFF9F7",
"J. c #DFF8F8",
"K. c #E3F5F5",
"L. c #E1F8F6",
"P. c #EBF9F7",
"I. c #EBF7F8",
"U. c #E6FAFA",
"Y. c #EDFAFA",
"T. c #FDF7F7",
"R. c #F5FBF6",
"E. c #FBFAF5",
"W. c #F7F7F9",
"Q. c #FDF7FA",
"!. c #F4FAFA",
"~. c #F9FAFA",
/* pixels */
"f 0 7 8 f K B I R L A B L K K I K y d f K K Y ) U K C Y ! ! Y U C C L I K K N - ",
"i 8 5 8 d C K K L A B d K K K U C 0 d f f K Y ) L B B Y ! ! Y L B C K K L B N > ",
"y 5 4 9 f B i B B B i t s f f K d 4 9 d f f L R K d d L L L L L V d g C f v i - ",
"y 4 4 9 d B d B N r w 0 y y y y 5 , 9 y i i f L i 5 5 i K d B i 9 5 0 0 0 7 7 # ",
"f 0 6 0 B L A B N w w w y y 0 0 4 = 0 s i y v B r < 1 1 u 0 w 8 : 4 4 7 7 1 1 # ",
"U g d B U Q ~ W L d i N K C f C d 0 g C C C L W B v u K L B B v w e N N d r i > ",
"P f f f L Y W R L N N B U U P E C a F P K K R W A v v L L K K B r B A L B d d > ",
"K f y i K L L L L N B A R U U / I d C F K K R ~ A v B L W K K d r B L R L B N > ",
"K f i f K K K L L B v K I I P W F d A L C P E Q A v d U W K K d e N A P A f B 3 ",
"f y 8 0 i d s f B w q r N N B C d 0 b D H N Z F i 8 9 V L f i r 7 9 a V d i 0 % ",
"d 0 5 5 9 s r r w : ; 1 e d a M l ` -.8.4.{ +.+.m 7 4 0 t 7 7 5 4 6 9 9 4 4 2 + ",
"W P d d A U L L A e c M A I O.6.m.C.K.!.G.x.v.z.<.| x N B 0 r r e e i 0 5 = 4 + ",
"/ U P g P U U R T c v Z T J 3.G.!.R.~.E.Y.x.d.b.S.q. .Z C 0 i B N r r t < , , X ",
"! U g s g C A U T r v A #.8.N.Y.E.E.E.~.F.s.u.i.j.v.>.| Z 9 f B d y 8 8 4 < , X ",
"P g g 0 s d i f i 7 c | 4.J.!.W.E.E.E.P.l.u.f.u.i.Z.A.9...t f B d i y y 5 < < o ",
"Y P g 0 d d y i i 7 m *.N.W.Q.G.G.!.!.D.s.p.p.f.k.U.~.G.&.y f B d d i i t 8 1 @ ",
") Y K s f K d B N e S 5.U.~.~.N.d.N.F.k.u.p.p.i.D.~.R.Y.6.M d d a a d i 0 1 1 @ ",
"K g y < 5 i y N v e h 2.Y.~.!.G.a.y.s.u.p.p.u.l.P.E.R.!.r.j < < & 2 2 3 < : - X ",
"y 5 , , 5 i i d v q z q.Y.~.!.U.k.p.u.p.g.g.i.F.E.Q.Q.R.C. .7 : ; 2 4 1 ; - - . ",
", * O , y K f K B q } A.~.E.~.!.c.i.u.p.g.f.s.D.Y.~.E.E.F.=.N d 0 a d 0 8 1 7 $ ",
"1 < < 5 g U P Y W r | M.~.T.~.~.D.i.f.g.g.f.i.s.c.G.R.R.e.@.K g B L L d 1 < 1 $ ",
"u 1 5 u P ! / ) ( N m w.I.T.R.E.L.d.f.g.p.f.i.s.h.B.W.Y.e.J U P B L T B u < < @ ",
"u 1 < s I ) _ :.^ N e -.K.T.R.R.Y.l.s.i.a.l.Z.F.U.!.Q.P.0.J U K d B K f u < * X ",
"1 < < u U ) ) ) W c 7 ' V.~.E.~.~.C.v.A.L.!.W.!.!.~.E.N.,.Y Y P B B K f u < - X ",
"1 < ; 8 K W Y U I e 7 k 4.v.!.~.E.!.!.R.E.Q.Q.Q.Q.~.U.7.o.K K B p d d d 0 9 : + ",
"< * & < t B d d d w 3 3 k %.F.R.E.~.~.R.R.Q.Q.E.Y.N.4.] d 9 8 5 2 0 p d a 0 > # ",
"< < < u B C d g B r r a d  .9.A.P.R.~.E.E.R.R.!.F.3.k r u 5 8 8 4 e N C B N r % ",
"u 1 1 d P I C C C N N A P I X.<.t.D.M.H.Y.K.V.n.6.+.r t y 5 y i w N A U A B r - ",
"f y 8 i A P f g g d d B U P F T @.{ [ 3.e.1.$.X.T N 7 y y u s K d V I U I N 0 $ ",
"K i t d K I g K A d g C U P g U F a d J ;.W W Y L f 7 u y y i K V A G T L d 0 @ ",
"K s 8 i K U P P P g d C U P F P F d g I / Y Y Y L d 5 0 y y f K V C A I C d w $ ",
"f 8 4 9 f K g C g e p p g F g F d 9 d A U P P P g r 7 y y 5 u u a d d C d 0 7 @ ",
"s 7 < 5 d d d d d e e N C F F F V w p s g d s d 0 9 0 V B i d d e 9 0 w 1 < 1 @ ",
"B 8 < 7 d N d a d p a M F F F G A e 0 0 0 6 5 5 4 6 a G T A A B r 2 = = : * ; + ",
"K y 7 0 C P A A C n N I ^ / ^ ( T n d d d y y f r a F ^ :.( W L n 7 : < : : < @ ",
"L i 9 d A I F P A d N P ^ ^ Q ^ T d d d s 5 y f d N Z Q ( Q U B r 7 7 w < < < @ ",
"U f 9 s K I L L A d N K / W T W F a 0 0 y 5 y f d N V F U T L v w 8 w i 0 < = o ",
"L y 5 y g C B C B d N A E T P W F d p 0 5 5 y B N N V F I P L B c r w i 0 5 = X ",
"K 0 < y d C f C A N N A E I F U A p p s y 5 i K V d V F I L A A N r e w 7 4 = . ",
"u < : 9 d B d C A i n Z I F F I V 9 0 0 y s d A d d g F F A B B v r 1 7 < : &   "
};
