/* XPM */
static char *result[] = {
/* columns rows colors chars-per-pixel */
"40 40 165 2 ",
"   c #795E38",
".  c #7F623A",
"X  c #84643D",
"o  c #88663D",
"O  c #9B743F",
"+  c #856941",
"@  c #8B6B43",
"#  c #866948",
"$  c #906E46",
"%  c #8E704C",
"&  c #937445",
"*  c #9A7445",
"=  c #9C7C46",
"-  c #94744B",
";  c #9A774A",
":  c #9C7A4B",
">  c #9C7C51",
",  c #A17F47",
"<  c #A27D4C",
"1  c #A37F51",
"2  c #9D814B",
"3  c #9F8154",
"4  c #A4824D",
"5  c #A9854F",
"6  c #A4884E",
"7  c #A58352",
"8  c #AA8553",
"9  c #A68851",
"0  c #AC8A55",
"q  c #A78758",
"w  c #AA8758",
"e  c #A6895B",
"r  c #AC8C5A",
"t  c #B08757",
"y  c #B18C56",
"u  c #B18658",
"i  c #B28E5A",
"p  c #AD9157",
"a  c #AE905D",
"s  c #B49156",
"d  c #B4925D",
"f  c #B9955E",
"g  c #BB9A5F",
"h  c #9F8E66",
"j  c #9C9976",
"k  c #A38B60",
"l  c #B28F61",
"z  c #A39264",
"x  c #AE9264",
"c  c #A2926B",
"v  c #AB9368",
"b  c #AE9A6B",
"n  c #B59462",
"m  c #BA9662",
"M  c #B69965",
"N  c #BC9A64",
"B  c #B39B6C",
"V  c #BD9C69",
"C  c #A69675",
"Z  c #A59973",
"A  c #AA9C76",
"S  c #BEA06C",
"D  c #AFA37D",
"F  c #B5A072",
"G  c #BFA472",
"H  c #B8A47B",
"J  c #BAAA7D",
"K  c #C19D65",
"L  c #C29E69",
"P  c #C3A166",
"I  c #C4A26B",
"U  c #C9A56D",
"Y  c #CCA96D",
"T  c #C4A572",
"R  c #C9A671",
"E  c #C6A872",
"W  c #CCAA73",
"Q  c #CEAF79",
"!  c #D1AD72",
"~  c #D1AF7A",
"^  c #CCB17B",
"/  c #D4B175",
"(  c #D3B37A",
")  c #D8B678",
"_  c #DAB97D",
"`  c #7FE9F1",
"'  c #9A9F85",
"]  c #9EA58C",
"[  c #98A993",
"{  c #A8A580",
"}  c #A2A188",
"|  c #ADAB8F",
" . c #B7AD85",
".. c #A3AB93",
"X. c #ADAE93",
"o. c #AAB197",
"O. c #A4B29A",
"+. c #9DAFA1",
"@. c #9EB6A7",
"#. c #9AB6A9",
"$. c #A7BAA4",
"%. c #B2BCA3",
"&. c #A9BFB4",
"*. c #D6B882",
"=. c #A2C3B7",
"-. c #A4C6BD",
";. c #ADC3BA",
":. c #B4C7B9",
">. c #9FD4D3",
",. c #A3CBC3",
"<. c #ABCBC3",
"1. c #A5D2CC",
"2. c #ABD3CD",
"3. c #A3D5D4",
"4. c #A8D8D9",
"5. c #BCD9D3",
"6. c #B2D8DA",
"7. c #BCDCDA",
"8. c #B5E4DE",
"9. c #87E7E7",
"0. c #8BE6E6",
"q. c #85E6ED",
"w. c #89E5EA",
"e. c #82E9ED",
"r. c #94E3E7",
"t. c #9EE3E6",
"y. c #94E5EA",
"u. c #9CE5EB",
"i. c #9EE8EB",
"p. c #84E6F1",
"a. c #83E8F0",
"s. c #A5E1E7",
"d. c #ADE5E5",
"f. c #A5E7EA",
"g. c #A6E8E9",
"h. c #ACEAE9",
"j. c #BDE4E3",
"k. c #B1E6EA",
"l. c #B8E6E8",
"z. c #B4EBEB",
"x. c #BFEDEE",
"c. c #C4E3E2",
"v. c #CAEBEB",
"b. c #DAEFEF",
"n. c #DAF1EF",
"m. c #C3EFF0",
"M. c #C4F3F4",
"N. c #CFF2F4",
"B. c #D5F3F4",
"V. c #DCF4F4",
"C. c #D0F7F8",
"Z. c #DEF9F9",
"A. c #E2F6F6",
"S. c #EAF5F5",
"D. c #E5F9F7",
"F. c #EAF9F7",
"G. c #E4F9F9",
"H. c #EBF9F9",
"J. c #FBF7F6",
"K. c #F6FBF6",
"L. c #FBFAF5",
"P. c #F7F7F9",
"I. c #FCF7FA",
"U. c #F4FAFA",
"Y. c #FAFAF9",
/* pixels */
"f 0 7 8 m K m I W L N m L L K U N y f f K K Y _ U K K Y ! ! ! L N N K I L V n - ",
"i 8 4 0 d N g K L V n f K K K U N 0 i f f K Y ) L f m Y ! Y Y U m m K L K m n - ",
"y 4 4 5 i m f m N n i y s f f K s 4 0 d f f K W K d d L L K L L m f g N f i i - ",
"y 4 4 0 n m f n i r w w y y t y 6 = 0 0 i y f L y 8 7 i K f n i 9 6 0 0 w 8 q # ",
"f 0 4 y N V V N n w w w y y 5 0 4 4 0 s i y l m r 1 < w u u w w : : 4 7 7 1 > # ",
"U g d m U ! ~ W L d i n L N g N d 5 g g N N L R N i w L L n m i q r m M d r i > ",
"P g d f L W R R L n d V I U I U N a S K K K W ~ V l l L L K K f r n V L m d f > ",
"g f y s K L L L K n n V W R U Q I d S S K K R W V l l L ! K N f d n L R K m m > ",
"K f i f N K K K L n m K I I I W S d N V N V R W m l d I W I N d 0 x N I N N M > ",
"m i 8 y s f d f n w w w n m f N s e b b B B V V i w 0 M K f i r 3 e a M d 0 r & ",
"f 8 4 4 0 y r r r > > > r r a b z [ -.,.,.=.' Z k 4 4 r r 8 7 4 2 9 6 8 4 4 2 X ",
"W P f f V I L L V w k n V S X.2.>.d.M.M.M.m.4.3.-.c w n m w r i w p a 0 4 4 4 + ",
"( U g g P Y U R I x l V H ..7.D.D.x.r.0.y.t.V.H.b.;.C V m 0 i m n r r t , , , + ",
"/ P g s g K V U T r r B X.7.F.I.U.x.w.e.e.y.Z.Y.U.b.;.H V 5 f N d 0 8 8 < < < X ",
"P g s p i d i n i 7 k | 7.H.I.J.U.x.w.a.p.y.A.L.U.U.b.:.F u f g d i t t 8 < < o ",
"Y P g s d f y i i 7 l <.Z.Y.L.L.K.x.w.a.e.y.A.J.J.P.U.c.o.y f m d d f s t 5 1 @ ",
") Y K y f N d m n q v -.V.Y.L.J.Y.M.w.` e.y.A.I.I.J.Y.j.O.n d d a a d i 8 8 1 @ ",
"P N y 5 0 s y n n e ] c.H.L.F.H.H.z.9.` a.y.C.G.H.H.L.V.<.k < : & 2 2 3 : ; ;   ",
"y 5 , < 5 y y d x k #.B.Y.S.l.f.g.y.e.e.e.w.i.f.h.v.U.U.8.j 4 < = 2 4 < : ; - X ",
"< O O , y g g N N k #.B.Y.U.B.t.9.9.e.e.p.p.q.0.d.G.Y.U.8.{ m d 0 a n w 7 1 q @ ",
"1 < < 5 f U U Y R x @.B.U.Y.U.C.y.e.q.q.` q.0.h.Z.U.I.U.8. .V N n L L f < < < $ ",
"u 1 5 u P ! ! ) ~ B ..c.U.K.U.U.C.i.p.p.` 9.k.G.U.L.Y.V.2.J P P m L U n t < < $ ",
"t 1 < u U ) _ _ ^ n e &.V.L.L.Y.U.N.u.q.w.h.D.Y.I.I.K.j.$.U U P n N K K u < * + ",
"t < 5 u U ) ) ) W x h #.V.I.P.Y.L.K.B.s.k.Z.U.I.I.P.U.j.%.Y Y P m n m f u < & X ",
"< < ; 8 K Y U Y S r 3 ] 6.H.P.L.K.L.U.A.G.U.K.L.I.U.V.:. .K K K r d g d 0 7 ; + ",
"* O & < y m d d d w q 3 } 7.S.J.K.L.I.K.K.K.L.L.K.n.&.C i y 5 < 2 9 p a a 0 > # ",
"1 ; : r m N f m d r a a M ..5.S.F.U.K.L.L.K.K.D.n.;.c r y 5 8 8 2 r f V M n e % ",
"u 1 7 n S P N V V n m M S S X.2.3.c.G.D.D.Z.6.3.<.A w y y 5 y i w n V U L m i - ",
"f y 8 i N P g g N d f g P P S J D +.1.1.1.1.] D H f w 0 u t s m m M I R V m r @ ",
"K i w d K P K K N f f N Y P S U N n F J ^ ^ Y U K f 7 y i u f K M V V E L f 0 $ ",
"L d 8 y K U P P S d g g I P S P N d g P ! Y Y Y K d 5 0 y y f f M M V I N d 8 $ ",
"f 5 , 0 f N g N g r p p g S N S d 0 s S Y P P P f d 5 t t t u s p d f M d 0 7 @ ",
"d 5 < < a g d d d e e a N S S S M w p d g s s d 0 0 0 M V r d d r 9 9 q 7 < > @ ",
"f 8 , 7 a f a d d 0 x M S S S E B e 0 0 0 6 4 5 4 6 a G E V K n r 2 : : ; * : + ",
"K y 7 y N I N N N a n S ( ^ Q ^ E n d d d y y f a a S ^ *.( R L l 7 : < ; < < @ ",
"I i w d S I S I V d M I ( ^ W ( I a d d s 0 y f d n S E ( W U N r q 7 8 1 < < @ ",
"U d 0 s S P K L V d m S Q W U W S d 0 0 y 5 t f d n M S U U L l q q w i 8 7 = X ",
"L y 5 y g g f m N a n V W U I E S d p 0 5 5 y g m n M S I P L n l w q i 0 4 = X ",
"K 8 4 0 f N f V V i m V U U S Y V p p s y 5 d N n M M I I L V N n r q 0 8 4 = . ",
"u < : 8 d m f M V l x M S S S S M 9 0 0 y s d V d a d S S V N N x w 7 7 < = &   "
};
