/* XPM */
static char *result[] = {
/* columns rows colors chars-per-pixel */
"40 40 164 2 ",
"   c #795E38",
".  c #7F623A",
"X  c #84643D",
"o  c #88663D",
"O  c #9B743F",
"+  c #856941",
"@  c #8B6B43",
"#  c #866948",
"$  c #906E46",
"%  c #8E704C",
"&  c #937445",
"*  c #9A7445",
"=  c #9C7C46",
"-  c #94744B",
";  c #9A774A",
":  c #9C7A4B",
">  c #9C7C51",
",  c #A17F47",
"<  c #A27D4C",
"1  c #A37F51",
"2  c #9D814B",
"3  c #9F8153",
"4  c #9D865D",
"5  c #A4824D",
"6  c #A9854E",
"7  c #A4884E",
"8  c #A58352",
"9  c #AA8553",
"0  c #A68851",
"q  c #AC8A55",
"w  c #A78659",
"e  c #AA8759",
"r  c #A58A5B",
"t  c #AD8C5A",
"y  c #B08757",
"u  c #B18C56",
"i  c #B18658",
"p  c #B28E5A",
"a  c #AD9157",
"s  c #AE905C",
"d  c #B49156",
"f  c #B4925D",
"g  c #B9955E",
"h  c #BB9A5F",
"j  c #9F8B67",
"k  c #9A9B7B",
"l  c #A48C64",
"z  c #AC8E60",
"x  c #B28F61",
"c  c #AD9264",
"v  c #A2946C",
"b  c #B59461",
"n  c #BA9662",
"m  c #B59865",
"M  c #BC9A64",
"N  c #B49668",
"B  c #BD9C69",
"V  c #A69D7D",
"C  c #BFA16B",
"Z  c #AFA37C",
"A  c #BFA473",
"S  c #B4A27A",
"D  c #BDAC7D",
"F  c #C19D65",
"G  c #C29E69",
"H  c #C3A166",
"J  c #C4A26B",
"K  c #C9A56D",
"L  c #CCA96D",
"P  c #C4A572",
"I  c #C9A671",
"U  c #C6A872",
"Y  c #CCAA73",
"T  c #C5AE79",
"R  c #CEAF79",
"E  c #D1AD72",
"W  c #D1AF7A",
"Q  c #CDB17C",
"!  c #D4B175",
"~  c #D3B37A",
"^  c #D8B678",
"/  c #DAB97D",
"(  c #7FE9F0",
")  c #97AD9C",
"_  c #AAA683",
"`  c #AFAF8C",
"'  c #BEAF86",
"]  c #BEB286",
"[  c #A5AA91",
"{  c #ABAF97",
"}  c #AAB398",
"|  c #A9B99E",
" . c #B2B195",
".. c #9AB7A6",
"X. c #97B7AF",
"o. c #9FBBAF",
"O. c #93B6B3",
"+. c #A6B6A7",
"@. c #AFB9A5",
"#. c #A1BBAD",
"$. c #D6B882",
"%. c #A5C2AB",
"&. c #A0C2B7",
"*. c #AFC1B5",
"=. c #9FC9C6",
"-. c #A7CAC2",
";. c #ADCBC3",
":. c #A4CEC9",
">. c #A9CECE",
",. c #B7CDC5",
"<. c #A4D0C3",
"1. c #ADD2CD",
"2. c #B1D2CE",
"3. c #B3D5D2",
"4. c #BCD8D4",
"5. c #B3DCDA",
"6. c #AFE0DF",
"7. c #86E7E7",
"8. c #8DE4E7",
"9. c #84E6EC",
"0. c #8AE5EA",
"q. c #82E9ED",
"w. c #94E3E5",
"e. c #9AE4E5",
"r. c #95E5E9",
"t. c #99E5E8",
"y. c #84E6F1",
"u. c #81E8F4",
"i. c #A7E2E7",
"p. c #A2E6EA",
"a. c #A6E9E9",
"s. c #ADE9EB",
"d. c #B4E4E4",
"f. c #B9E2E4",
"g. c #B9E6E9",
"h. c #B5EBEC",
"j. c #BDEAEB",
"k. c #A9ECF0",
"l. c #C3DFDF",
"z. c #CCE6E4",
"x. c #C3EEEE",
"c. c #CBECEB",
"v. c #D8EFED",
"b. c #CAF0EB",
"n. c #DBF0EF",
"m. c #CEEFF0",
"M. c #C6F2F3",
"N. c #CCF1F1",
"B. c #D2F3F2",
"V. c #DBF5F5",
"C. c #DFF8F7",
"Z. c #DCF8F8",
"A. c #E4F5F5",
"S. c #E9F6F5",
"D. c #E0F7F8",
"F. c #E6F9FA",
"G. c #EBFAF9",
"H. c #FCF7F7",
"J. c #F5FCF6",
"K. c #FAFAF5",
"L. c #F6F7F9",
"P. c #FCF7F9",
"I. c #F4FBFA",
"U. c #FAFAFA",
/* pixels */
"g q 8 9 g F n J I G M n G G F J F u f n F F E ^ K F F L E E K K n M G J G M b - ",
"p 9 6 9 f M F F J M b n F F F K h q p g g F L ! G n n K E E L J n M F G F M m - ",
"u 6 5 0 p n p n n n p u p g g F d 5 q f g g G I F p g G K G G G f h h M n b p - ",
"u 5 5 0 b n g n b t e 9 u u u u 6 5 0 q p u n G p 0 6 p n p n p 5 q q q 9 8 8 # ",
"d q 7 u M G M M b e 9 e u q q 0 5 2 0 d p p x n q 1 < e i 9 u e = : 8 8 8 < > # ",
"K M d M J W W Y J p x b G F g M d q h M n F J I M p e G G n n x e t b n f t f > ",
"K g p g G Y Y I G b b n K G J L M s B H F F Y Y B x x G G F n n t b B G n b b > ",
"h g u p F G F G G x n G Y Y K ! J f B C F F I E B x x G E F F g p m G I F n b > ",
"F g p g F F F F G b n M J J J Y C f B C M G P Y B x f K Y G F f w c M J M M M : ",
"n p q q p f p g n e w t b b g M f 0 c m f m B B x 9 0 b F g p e 0 r f f f t t $ ",
"f q 6 6 q d p t t : > 1 t t a f v k ..#.[ o.+._ l 5 5 q u 0 0 8 2 7 q 0 7 5 2 + ",
"Y F f f B J G G B w r N B J C { 1.d.B.V.c.N.V.l.+.k l N b e u u w s t u 6 = 5 + ",
"! L h h H L J I P z x B P ' | 2.F.I.U.U.I.U.I.I.V.4.+.S M 9 f n p t t 9 1 , < X ",
"E J h d h H G I P r z B A ;.x.V.J.U.I.A.I.K.K.K.P.I.g.} B 9 g n b q 9 y < , , o ",
"H h h 6 p b p f p 8 z N { c.L.K.J.I.G.d.N.K.K.K.L.I.N.=._ t g n f p u u y , < + ",
"L H h d d b u p p 8 x S ;.G.P.H.I.I.c.w.M.U.K.G.C.N.h.j.-.N g n n p d d i 1 1 @ ",
"^ K h d h h f n n w z { z.L.U.K.U.F.t.0.a.B.M.s.t.8.8.h.6._ p f s s f p 9 1 1 @ ",
"F F u < u u p f N w l ;.S.K.K.K.I.M.0.q.7.r.8.9.q.u.9.a.j...8 < = 2 2 3 < ; ;   ",
"u 6 < , 6 u p b x w j =.V.U.J.K.D.p.9.9.q.q.q.q.0.u.q.r.M.&.r : & 2 2 1 : ; - . ",
"< , O , u F g M n w 1 X.V.U.K.I.M.0.y.9.q.q.( q.0.0.r.a.g.) N f q f b q 8 8 w @ ",
"< < < 1 h L H L P p v >.G.J.K.S.i.y.u.( q.y.0.r.s.M.V.G.c.X.C B n B G g 1 < 1 $ ",
"i < 6 i F ! ! ^ ~ f v =.C.K.K.A.j.t.9.q.u.0.k.Z.I.U.U.I.D.;.C C n G P g y < < $ ",
"i 1 < d J ^ / / ~ b 9 ..N.J.K.I.G.V.h.t.0.7.s.G.K.K.K.I.z. .H H g n F g i < * o ",
"1 < < i J ^ ^ ^ Y p 8 k f.G.U.J.I.U.I.B.s.t.e.Z.P.H.U.A.,.P L H b n F g i < $ X ",
"1 < ; 9 F L K K B t 3 4 ) 5.I.K.U.H.P.L.F.B.d.V.I.K.I.z. .G F M a f b f q 0 : + ",
"< * & < u n f f f w w 3 > O.N.I.U.P.P.H.J.I.F.I.K.S.m.*.c 0 6 6 : 7 a s t t > # ",
"< < < i M M g n n p t a c [ 3.v.G.I.K.K.U.H.K.U.A.1.o.V i 6 9 9 5 t b M M b t % ",
"i 1 1 b H J M M M b m B C C S @.4.n.G.C.C.G.D.b.5.[ z p u 6 u p t b B K G b t - ",
"n u 9 p M H h g h f g M H H C J S +.3.:.&.6.<.%.` N 9 u i i p h f M A I G n q % ",
"F p q d M J F F M h f M L H C K M b Z D Q ] T L G b 9 q u u g F m B G P G f q @ ",
"G p 9 u F L H H C f f C J J C H M f h J E L L L F f 6 9 u u g g m B B J M d q $ ",
"g 9 5 q f M h M h t a a h h M C f 0 f C L H H H M t 6 u u y i p a f f M f t 9 @ ",
"p 6 < 6 f b f f f r t c M C m C N r q d h f d d q 0 t m m p f f t 0 0 w 9 < > + ",
"g y : 5 a b f f f t s N C C C U B r q q q 6 5 6 5 6 s A P G F n t 2 = : ; * : + ",
"F p 0 q M H B B B a b C R Q Q ~ P b f f f a u g t f C Q $.W Y G t 8 : 1 ; ; < @ ",
"G p 9 f M J C J B f b J ~ Q R ~ P b f d d 6 u h f b B T W R K n t w 8 9 1 < < @ ",
"K g q d M J G G G f f B R R J Y C a t q u 6 y g f b m C L J B b r e e p 9 8 ; o ",
"G u q q g M n M M f b B Y J J Y C f a q 6 6 u M b b m C J J G n z t e p 9 6 = X ",
"F 9 5 u f M g M B x b B L J C L C a q d u 6 d B b f m C J B F n b t e q 0 5 = . ",
"i < : 0 f h f M M x c N C C C J m 0 q q u d f B b f h C C B n B x r 9 1 < = &   "
};
