/* XPM */
static char *result[] = {
/* columns rows colors chars-per-pixel */
"40 40 172 2 ",
"   c #7F623A",
".  c #84643D",
"X  c #88663D",
"o  c #9B743F",
"O  c #856941",
"+  c #8B6B43",
"@  c #866948",
"#  c #906E46",
"$  c #8E704C",
"%  c #937445",
"&  c #9A7445",
"*  c #9C7C46",
"=  c #94744B",
"-  c #9A774A",
";  c #9C7A4B",
":  c #9C7C51",
">  c #A17F47",
",  c #A27D4C",
"<  c #A37F51",
"1  c #9D814B",
"2  c #9F8153",
"3  c #9C8958",
"4  c #A4824D",
"5  c #A9854F",
"6  c #A4884E",
"7  c #A58352",
"8  c #AA8553",
"9  c #A68851",
"0  c #AC8A55",
"q  c #A5875B",
"w  c #AA8759",
"e  c #A78959",
"r  c #AC8C5A",
"t  c #B08757",
"y  c #B18C56",
"u  c #B18658",
"i  c #B28E5A",
"p  c #AD9157",
"a  c #AE915D",
"s  c #B49156",
"d  c #B4925D",
"f  c #B9955E",
"g  c #BB9A5F",
"h  c #988862",
"j  c #9F8F69",
"k  c #AE8E61",
"l  c #B28F61",
"z  c #AE9364",
"x  c #A6946E",
"c  c #AD966A",
"v  c #A9996F",
"b  c #B59462",
"n  c #BA9662",
"m  c #B69965",
"M  c #BC9A64",
"N  c #B49C6D",
"B  c #BD9C69",
"V  c #A19972",
"C  c #AB9B75",
"Z  c #B39E74",
"A  c #BFA16B",
"S  c #A8A37F",
"D  c #B7A172",
"F  c #BDA473",
"G  c #B2A37C",
"H  c #BFAC7E",
"J  c #C29D66",
"K  c #C29E69",
"L  c #C3A166",
"P  c #C4A26B",
"I  c #C9A56D",
"U  c #CCA96E",
"Y  c #C5A572",
"T  c #C9A671",
"R  c #C5A873",
"E  c #CCAA73",
"W  c #CEAF79",
"Q  c #D1AD72",
"!  c #D1AF7A",
"~  c #CDB17B",
"^  c #D4B275",
"/  c #D3B37A",
"(  c #D8B678",
")  c #D7B87A",
"_  c #DAB97D",
"`  c #9FA285",
"'  c #96A28F",
"]  c #90A493",
"[  c #9DB39F",
"{  c #A5A789",
"}  c #BCAC84",
"|  c #B0B18D",
" . c #A6A992",
".. c #ADAF90",
"X. c #ACAE98",
"o. c #ADB496",
"O. c #A7B19B",
"+. c #B5B794",
"@. c #BAB190",
"#. c #9CB3A3",
"$. c #97B8AD",
"%. c #9EBEB2",
"&. c #A5B5A7",
"*. c #ABB7A6",
"=. c #A3BAAC",
"-. c #B6BDA4",
";. c #C0B081",
":. c #D6B882",
">. c #9EC1AE",
",. c #9DC5BC",
"<. c #ADC0A9",
"1. c #ABC0B3",
"2. c #A1C5BC",
"3. c #B2C3B4",
"4. c #B1C9BF",
"5. c #9FCCC1",
"6. c #9DCECB",
"7. c #ABCBC2",
"8. c #A4CECC",
"9. c #A8CFCC",
"0. c #B7CEC9",
"q. c #B2D3CD",
"w. c #A9D6D7",
"e. c #AEDBD4",
"r. c #B5DDDC",
"t. c #84E6E7",
"y. c #8CE4E6",
"u. c #85E6EC",
"i. c #8BE4EB",
"p. c #82E9ED",
"a. c #93E3E6",
"s. c #9AE4E5",
"d. c #9CE4E9",
"f. c #96E8EA",
"g. c #84E7F1",
"h. c #88E5F0",
"j. c #80E8F4",
"k. c #A3E0E6",
"l. c #A4E7EB",
"z. c #A3E8E9",
"x. c #ABE8EB",
"c. c #B2E3E3",
"v. c #BCE5E6",
"b. c #BEE9E7",
"n. c #B3EBEB",
"m. c #BEEBEC",
"M. c #A8ECF0",
"N. c #BAEDF0",
"B. c #C1DAD7",
"V. c #C4E0DE",
"C. c #C6E3E4",
"Z. c #C1ECED",
"A. c #CDEDEC",
"S. c #D2E9E6",
"D. c #D5EDED",
"F. c #D0F0EF",
"G. c #C4EEF0",
"H. c #C5F1F2",
"J. c #CCF2F2",
"K. c #D3F2F3",
"L. c #DCF5F4",
"P. c #E2F5F5",
"I. c #EAF4F6",
"U. c #E5F8F7",
"Y. c #E3F9F9",
"T. c #ECFAFA",
"R. c #FCF7F7",
"E. c #F6FBF6",
"W. c #FBFAF5",
"Q. c #FCF7FA",
"!. c #F4FBFA",
"~. c #FAFAF9",
/* pixels */
"f 0 7 8 n J n P T K M n K J J I M y d n J J U ( I J M U ^ Q U I M n K P K J b = ",
"i 8 4 0 d M g J I M b n J J J I g 0 s f f J U ( K f n U Q U U K M n J K J n m ; ",
"y 4 4 5 i n f n n b i y i f f J s 4 8 d f f K T J d d K K K K K f f m M n i i $ ",
"y 4 4 0 b n f b b r w 8 y y y y 6 1 0 r i i n K i 8 5 i J i b f 9 6 0 8 w 7 q + ",
"s 0 5 y M K M M l w w w y y 5 0 4 > 0 y s i l n r , , w u u 8 w ; ; 4 9 7 : : @ ",
"I M s n I W ! E I d r b J M g B d 0 g M M M K T n l w M K n n i w i n n d r s : ",
"I g i g K U T T K b n M I I L I M a B L J J T W K l l K I J J n r b B K M d f : ",
"J d i i J K K K M b n B T T I W L d B A J J T Q B l i I T K J i r m K T J n n : ",
"J f i d M J J J K n n M P P P E A s B A M K T E B l d I E P J i e b B P B f M : ",
"f y 0 y d s i f n w w r b n f M s 0 p f d n B B i w 9 M B f i 0 9 e a d s r e % ",
"f 0 4 4 0 y r r e ; : : e a s f e 3 V V z v c b 8 4 4 0 y 7 7 7 1 9 0 w 7 4 1 . ",
"E B f f B I K K B q k b A P P | >.5.e.e.2.9.4.@.N r q m b 0 i r e e p 8 4 4 4 O ",
"^ I L g L I I Y Y r k B Y } o.q.J.U.T.T.L.L.L.B.*.C k B M 0 i n r r i y 4 > > . ",
"Q P g s f A K I Y k k m } 0.r.D.~.~.~.W.W.W.~.T.D.7. .B M 8 d M b y 8 8 4 , * X ",
"L g g 5 s d i d i 7 k Z 3.L.T.W.!.P.T.!.Q.Q.R.R.E.L.8.C J y f n d i y y 5 < , X ",
"U L g s s f r i r 7 k X.C.T.R.R.Y.c.m.Y.!.Q.Q.R.R.T.r.' B i f n d d i s u 5 < X ",
"( U J i f J s n n w x 0.U.E.Q.R.T.x.y.z.K.!.~.!.E.~.P.r...d d d p a a i 8 < < + ",
"L g y , 5 i r d l q #.F.!.W.W.Q.!.N.i.i.a.n.L.!.~.~.E.J.#.4 , ; - 1 1 7 < - = . ",
"y 5 , > 5 s y n l k $.J.~.~.T.P.J.M.i.g.p.t.z.G.T.W.W.L.,.q 4 , * 1 4 : - = =   ",
"> & o > y J g M b q ] m.J.N.l.d.i.u.g.g.g.j.g.k.L.W.E.T.w.Z f d 0 a d 0 w < w + ",
"< , , 5 g I L U Y c 2.G.y.u.u.u.p.p.p.p.p.g.h.N.!.Q.~.P.7.D B M n K P d < , < # ",
"u < , u J Q ^ ( ! c ,.H.d.u.g.g.p.p.p.p.p.u.l.L.E.!.~.A.%.P L L n K Y n t , , # ",
"u < t y I ( _ _ / b [ Z.l.p.g.t.y.f.f.t.u.i.J.!.W.E.~.P.7.Y I L i n J f u , & X ",
"t , , u I ( ) ) E z ` c.x.s.z.n.H.L.K.f.i.x.T.~.W.W.E.S.-.U U L n n J f u , % . ",
", > - 8 J U I I B r j $.c.L.Y.!.W.W.T.x.s.L.!.W.W.Q.U.7.;.K J n p d m d r 7 = O ",
"& o % , i f d d b e q h 6.L.Q.R.W.W.!.m.Z.!.!.W.W.!.V.` i 8 8 < ; 9 p p a 8 2 @ ",
"< - , r n M f n b r r z %.A.T.Q.W.W.~.U.I.Q.~.!.Y.J.&.r y , 8 8 7 0 b M M b q $ ",
"u < 7 l A I M M M n b m F O.q.L.!.W.!.~.Q.!.!.F.8.>.x i u t y s e b B I K n i = ",
"n y 8 i M L f f g f f g I A S 1.C.J.b.F.L.J.v.7.G b w u u y s f b m P T P n e + ",
"J i 8 d M I g L B n f M R P L F ..=.{ <.4.<.+.H I d 5 y s u f J m B A T B f 0 # ",
"K i 8 i J I L L L d g g L L A L A a M R ~ R U I B d 5 8 y y f f m M B P M s 8 # ",
"f 5 4 0 s L g M g e p p g A M A s 0 s A I I L L n p 7 y y t u s p a f M f e 7 + ",
"f 5 , 4 d n d d d e e z m A A A m e 0 s g s s s 0 9 p m M i d d e 9 9 w 7 , < + ",
"f 8 , 7 p f p d b e r m A A A R N e 0 p 0 9 5 5 4 4 a F Y B M M e 7 * ; - & ; O ",
"J y 7 r M A M B B a n A W ~ W / Y b s d d 0 y f i p A ~ :./ E K r 7 ; , ; - , + ",
"P i 0 i M I A P B d n A / W W ~ Y b d d i y y f i z B W / W T n r 7 7 w < , , + ",
"I i 5 s A I B B B d f B / E I E A d e 0 y 5 t f b b m A R I K l w q w i w 4 * . ",
"J i 5 y s M n M M a f B R R P I A p p 0 5 5 y M n b m A I J M n l e w y 8 4 *   ",
"J 8 4 0 g M f M B l b B R I L R B p p 0 y 5 d M b d m A P K M M b r w r 8 4 *   ",
"y , ; 8 d n n M B i z m P A A P g 0 0 0 s s d B b a g A B B B M b w 7 7 , ; %   "
};
