/* XPM */
static char *result[] = {
/* columns rows colors chars-per-pixel */
"40 40 173 2 ",
"   c #795E38",
".  c #7F623A",
"X  c #84643D",
"o  c #88663D",
"O  c #9B743F",
"+  c #856941",
"@  c #8B6B43",
"#  c #866948",
"$  c #906E46",
"%  c #8E704C",
"&  c #937445",
"*  c #9A7445",
"=  c #9C7C46",
"-  c #94744B",
";  c #9A774A",
":  c #9C7A4B",
">  c #9C7C51",
",  c #A17F47",
"<  c #A27D4C",
"1  c #A37F51",
"2  c #9D804B",
"3  c #9F8153",
"4  c #A4824D",
"5  c #A9854F",
"6  c #A4884E",
"7  c #A58352",
"8  c #AA8553",
"9  c #A68851",
"0  c #AC8A55",
"q  c #A58659",
"w  c #AA8759",
"e  c #A6895B",
"r  c #AD8C5A",
"t  c #B08757",
"y  c #B18C56",
"u  c #B18658",
"i  c #B28E5A",
"p  c #AD9157",
"a  c #AD905D",
"s  c #B49156",
"d  c #B4925D",
"f  c #B9955E",
"g  c #BB9A5F",
"h  c #998660",
"j  c #989171",
"k  c #A68D63",
"l  c #B28F61",
"z  c #AE9265",
"x  c #A6936A",
"c  c #AE9368",
"v  c #B59462",
"b  c #BA9662",
"n  c #B69865",
"m  c #BC9A64",
"M  c #B3996B",
"N  c #BD9C6A",
"B  c #A49A74",
"V  c #AE9F77",
"C  c #A39B7B",
"Z  c #BEA16C",
"A  c #B6A676",
"S  c #BDA573",
"D  c #B3A47A",
"F  c #C19D65",
"G  c #C29E69",
"H  c #C3A166",
"J  c #C4A26B",
"K  c #C9A56D",
"L  c #CCA96E",
"P  c #C5A572",
"I  c #C9A671",
"U  c #C6A871",
"Y  c #CCAA73",
"T  c #C1AB79",
"R  c #CEAF79",
"E  c #D1AD72",
"W  c #D1AF7A",
"Q  c #CFB17B",
"!  c #D4B275",
"~  c #D3B37A",
"^  c #D8B678",
"/  c #D7B87A",
"(  c #DAB97D",
")  c #7FE9EE",
"_  c #93A48D",
"`  c #9FA78F",
"'  c #97A595",
"]  c #9DAC94",
"[  c #A4A181",
"{  c #ABA380",
"}  c #AFAA87",
"|  c #AAAA8D",
" . c #BCB187",
".. c #A7B094",
"X. c #A7B09B",
"o. c #AFB39A",
"O. c #B4B491",
"+. c #B0B79F",
"@. c #9EBCA8",
"#. c #9CBAB1",
"$. c #A3B4A3",
"%. c #A8B6A5",
"&. c #A6B8A8",
"*. c #A5BEAC",
"=. c #A4BDB0",
"-. c #AABEB6",
";. c #D6B882",
":. c #9DC6BF",
">. c #A3C2B3",
",. c #A7C6BA",
"<. c #ADC5BC",
"1. c #B2C6B6",
"2. c #A4CBC4",
"3. c #AECEC3",
"4. c #AACFCB",
"5. c #B3CBC4",
"6. c #B5CFC9",
"7. c #A5D1CB",
"8. c #AAD3CE",
"9. c #B2D2CF",
"0. c #A5D5D4",
"q. c #A9D3D0",
"w. c #AAD9D6",
"e. c #ACD8D9",
"r. c #B7D8D4",
"t. c #B5D8D7",
"y. c #B2E0DD",
"u. c #8EE5E6",
"i. c #85E6EC",
"p. c #8CE4EB",
"a. c #82E9ED",
"s. c #93E3E5",
"d. c #95E6EA",
"f. c #9BE5E9",
"g. c #83E7F2",
"h. c #81E8F1",
"j. c #A4E4E5",
"k. c #A2E7EA",
"l. c #ADE6E9",
"z. c #AAE9ED",
"x. c #B1E4E6",
"c. c #BDE0E0",
"v. c #BDEAE6",
"b. c #B4ECED",
"n. c #B9ECED",
"m. c #BEF1F1",
"M. c #C2DEDA",
"N. c #C2E5E4",
"B. c #CCE6E7",
"V. c #C4EDEE",
"C. c #CBEBEC",
"Z. c #D4ECEB",
"A. c #CDF0EF",
"S. c #C5F2F3",
"D. c #CBF2F3",
"F. c #D5F4F4",
"G. c #DCF5F5",
"H. c #DFF8F7",
"J. c #D0F7F8",
"K. c #DFF8F9",
"L. c #E2F5F5",
"P. c #E8F6F6",
"I. c #E5F8F7",
"U. c #EAF9F5",
"Y. c #E7F9FA",
"T. c #EBFAFA",
"R. c #FDF7F5",
"E. c #F7FCF6",
"W. c #FAFAF6",
"Q. c #F2F7F9",
"!. c #FDF6F9",
"~. c #F4FAFA",
"^. c #FAFAFA",
/* pixels */
"f 0 7 8 f F m G Y G m b G G F K m y d g F F L ^ K F m L E E E G b m G K G m v - ",
"i 8 5 8 d m F F G m v b F F F K f y i f f F L ^ G f m L E L L K b m F F F m v > ",
"y 5 4 9 d b i b m b i r i d f F s 4 0 d f f G I F d d G I G G G v f g g b l i - ",
"y 4 4 9 d b f b v w w 8 t y y s 5 , 9 r i i b F i 9 5 i b u f f 9 5 0 r 8 7 7 # ",
"d 0 6 y b G N b v 8 w r y y 0 0 4 4 0 s i y l b r 7 < w u 8 i 8 : : 4 7 7 < > # ",
"K m s m K R W Y G l i v F F d F d 5 g m m m G Y b u w G G b b l 8 r v m d r d > ",
"H g i f G L Y I G b b m J J H K m d Z H F F I Y N l l G G F m f r v N G b v b > ",
"F d i i F G G G F v v G I I K R J a m Z F F I W N l v G E G b f r v P I F f v > ",
"F f i f F F F G G b b m J J J L Z d N N m F P Y m l d P Y G F d e d N J N g n : ",
"f y 8 y s d y f b w w w v n f N d 9 d d v n m N i 8 9 m F f i 0 7 e a d d r r & ",
"f 0 5 5 0 r i r 0 > > > 0 r p d 6 2 B B B x z v e 5 2 0 i 9 7 7 2 9 0 9 4 4 2 X ",
"L N f d N K G G N e e n N J J T C _ 8.M.r.r.6.3...z q v v 8 i r q p r y 4 4 4 + ",
"! K g g H L J I P k z N P P  .2.c.c.H.^.Q.Q.T.G.0.` C N m r i b i r r 8 < , , X ",
"E J g s g m F P P r l n G O.7.A.T.~.^.E.R.!.R.~.K.B.4.} b 8 f m d r 8 t < < , o ",
"H g g 0 s d i d i 7 l N V q.G.~.E.^.W.E.W.^.^.E.^.~.F.2.D i f m d i y y 8 5 < o ",
"L H g s s b i i i 7 r M ' t.~.^.E.~.E.E.^.^.~.~.~.^.~.C.=.l f b f d y s t 1 1 @ ",
"^ L F y f g s m b q z X.e.H.^.^.E.C.V.D.F.F.K.T.T.Q.^.T.3.z d i a a d i 8 1 1 @ ",
"H g y < y i i d l q q $.F.^.E.E.T.l.p.p.u.u.s.f.j.C.Q.T.w.[ 7 < & 2 2 7 < ; -   ",
"y 5 < , 5 y y v l q q &.L.W.^.E.Y.k.g.g.i.a.a.u.b.G.^.E.G.2.q : = 2 4 1 : ; - + ",
", * O , y F f F b w e -.U.R.^.!.I.f.) g.a.a.u.n.T.^.R.R.T.5.M d 0 a d w 7 1 q @ ",
"1 < < 5 g K H L I r k 5.T.W.!.!.G.s.g.g.a.h.i.b.T.W.R.W.Y.<.N N f N G f 1 < 1 $ ",
"u 1 5 u H E ! ^ ~ v x 9.Y.^.!.~.F.s.g.g.a.a.a.d.V.E.W.^.I.=.Z J b G J b u < < @ ",
"u 1 < s J ^ ( ;.~ v k #.N.E.^.T.D.u.u.d.i.a.a.a.d.D.~.^.G.%.J H f F F F u < * + ",
"1 < < u K ^ ^ / Y i 7 j q.T.^.~.V.s.n.J.z.i.a.a.a.k.G.P.V.o.K J l b b f u < & X ",
"1 < : 8 F L L K J e 7 h 7.K.^.E.A.V.T.^.G.f.i.i.a.u.l.x.>.S F m p d n f r 4 : + ",
"< * & < i d s d d e 3 3 ] y.U.^.Q.~.^.R.^.F.d.i.i.f.m.q.x 9 9 5 : 6 p p r 0 > # ",
"< < < u g N b b b u r a n @.v.I.Q.W.^.!.E.^.S.u.k.S.y.$.l 1 8 8 3 r v m n v e % ",
"u 1 1 l G J m m m v n m Z S &.3.N.T.E.E.E.^.Y.v.D.w.] c i 5 y i 0 v Z K G b i - ",
"b i 8 i m H f g g d d g J H Z A ,.N.Z.Z.G.L.v.:.*.| e y u t s g v n J I G f r $ ",
"F i 0 s F J g F Z d g m K H Z L A { | +.1.1.&.A J v 9 8 t y f F n N N I G d r @ ",
"G i 0 y m L H H H f d g L Z H J Z a m J Y L K K G d 5 0 u s f f n m N J m d 0 @ ",
"f 5 4 5 f F m m n r p d g g g Z d 0 d N L H H H m r 0 y u 5 u i p d f b d r 0 @ ",
"i 5 < 5 d v d d d e r a n Z Z Z n q p d g d s d 9 9 r v b i d d r 9 9 8 7 4 > + ",
"f 8 < 7 p n d d d 0 a n Z J Z J N e 9 0 0 6 5 5 4 6 z P P N G n r 2 ; : * * : + ",
"G i 7 r m H N N N a v Z R Q Q Q P v d s s y y f r a Z Q ;.W I G r 7 : 7 < ; < @ ",
"G i 9 i m J Z J N d v J ~ Q R Q S v d s s 0 y f d v Z U ~ R I m r q 7 8 7 : < @ ",
"K i 5 s m J F G N i f Z R R K U Z d 0 r y 5 t f d v n Z J K N v e q 8 r r < * o ",
"G s 5 y g m v m N d v N Y K J U Z d p 0 5 5 y m v v n J J J F b l 0 w i 8 5 = X ",
"F 8 < y f m f m N i v N U J H K N p p 0 y 0 s N n n n J K G N m v r w r 9 5 * . ",
"i < < 9 d b f m m l z n J Z Z J g 9 0 0 s y d N f p d Z N m m b v e 7 1 < : &   "
};
