/* XPM */
static char *result[] = {
/* columns rows colors chars-per-pixel */
"40 40 173 2 ",
"   c #795E38",
".  c #7F623A",
"X  c #84643D",
"o  c #88663D",
"O  c #9B743F",
"+  c #856941",
"@  c #8B6B43",
"#  c #866948",
"$  c #906E46",
"%  c #8E704C",
"&  c #937445",
"*  c #9A7445",
"=  c #9C7C46",
"-  c #94744B",
";  c #9A774A",
":  c #9C7A4B",
">  c #9C7C52",
",  c #A17F47",
"<  c #A27D4C",
"1  c #A37F51",
"2  c #9D814B",
"3  c #9F8153",
"4  c #9B875A",
"5  c #A4824D",
"6  c #A9854F",
"7  c #A4884E",
"8  c #A58352",
"9  c #AA8553",
"0  c #A68952",
"q  c #AC8A55",
"w  c #A78659",
"e  c #AA8759",
"r  c #A6895A",
"t  c #AD8C5A",
"y  c #B08757",
"u  c #B18C56",
"i  c #B18658",
"p  c #B28E5A",
"a  c #AD9157",
"s  c #AE905C",
"d  c #B49156",
"f  c #B4925D",
"g  c #B9955E",
"h  c #BB9A5F",
"j  c #9E8760",
"k  c #9C8E6C",
"l  c #A38C63",
"z  c #AE8F62",
"x  c #B28F61",
"c  c #AE9263",
"v  c #A9966C",
"b  c #B59461",
"n  c #BA9662",
"m  c #B69965",
"M  c #BC9A64",
"N  c #B0966B",
"B  c #BD9C69",
"V  c #A69971",
"C  c #A39C7D",
"Z  c #AB9E78",
"A  c #B99E71",
"S  c #BFA16B",
"D  c #B6A277",
"F  c #BDA473",
"G  c #B9A67A",
"H  c #BAA87B",
"J  c #C19D65",
"K  c #C29E69",
"L  c #C3A166",
"P  c #C4A26B",
"I  c #C9A56D",
"U  c #CCA96D",
"Y  c #C5A672",
"T  c #C9A671",
"R  c #C6A872",
"E  c #CCAA73",
"W  c #C4AB78",
"Q  c #CEAF79",
"!  c #D1AD72",
"~  c #D1AF7A",
"^  c #CFB17B",
"/  c #D4B175",
"(  c #D3B37A",
")  c #D8B678",
"_  c #D7B87A",
"`  c #DAB97D",
"'  c #7FE9EE",
"]  c #9CAA92",
"[  c #A1A685",
"{  c #AAA681",
"}  c #A4A78A",
"|  c #ACAD8F",
" . c #B2A982",
".. c #A7AD97",
"X. c #A2AD99",
"o. c #B0AF93",
"O. c #ABB59B",
"+. c #B5B593",
"@. c #B9B691",
"#. c #8FACA7",
"$. c #97B6A6",
"%. c #99B6A6",
"&. c #9ABBB5",
"*. c #94BFB9",
"=. c #A3B6A7",
"-. c #AABAA4",
";. c #A2B7AC",
":. c #A3BCAC",
">. c #A1BFB0",
",. c #C2B68A",
"<. c #D6B882",
"1. c #9BC1B9",
"2. c #A3C4BF",
"3. c #AFC3BA",
"4. c #9DC4C2",
"5. c #A2CBC3",
"6. c #AFCBC1",
"7. c #B5CCC4",
"8. c #B6D1CB",
"9. c #B9D2CE",
"0. c #AAD4D1",
"q. c #B4DBD7",
"w. c #B1DDDB",
"e. c #BCDCDB",
"r. c #BFE0DD",
"t. c #85E6E7",
"y. c #8BE5E7",
"u. c #85E6ED",
"i. c #8CE4EC",
"p. c #82E9ED",
"a. c #94E4E6",
"s. c #9DE3E5",
"d. c #92E4E9",
"f. c #9DE5EA",
"g. c #97E8EB",
"h. c #85E6F1",
"j. c #81E8F1",
"k. c #A3E7EB",
"l. c #A3E9EB",
"z. c #B3E2E3",
"x. c #BCE3E2",
"c. c #B2E7EA",
"v. c #B5ECEC",
"b. c #BAECED",
"n. c #A6ECF0",
"m. c #BDEEF1",
"M. c #C5E3E2",
"N. c #C8E7E7",
"B. c #C0EAE7",
"V. c #C3EDEC",
"C. c #CBECEB",
"Z. c #D4EEEE",
"A. c #D8EDEB",
"S. c #D8F1EE",
"D. c #C4F3F3",
"F. c #CFF0F1",
"G. c #D4F3F3",
"H. c #DCF5F5",
"J. c #DEF9FA",
"K. c #E3F4F4",
"L. c #EBF5F4",
"P. c #E6F8F7",
"I. c #EEF9F7",
"U. c #E1F7F9",
"Y. c #E4F9F8",
"T. c #ECFAFA",
"R. c #F0F7F7",
"E. c #FDF7F5",
"W. c #F6FBF6",
"Q. c #FBFAF6",
"!. c #FDF7FA",
"~. c #F4FBFA",
"^. c #FAFAFA",
/* pixels */
"g q 9 9 g J n P T K K n K J J P J u f M g J ! ` I J M U / ! ! I n M K P P J b - ",
"p 9 8 0 f M J J K B n f J J J I g u p g g J U ) K g n I ! U U K n M J J J n b - ",
"u 6 5 6 g n p n n b p q p f g J d 5 0 d g g J T J d f K I K K K b g h M n p t - ",
"u 5 5 0 f n f n n t w 9 u u u d 5 5 0 p p p n K p 6 9 f n p n p 0 7 q q 9 w w @ ",
"g q 7 u n K M M b w 9 e u u q 0 5 5 q d p u b n t < : e i 9 p e = : 8 8 8 < > # ",
"I M d n I Q ~ E K f x n J M g M d 0 n M M M K T n x e K K n n p 9 p b n f t p > ",
"L h f g K T E T K b b M I P P I B s B L J J T E K x p K K J n n t b B K M f n > ",
"J f u p J K K K K b b K T E I ! P f B L J J T ~ B x x I E J J n p N K T J n b > ",
"J g p f M J J K K n b B I P P E S f B B M K Y Q B x f I Q J J f t s B P B h m : ",
"g u q u d g p g n e w i b b g M f 7 f g b b B B p e 0 b M g p t 0 r s b f q t & ",
"g q 5 6 0 u t t t : : 3 t t f f 0 4 ] [ C X.} Z r 8 5 t t 9 8 5 : 7 0 6 5 5 : + ",
"E J g f B I K P B w t N B P S H ..7.V.z.e.Z.x.0.>.V r b b 9 p p r a s q 5 5 5 + ",
"/ I h h L U P T Y r x B Y W +.6.C.T.~.~.~.~.~.T.C.:.C A n q f n x t t y 6 , , o ",
"! P h d h M K T Y z x N K =.r.L.W.!.E.Q.R.^.^.!.T.C.w.-.B 9 d n f q 9 y < , ; X ",
"L h h q d f p p p 8 z B D 1.G.Q.Q.^.Q.^.^.~.S.K.^.~.T.e.{ p n n b p u u 9 < < o ",
"U L h d d n p p p 8 t D 2.N.R.^.W.Q.^.T.U.V.s.G.^.E.^.H.;.b n n b f d u i 6 1 @ ",
") U J u g J d n b w b | x.T.W.^.W.~.Y.b.a.y.k.J.Q.E.Q.~.e.C f f a s f p 9 1 1 @ ",
"L h u < q u p b b w w %.F.W.Q.Q.T.V.f.i.p.t.c.T.Q.E.Q.^.H.;.8 < & 2 2 8 : : ;   ",
"u 6 < , 6 u p f x w l 5.H.Q.Q.P.c.i.h.u.u.u.g.b.G.P.~.W.J.4.r : = 2 5 1 > ; - X ",
", * O , u J h M M w j &.H.W.^.T.c.i.j.j.p.' p.y.a.f.v.F.m.$.b g e s b t 8 1 w @ ",
"< < < < g U L U Y t > #.Z.^.W.W.G.a.p.p.p.p.p.p.j.p.u.a.v.6.F M n B P d 1 < 1 $ ",
"i i < u L ! / ) ( f l 4.H.Q.W.^.R.b.t.h.h.h.p.p.u.i.j.a.D.5.F P n K Y n i < < @ ",
"i 9 6 i P ) ` <.( b r ;.A.^.^.^.^.J.f.u.d.n.f.d.u.u.u.l.D.-.R L p n J J i < * o ",
"9 < < i I ) ) ) E f 0 k 9.I.^.!.!.T.v.y.k.J.P.G.m.l.a.v.w.+.U L n n n g i < & X ",
"< < < 8 J U U I P t 3 4 X.A.^.E.^.^.H.s.m.~.E.Q.^.T.G.z.>.G J M t f g f s 5 : + ",
"* * & < p f f f s t 3 3 v 8.U.R.Q.^.T.V.G.^.Q.E.W.^.H.*.l 9 6 6 2 7 a s s q > # ",
"1 < ; e n M g n n t s s b O.0.x.T.!.^.R.^.^.Q.W.~.K.x.] p < 9 9 5 t b M m b r % ",
"i 1 8 b P P M M M b b n K F  .>.B.H.~.^.L.T.W.P.M.3.C z p 9 u p e b S I K n p - ",
"g u 9 p M L h g h f g m U L S G :.1.r.v.q.q.r.7.o.N 9 9 i y d g b m P T K b e & ",
"J p u p J L J J B g g M U L h U B N H O.,.@.+.W K b e u u u g J m M S Y J g q @ ",
"K p q u M U L L L g f h P L S L S a m S / U U U L f 5 q u i g g m M B P B f e @ ",
"g 9 < 0 h M h M m a a a h S h S f a a S U L L L h t 6 u u i i d s f g m f q 9 @ ",
"p 6 , 5 f g f f f r r s M S S S b r a d h f d d q 0 t b M p f f t r 7 9 8 < > + ",
"g y < 8 s m s f f t c m S S S F A r q 0 u 7 5 6 5 0 f F Y B M M r 2 = : ; * : @ ",
"J p 8 p M S M M M s b S ^ ^ ^ _ W b f f d u u g t s S ^ <.( T K z 8 : < < ; < @ ",
"K d 0 p M I S P B f m P ^ ^ E ^ P f f f d q u g f b S W ( ~ Y n t 8 8 t 1 < < @ ",
"I f q d J P B K B p b S Q E I E S s q q u 6 u g f b m S R R K n w 0 t p 9 5 = X ",
"K u 7 q h M n M M b b B E Y S E S f a q 6 6 u n b b m P P L n b x e w p 9 5 = X ",
"J 9 5 u g n g M B x b B R P L I S a a q u q d B m b m P P K K B b z w 9 9 5 = . ",
"i < : 9 f n g M B x b m S S S P n 0 q q d u f M g s f S B M M M x t 1 8 < : &   "
};
