/* XPM */
static char *result[] = {
/* columns rows colors chars-per-pixel */
"40 40 173 2 ",
"   c #795E38",
".  c #7F623A",
"X  c #84643D",
"o  c #88663D",
"O  c #9B743F",
"+  c #856941",
"@  c #8B6B43",
"#  c #866948",
"$  c #906E46",
"%  c #8E704C",
"&  c #937445",
"*  c #9A7445",
"=  c #9C7C46",
"-  c #94744B",
";  c #9A774A",
":  c #9C7A4B",
">  c #9C7C51",
",  c #A17F47",
"<  c #A27D4C",
"1  c #A37F51",
"2  c #9E814B",
"3  c #9E8153",
"4  c #A4824D",
"5  c #A9854E",
"6  c #A4884E",
"7  c #A58352",
"8  c #AA8553",
"9  c #A68851",
"0  c #AC8A55",
"q  c #A78659",
"w  c #AA8759",
"e  c #A78959",
"r  c #AD8C5A",
"t  c #B08757",
"y  c #B18C56",
"u  c #B18658",
"i  c #B28E5A",
"p  c #AD9157",
"a  c #AE905C",
"s  c #B49156",
"d  c #B4925D",
"f  c #B9955E",
"g  c #BB9A5F",
"h  c #9F8B63",
"j  c #959475",
"k  c #9C9679",
"l  c #A38B63",
"z  c #AD8F61",
"x  c #B28F61",
"c  c #AC9163",
"v  c #B59461",
"b  c #BA9662",
"n  c #B69965",
"m  c #BC9A64",
"M  c #B49C6E",
"N  c #BD9C69",
"B  c #A19776",
"V  c #A99B73",
"C  c #AC9C78",
"Z  c #B49E70",
"A  c #BFA06A",
"S  c #BEA573",
"D  c #B6A57B",
"F  c #B8A77A",
"G  c #BEAC7E",
"H  c #C19D65",
"J  c #C29E69",
"K  c #C3A166",
"L  c #C4A26B",
"P  c #C9A56D",
"I  c #CCA96D",
"U  c #C5A672",
"Y  c #C9A671",
"T  c #C6A973",
"R  c #CCAA73",
"E  c #C3AC7B",
"W  c #CEAF79",
"Q  c #D1AD72",
"!  c #D1AF7A",
"~  c #CFB17B",
"^  c #D4B275",
"/  c #D3B37A",
"(  c #D8B678",
")  c #D7B87A",
"_  c #DAB97D",
"`  c #7FEBEC",
"'  c #7FE9F2",
"]  c #9FA382",
"[  c #9EA38D",
"{  c #A3A183",
"}  c #ABA786",
"|  c #AFAA86",
" . c #A2A288",
".. c #A2A88F",
"X. c #AEAD8A",
"o. c #B5AC87",
"O. c #B8B18B",
"+. c #A2AB95",
"@. c #A7AE9B",
"#. c #AEB295",
"$. c #ABB99D",
"%. c #9BBCAF",
"&. c #93BFB9",
"*. c #99BDB9",
"=. c #ACB7A2",
"-. c #A4B8A5",
";. c #ACBCAA",
":. c #A8BFB1",
">. c #D6B882",
",. c #9EC4B8",
"<. c #AFC0AE",
"1. c #A3C5BD",
"2. c #A2CAC2",
"3. c #ACCAC2",
"4. c #A5CCC8",
"5. c #ABCDC9",
"6. c #B1CAC2",
"7. c #A4D0CE",
"8. c #A9D7CE",
"9. c #B6D0CB",
"0. c #A9D9D6",
"q. c #B2D9D5",
"w. c #B8D8D4",
"e. c #B8DCDE",
"r. c #86E6E6",
"t. c #8CE4E6",
"y. c #85E6EC",
"u. c #8BE5EA",
"i. c #82E9ED",
"p. c #91E5E6",
"a. c #9DE3E5",
"s. c #94E4EB",
"d. c #85E6F2",
"f. c #82E8F0",
"g. c #A4E2E3",
"h. c #A9E6E7",
"j. c #A5E7E9",
"k. c #ABE4E8",
"l. c #A5E8ED",
"z. c #A8E9EB",
"x. c #B6E4E0",
"c. c #BBE3E3",
"v. c #B9E6E8",
"b. c #B2ECED",
"n. c #BAEBEC",
"m. c #BEEEF1",
"M. c #C2DFDF",
"N. c #CDE7E6",
"B. c #C3E9EA",
"V. c #CBEBEB",
"C. c #D2EFEF",
"Z. c #DAEFEF",
"A. c #CCF2EE",
"S. c #DFEFF2",
"D. c #C5F2F3",
"F. c #CDF2F3",
"G. c #D4F3F3",
"H. c #DBF4F5",
"J. c #D0F7F8",
"K. c #DFF8F8",
"L. c #E2F5F5",
"P. c #EBF5F5",
"I. c #E5F8F7",
"U. c #EAF9F7",
"Y. c #E4F7F8",
"T. c #E2F8F8",
"R. c #ECFAFA",
"E. c #FDF7F6",
"W. c #F6FBF6",
"Q. c #FAFAF5",
"!. c #FCF7FA",
"~. c #F4FBFA",
"^. c #FAFAF9",
/* pixels */
"f 0 7 8 b H b L R J N b J H H L H y d m H H I ( P H H I Q Q R P b m J L K H v - ",
"i 8 5 8 d m f H J N b d H H H P b 0 i f f H I ( J b b I Q R I J b m H J H b v > ",
"y 5 4 9 f b f b b v i y s f f H d 4 9 s b f J Y H i f J P J J J v f g m b x r % ",
"y 4 4 9 d b d b v r 8 w y y y y 6 = 0 i s y b J y 9 7 i H i f d 9 9 0 0 8 8 q @ ",
"d 0 6 y b J N b v w 8 w y t 0 9 4 , 0 p i y x b r 1 < w u u w 8 : 4 4 7 7 1 > + ",
"P m s b P W ! R J d x v H g f N s 0 b m m m J R b u w J J v b i w r v v d i i > ",
"K g d f J R R Y J v v m P P L P N a N L H J I R J x x J J H H v r v N J b v b > ",
"H d y i H H J J J v v H Y R P ^ L d m K H J Y Q N x v J Q H H d r v J Y H b v > ",
"H f i f H H H H J v b N P L L I A s A A m J Y R N x a P R J H d e v N L N g b > ",
"g y 8 t i d i f b w w w v d d N d 9 a d d d m N i 8 0 b N f i w 7 9 a v d r r & ",
"d 0 4 5 9 s i r r : : 1 e d d s 0 2 e c V c r v 0 5 2 r t 9 9 5 2 6 0 9 4 4 2 + ",
"R K f d N P J J N q l n N A L o.} ..;.6.q.*.[ #.Z r e v b 0 t r r e i w 5 = 2 + ",
"^ I K s K I L Y U r z N U Y O.5.N.Z.L.U.U.A.e.c.,.C z N m 0 i b r r i y 4 , , o ",
"I P g s g A J Y N z z b U #.1.B.R.~.~.Q.Q.^.~.R.F.7.+.N b 0 d b d 0 w 5 4 < ; X ",
"K K s 0 i d i d x 7 z N -.x.G.~.Q.!.!.Q.W.^.^.Q.~.H.5.M H y b b v d t y 5 < < o ",
"I K g s s v i i i 7 z | 8.K.!.E.Q.!.!.^.W.~.~.Q.^.~.e.%.D d f b v s s y t t < @ ",
"( I H y f H s b b q z ,.F.^.!.~.~.~.R.T.H.F.V.~.!.^.Y.B.=.v i d p a d i 8 1 q @ ",
"K g y < 0 y i v x q l 3.Y.!.T.G.D.b.h.a.p.u.k.Y.Q.W.E.P.:.7 < < & 2 2 7 < ; -   ",
"y 5 < , 5 y i d x q k 4.I.^.C.g.t.u.y.i.' d.s.K.Q.W.Q.P.5.l 7 < = 2 7 > ; ; - X ",
", * O , y H f H m q -.B.W.Q.R.G.z.u.d.` d.d.u.G.^.Q.^.~.B.C d d r a d u q 1 7 @ ",
"1 < < 5 g P K I U z @.S.W.E.!.~.J.s.d.f.i.y.u.n.~.^.E.~.N.o.J m v J J d 5 < 1 $ ",
"u 1 5 u J ^ ^ ( / v  .N.~.Q.Q.~.m.u.i.` f.i.i.b.R.W.Q.~.v.$.P J b J L b 1 < < @ ",
"u 1 < s K ( _ _ / v B M.~.W.W.G.s.i.i.i.u.t.r.h.R.~.^.L.2.E P K d H H H u < * o ",
"1 < < u P ( ) ) R r h 9.~.^.Y.l.y.i.i.t.b.F.j.a.Y.^.~.L.<.P P K d b H f u 1 - X ",
"1 < ; 8 H R I P N r 3 1.F.R.n.y.i.d.i.j.T.~.K.B.L.!.~.B.;.K J g a d g d 0 7 ; + ",
"< * & < i d s d v e 3 j &.v.j.y.i.i.p.F.^.Q.Q.Q.!.~.H.2.V 8 8 5 : 9 p a a r > # ",
"< < < u b m b v v i r z B q.D.j.u.u.n.R.Q.Q.Q.^.Y.H.0.{ i 1 5 8 2 e v m n d r % ",
"u 1 1 d L P m m m v v m S -.0.D.n.k.I.^.!.Q.~.R.v.-.{ c u 8 y y r v A P H b r - ",
"f y w i m K f g g d d g L S X.1.x.g.G.R.R.T.G.N.1.M 9 t u u s H v m A Y K v r $ ",
"H i t s m P g H N g g m I L A G X.] 2.w.5.<.$.O.U f 7 t s y i H n N L U J d 9 $ ",
"J s 0 y m P K K K d d A L L K P m d M F E T I P J d 5 w y u f f m n N L m d 0 @ ",
"f 8 < 6 g H m m n p p p g g n A d 0 d N P K K K g r 9 y y t u s a d d b d r 7 @ ",
"s 5 < 5 d g d d d e e c n A A A v e p s g s s d 9 9 r v b i d d r 9 9 0 7 < > @ ",
"b 8 < 1 a v a d d e c n L A A T M r 0 0 0 9 5 5 4 6 c U U N N b e 2 : : = * ; @ ",
"H t 7 r m A m m m d v A ~ ^ W ~ U v d s s t y d r d A ~ >./ R J z 7 : < < ; < @ ",
"L i 9 d A L A L N d v L ~ ~ W ~ U c d d d 0 y g d c A R / W Y b r 7 7 0 7 < ; @ ",
"I s 6 s H P K J N d v A ^ R P T A a p 0 t 5 y f d v n A T P J x q q 8 r r < * o ",
"J y 5 y g b f m b c v N T U L R A s a 0 0 5 y b v v n L L L N b x r r t w 5 = X ",
"H 8 5 y d b b m J v v N T L A P A p p 0 y 5 s N n n n A L J m m v r w r 9 4 * . ",
"u 1 ; 9 d b v N N u v v L A A L b 9 0 0 s s d N d s d A N N N b z r 7 1 < = & . "
};
