/* XPM */
static char *result[] = {
/* columns rows colors chars-per-pixel */
"40 40 166 2 ",
"   c #795E38",
".  c #7F623A",
"X  c #84643D",
"o  c #88663D",
"O  c #9B743F",
"+  c #856941",
"@  c #8B6B43",
"#  c #866948",
"$  c #906E46",
"%  c #8E704C",
"&  c #937445",
"*  c #9A7445",
"=  c #9C7C46",
"-  c #94744B",
";  c #9A774A",
":  c #9C7B4B",
">  c #9C7C51",
",  c #A17F47",
"<  c #A27D4C",
"1  c #A37F51",
"2  c #9D814B",
"3  c #9F8154",
"4  c #A4824D",
"5  c #A9854F",
"6  c #A4884E",
"7  c #A58352",
"8  c #AA8553",
"9  c #A68851",
"0  c #AC8A55",
"q  c #A78659",
"w  c #AA8759",
"e  c #A6895A",
"r  c #AD8C5A",
"t  c #B08757",
"y  c #B18C56",
"u  c #B18658",
"i  c #B28E5A",
"p  c #AD9157",
"a  c #AD905C",
"s  c #B49156",
"d  c #B4925D",
"f  c #B9955E",
"g  c #BB9A5F",
"h  c #9E8B64",
"j  c #8C9077",
"k  c #9D9271",
"l  c #9D9B7B",
"z  c #A48F60",
"x  c #AE8E61",
"c  c #B28F61",
"v  c #A39167",
"b  c #AD9263",
"n  c #AC9769",
"m  c #B59462",
"M  c #BA9662",
"N  c #B69965",
"B  c #BC9A64",
"V  c #B39F6D",
"C  c #BD9C6A",
"Z  c #AE9B73",
"A  c #B29F74",
"S  c #BEA16B",
"D  c #BFA572",
"F  c #BDA976",
"G  c #B3A37B",
"H  c #BCAA7E",
"J  c #C19D65",
"K  c #C29E69",
"L  c #C3A166",
"P  c #C4A26B",
"I  c #C9A56D",
"U  c #CCA96E",
"Y  c #C5A572",
"T  c #C9A671",
"R  c #C6A872",
"E  c #CCAA73",
"W  c #C5AC7A",
"Q  c #CEAF79",
"!  c #D1AD72",
"~  c #D1AF7A",
"^  c #CFB17B",
"/  c #D4B275",
"(  c #D3B37A",
")  c #D8B678",
"_  c #D7B87A",
"`  c #DAB97D",
"'  c #7FE9F1",
"]  c #A19F80",
"[  c #9EA181",
"{  c #9CA48B",
"}  c #9AA997",
"|  c #97AA98",
" . c #A4A78C",
".. c #B7A984",
"X. c #B1AA88",
"o. c #BCB186",
"O. c #A2A690",
"+. c #A4AA92",
"@. c #ACAC92",
"#. c #AEB391",
"$. c #AFB99D",
"%. c #9DBFB7",
"&. c #A5BEAD",
"*. c #A9BEAD",
"=. c #D6B882",
"-. c #A5C0B6",
";. c #A8CABB",
":. c #B2C6BC",
">. c #9DC7C1",
",. c #9CCBC8",
"<. c #A4CCC2",
"1. c #AACDC4",
"2. c #A2CECA",
"3. c #B4CAC1",
"4. c #B3CFC9",
"5. c #A4D2CD",
"6. c #A9D1C8",
"7. c #B0D2CF",
"8. c #AAD8D3",
"9. c #ABDCDC",
"0. c #B9D8D6",
"q. c #BBD9D7",
"w. c #B3DDDD",
"e. c #B5E3DD",
"r. c #8AE5E6",
"t. c #85E7ED",
"y. c #8CE5EA",
"u. c #82E9EE",
"i. c #93E4E7",
"p. c #9CE4E6",
"a. c #92E4E9",
"s. c #9CE5EB",
"d. c #84E6F2",
"f. c #A5E3E5",
"g. c #AFE7E7",
"h. c #A3E9EB",
"j. c #ADEAEC",
"k. c #B6E4E7",
"l. c #BCE4E4",
"z. c #B3EAEA",
"x. c #BCF0EF",
"c. c #C1E0DF",
"v. c #C5E7E7",
"b. c #C6EBE9",
"n. c #CEECEC",
"m. c #D9EEEE",
"M. c #D8F0EE",
"N. c #C4F3F3",
"B. c #CDF2F3",
"V. c #D4F3F3",
"C. c #DCF4F4",
"Z. c #DCF9F8",
"A. c #E4F6F6",
"S. c #EBF5F6",
"D. c #E6F9F7",
"F. c #EDFBF7",
"G. c #E6F7F8",
"H. c #E3F9F9",
"J. c #ECFAFA",
"K. c #FCF7F7",
"L. c #F7FCF6",
"P. c #FBF9F5",
"I. c #F7F7F9",
"U. c #FCF7FA",
"Y. c #F5FAFA",
"T. c #FAFAF9",
/* pixels */
"f 0 7 8 f J f K E K B M K J J I B y f f J J U ` K J B U ! ! ! K B B J P K J m - ",
"i 8 7 9 f J M K K B m M J J J I f 0 a f f J U ) K J B U ! U U I B M B K J B m > ",
"y 5 4 9 i B f M B M i t s f f K s 4 0 s M f K T J d d K K K K K f f M M m d i - ",
"y 4 4 9 f B c f m r q 0 u y y y 6 4 9 r s y f K t 9 5 i J i M i 9 5 p 0 w 7 7 # ",
"f 0 6 0 M K C B m q w w y y 5 0 4 , 0 p i y c M r < < w u u w w ; 4 4 7 7 > > # ",
"I g d M P ! ~ E K d i m J J f B d 0 M B B B K T B i w K K M M i q r m M d r s > ",
"L f f f K T E T K m m B P I L R B a C P J K U Q C c c K K J J f r m C K B d f > ",
"J f y s J K K K K m M B E T R ! P d B L J K T ! C c c K ! K B f i N K T J M m > ",
"J f i d B J J K K M m B P P P U S d B S B K Y E B c d P ! K J m 0 b C P C g M 3 ",
"f y 8 y s f i f M w q r m f f S d 9 d d d M B C i 8 9 M K d i 0 7 e a f s r 0 % ",
"f 0 4 9 0 y r i r > > 1 r r a s 6 2 x n n n N m r 4 2 r t 7 7 7 2 9 9 9 7 4 2 o ",
"E K f d C P K P C q z m C P P H l j %.5.2.2.-.X.A x e m M 0 r i e r i 0 4 2 4 + ",
"/ I g g L U P T Y r c C Y Y H 3.e.w.V.D.D.H.n.2.2.@.b C B 0 d M r i r u < , , X ",
"/ L g s g S K P P r c N I ..:.M.F.Y.L.P.L.T.L.G.G.q.} C B 8 i B d y 0 8 < < , o ",
"L g s y i d i d c q r N ..3.C.I.L.L.I.T.L.I.I.L.K.S.0.@.B y f B m i y y 8 < < o ",
"U L g s d f y i i 1 x X.4.C.I.U.T.T.L.J.m.L.P.L.K.K.S.q.X.i f M d d i s u 5 1 @ ",
") U J s g g i B m q m +.w.Y.T.U.T.T.G.z.f.V.Y.P.I.K.T.Z.1.N i d a a d i 0 1 1 @ ",
"K M y < y i y m m 1 z | l.L.T.U.U.D.z.y.d.s.B.Y.I.P.T.H.>.3 < < & 2 4 3 < ; -   ",
"y 5 < , 5 y i d m q k 8.A.K.I.Y.Z.g.r.' d.t.s.V.Y.Y.L.J.0.l 7 : = 2 4 : ; ; - + ",
"< O O , s M g B M q l e.Y.U.J.Z.h.y.u.' u.u.u.s.Z.Y.Y.T.C.&.N m 0 a m r 7 1 q @ ",
"< < , < g I L U T c [ e.Y.L.V.f.r.t.d.d.u.u.u.r.f.A.T.T.V.&.C C f C K f 1 < 1 $ ",
"u t < y J / / ) ~ m [ e.Y.I.n.z.j.h.d.u.u.t.a.p.s.k.J.T.V.*.P L B K P M t < < @ ",
"u 1 < f P ) ` ` ( m v -.C.K.Y.J.J.B.y.u.u.r.x.D.A.A.I.J.b.$.Y L f B J J u < * o ",
"1 < < u I ) ) _ E r q | v.L.K.U.T.C.a.u.u.y.B.T.P.P.I.V.;.R U P c M M f u < - X ",
"< < < 7 J U U U P r 3 } v.Y.K.K.K.V.y.d.u.a.B.I.P.P.T.B.*.K J B a d f d 0 9 ; + ",
"< * & < i f s d r r 3 h *.M.Y.L.T.V.y.t.u.r.B.L.P.P.J.c. .0 5 < : 6 p a r r > # ",
"< < < t f C m m M r a a Z 3.m.Y.T.B.y.u.d.r.V.L.K.A.q.O.t 5 8 8 4 r N B N d r % ",
"u 1 1 c P P B B B m m B C G 3.Z.D.N.i.a.a.p.V.J.A.0.{ x y 8 y i r m C P K M r - ",
"f y 9 y B L f g g f d N L S G ;.,.9.B.N.N.x.f.9.7.] q y y u s J d B S T K m r @ ",
"J i u d J P g J C f f B R S S D V { <.6.6.6.#.o...m 7 u y y f M N C P Y K f 0 & ",
"K i 0 y J I L L L f d B P L L I S a V F ^ W U I L d 7 0 y y f J N B C P B s w o ",
"f 8 4 5 f K g B N p p d g g g S d e d B U L L L g i 9 y y 5 u u a d f N d r w @ ",
"f 5 < 4 s N d d d r e a B S N S m e 0 d f s s s 0 9 r N N i d d r 9 9 w 9 < 1 + ",
"f 5 < 7 a f a d d e x N S D S R C r 0 p 0 6 5 5 4 6 a D Y K K m r 2 : : ; * ; @ ",
"J y 7 r M P B B B a N P Q Q ^ _ R n d f d y y d r d S ^ =.~ T K a 7 : < ; ; < @ ",
"P i w s S P S P C d m P ( ^ Q ^ P m a s s 0 y f d b C Q ( ~ P J r 7 7 w 7 < < @ ",
"I s 9 d B P K K C d m C Q Q P E S a 0 0 y 5 y f d m N S R P K c r q q i 0 < * o ",
"K i 5 y g B M B B d m C E Y P U S d p 0 5 5 y M m m N S P L K m c q q i 0 5 = X ",
"J 9 < y f M g B C i m C R L S R S p 0 s y y d J m m N P P K J N m r w 0 7 4 = . ",
"u < < 9 s M m B B c m N P S S P N 9 0 0 y 0 d C N s d S P C B B b q 8 7 < : &   "
};
