/* XPM */
static char *result[] = {
/* columns rows colors chars-per-pixel */
"40 40 169 2 ",
"   c #795E38",
".  c #7F623A",
"X  c #84643D",
"o  c #88663D",
"O  c #9B743F",
"+  c #856941",
"@  c #8B6B43",
"#  c #866948",
"$  c #906E46",
"%  c #8E704C",
"&  c #937445",
"*  c #9A7445",
"=  c #9C7C46",
"-  c #94744B",
";  c #9A774A",
":  c #9C7A4B",
">  c #9C7C51",
",  c #A17F47",
"<  c #A27D4C",
"1  c #A37F51",
"2  c #9D814B",
"3  c #9F8153",
"4  c #92815C",
"5  c #9E875B",
"6  c #A4824D",
"7  c #A9854F",
"8  c #A4884E",
"9  c #A58352",
"0  c #AA8553",
"q  c #A68851",
"w  c #AC8A55",
"e  c #A7875A",
"r  c #AA8758",
"t  c #A78959",
"y  c #AC8C5A",
"u  c #B08757",
"i  c #B18C56",
"p  c #B18658",
"a  c #B28E5A",
"s  c #AD9157",
"d  c #AD915D",
"f  c #B49156",
"g  c #B4925D",
"h  c #B9955E",
"j  c #BB9A5F",
"k  c #9D926F",
"l  c #9E9A7C",
"z  c #A58C64",
"x  c #AF8E60",
"c  c #B28F61",
"v  c #AE9263",
"b  c #A6946C",
"n  c #AF9769",
"m  c #AD9A69",
"M  c #B59461",
"N  c #BA9662",
"B  c #B69965",
"V  c #BC9A64",
"C  c #B0976C",
"Z  c #BD9C69",
"A  c #A79E7D",
"S  c #B79D70",
"D  c #BFA16B",
"F  c #ABA07E",
"G  c #B4A276",
"H  c #BEA474",
"J  c #B7A77D",
"K  c #B4A87E",
"L  c #BAA87C",
"P  c #C19D65",
"I  c #C29E69",
"U  c #C3A166",
"Y  c #C4A26B",
"T  c #C9A56D",
"R  c #CCA96E",
"E  c #C4A572",
"W  c #C9A671",
"Q  c #C7AA74",
"!  c #CCAA73",
"~  c #CEAF79",
"^  c #D1AD72",
"/  c #D1AF7A",
"(  c #CDB17B",
")  c #D4B175",
"_  c #D3B37A",
"`  c #D8B678",
"'  c #D7B87A",
"]  c #DAB97D",
"[  c #9F9E81",
"{  c #8FA189",
"}  c #94A086",
"|  c #9DA696",
" . c #9BAA94",
".. c #9CB09E",
"X. c #A0A88E",
"o. c #B5B28D",
"O. c #A4A993",
"+. c #A8AE99",
"@. c #A5B29E",
"#. c #ADB59C",
"$. c #B0B290",
"%. c #B4B79D",
"&. c #9CB5A2",
"*. c #9BB9AE",
"=. c #92B7B4",
"-. c #A3B7AB",
";. c #A1BCA8",
":. c #A4BEB2",
">. c #C2B48A",
",. c #D6B882",
"<. c #9BC4BD",
"1. c #A0C3B7",
"2. c #ABC5BC",
"3. c #A3C8BB",
"4. c #B4C7B9",
"5. c #AFCBC0",
"6. c #A7CECC",
"7. c #B4CAC0",
"8. c #A8D7CE",
"9. c #B9D5CF",
"0. c #ACD4D1",
"q. c #B1DEDC",
"w. c #BBDCDA",
"e. c #8FE5E7",
"r. c #85E6EC",
"t. c #8BE5EA",
"y. c #82E9ED",
"u. c #90E5E5",
"i. c #9DE4E4",
"p. c #93E5EB",
"a. c #9BE5E9",
"s. c #84E7F0",
"d. c #88E3F0",
"f. c #81E8F2",
"g. c #A1E5E9",
"h. c #A0E9EC",
"j. c #ADEAEB",
"k. c #B3E3E5",
"l. c #BEE0E0",
"z. c #BAE6E9",
"x. c #B5E9ED",
"c. c #BBECEC",
"v. c #BBEFF1",
"b. c #BEF0F1",
"n. c #C1DCDC",
"m. c #C3E7E7",
"M. c #C0EAE7",
"N. c #C4ECEB",
"B. c #CBEDEC",
"V. c #D3EDED",
"C. c #D9EEED",
"Z. c #C6F2F2",
"A. c #CBF1F3",
"S. c #D1F2F2",
"D. c #DCF5F5",
"F. c #DDF9F9",
"G. c #E4F6F6",
"H. c #EBF6F6",
"J. c #E6F8F6",
"K. c #EBFAF7",
"L. c #E2F7F8",
"P. c #E6F9F9",
"I. c #EDFBFA",
"U. c #FCF7F7",
"Y. c #F6FBF6",
"T. c #FBFAF5",
"R. c #FCF6F9",
"E. c #F4FAFA",
"W. c #FAFAF9",
/* pixels */
"h w 9 0 h P V I W I Z N I P P T P i g N P P R ` T P P R ) ^ R T V N I T P P M - ",
"a 0 7 0 g V P P I Z N h P P P T h w g h h P R ` I h N T ^ R R I N N I I I N B - ",
"i 7 6 q g N a N V M a w a g h P f 6 q g h h I W P a h I I P I I g j j j N g x - ",
"i 6 6 q N N g N M y 0 r i i i i 7 6 q i a a N I a q 7 a P g N c q 7 w y 0 9 9 # ",
"g w 8 f N I V V M r 0 r i i q w 6 2 w s f a c N y 1 : r p r u 0 ; 6 6 9 9 < > # ",
"T j g N Y / / ! I g c M P P h V f w N Z N N I W N a r P I N N c r y M M g y g > ",
"U h a h I W ! W I M M N W I U T V d Z U P P T ^ I c c I I P V h y M Z I N g h > ",
"P h a f P I I I I M N I ! W R ~ Y g V U P Y W / Z c c W R P P h a B I W I N M > ",
"P h a h j P P I I M N V Y Y U R D g V Z N I W ! V c g T ! Y P g t v Z Y Z j N > ",
"h i w w g g f N N r e p M N j Z g t d m M M V Z a r w N Z g a r q t d g g y s % ",
"g w 7 7 w i y y t > > > t d d m } } { <.5.O.A C t 7 6 t y q 7 6 : 8 w q 7 6 2 X ",
"! P g g Z T I I Z e y B Z H $.3.q.N.k.D.P.C.n.7.#.b e M N w a y w d y r 6 , 6 + ",
") R j j U R Y W E y x S E -.q.Z.b.g.b.E.E.E.E.G.m.-.x Z N i a N y y a u < , < o ",
") Y j f j Z I W H x x S $.6.c.g.e.y.a.D.W.T.T.T.G.0.@.G N r g N M i 0 0 7 , = o ",
"U j f i g h i g a 9 x +.q.A.c.t.y.r.r.b.W.T.R.T.T.G.M.;.P i h P M a i i 0 , < o ",
"R U j f g g i a a 9 z 5.G.W.D.a.y.y.r.a.G.W.E.P.E.R.G.8.K i h N M g f f p 1 1 @ ",
"` R P i h P g N N e l w.W.U.E.c.t.y.y.r.v.F.Z.k.A.E.W.M.;.g g g s s g a r 1 1 @ ",
"U N i 7 w i i g M e | C.E.T.Y.F.a.r.y.r.p.h.e.i.F.E.R.D.*.9 < < ; 2 2 3 < : -   ",
"i 7 , < 7 i a N c z 2.J.Y.U.U.E.c.r.y.y.s.r.t.j.I.E.R.S.*.9 7 : ; 2 6 1 ; ; - X ",
", * O , i j j N B z 6.G.T.U.E.H.b.t.y.y.y.y.e.A.E.R.T.L.0.F N g w d g y 9 1 e @ ",
"1 < < < j T U R Q v ..N.E.W.A.j.e.r.r.s.f.y.i.D.R.R.T.K.w.K P Z M I I g 1 < 1 $ ",
"p 7 1 i U ^ ) ` / M X.B.E.H.z.i.u.y.r.s.f.y.j.I.R.R.W.H.4.E U U N I Y N p < < @ ",
"p 1 1 f T ` ] ,._ M  .N.W.E.E.J.A.j.a.t.d.p.Z.E.Y.W.Y.V.%.T T U g P P h p < * o ",
"1 < < p T ` ` ' ! d k 6.P.E.W.E.E.E.L.A.x.k.L.W.T.W.Y.n.>.T T U M N P h p < - X ",
"1 < : 0 P R T T D y 5  .m.E.W.Y.W.W.T.Y.Y.K.Y.W.W.Y.V.7.Q U P V d g j g y 7 : + ",
"< * & < i M g g M t 5 k -.w.H.T.T.T.T.Y.W.Y.T.W.Y.l.=.[ d w 7 7 : q s d s w > # ",
"< < < p j Z h N M a y v n &.N.I.W.R.T.Y.W.W.E.K.A.<.4 r p 7 7 0 9 t M V B c t % ",
"p 1 1 h P T N V V M M V Y J 3.w.B.G.Y.E.S.G.S.q.<.F q a i 0 i i t M U Y I N a - ",
"N i 0 a V U h j j g h V Y Y V L O.:.9.q.<.1.3.o.E N 0 i p u f V M B D W Y N t @ ",
"P a w g Z T j P V j j N T U D T Z M G o.( Q ! R I g 0 0 i i h P V Z Y E P g y $ ",
"I f 7 i P T U U D g g V Y U D U D g M Y ) R R R P g 0 r i i h N B B Z Y N g w @ ",
"g 0 6 w g P j V N s s s j D j D g q g D R U U U N y 0 i i 7 p i s g j N g y 0 @ ",
"h 7 < < g j g g g t t g B D D D M t s s j f f g w q t N B i M g t t 8 w 9 < > + ",
"h 0 < 0 d M d g g t v B D H D E S d w w w 7 6 7 6 8 d E Q I Z N y 2 ; : ; * ; @ ",
"P a 9 y V D V Z V g M Z ~ _ ~ _ Q v g g g i i h s d D ( ,._ ! I c 9 : < < : < @ ",
"I a q a Z T D U Z g B D _ ~ ~ ( D M g f f w i h g v D ~ _ ! T N y 9 9 w < < < @ ",
"T g w f V Y P I Z g M Z ~ ! E ! D d t w i 7 i h g M B D T T I c e e r a w < * o ",
"I f 7 w j V N V V g M Z ! T U Q D g f w w 7 i N M M B D T D I N a t r i w 9 = X ",
"P 0 6 i g N j V Z c M Z Q Y D R D s w f w i g N M g B D Y I Z Z M x r y q 6 = . ",
"p < : 0 g N h V Z a M B D D D Y j 8 w w i i g Z M g j D Z Z N B M e 9 1 < : &   "
};
