/* XPM */
static char *result[] = {
/* columns rows colors chars-per-pixel */
"40 40 170 2 ",
"   c #7F623A",
".  c #84643D",
"X  c #88663D",
"o  c #9B743F",
"O  c #856941",
"+  c #8B6B43",
"@  c #866948",
"#  c #906E46",
"$  c #8E704C",
"%  c #937445",
"&  c #9A7445",
"*  c #9C7C46",
"=  c #94744B",
"-  c #9A774A",
";  c #9C7A4B",
":  c #9C7C51",
">  c #A17F47",
",  c #A27D4C",
"<  c #A37F51",
"1  c #9D814B",
"2  c #9F8153",
"3  c #9D875D",
"4  c #A4824D",
"5  c #A9854F",
"6  c #A4884E",
"7  c #A58352",
"8  c #AA8553",
"9  c #A68851",
"0  c #AC8A55",
"q  c #A68759",
"w  c #AA8759",
"e  c #A68A5A",
"r  c #AC8C5A",
"t  c #B08757",
"y  c #B18C56",
"u  c #B18658",
"i  c #B28E5A",
"p  c #AD9157",
"a  c #AD905C",
"s  c #B49156",
"d  c #B4925D",
"f  c #B9955E",
"g  c #BB9A5F",
"h  c #979374",
"j  c #9C9777",
"k  c #A48B63",
"l  c #AD8E61",
"z  c #B28F61",
"x  c #AE9365",
"c  c #AC966D",
"v  c #AB9A6F",
"b  c #B59462",
"n  c #BA9662",
"m  c #B69965",
"M  c #BC9A64",
"N  c #B79868",
"B  c #BD9C69",
"V  c #AE9B71",
"C  c #A79E79",
"Z  c #BB9F71",
"A  c #BFA06B",
"S  c #A7A17C",
"D  c #BFA372",
"F  c #B8A477",
"G  c #B4A57B",
"H  c #C19D66",
"J  c #C29E69",
"K  c #C3A166",
"L  c #C4A26B",
"P  c #C9A56D",
"I  c #CCA96E",
"U  c #C5A672",
"Y  c #C9A671",
"T  c #C5A873",
"R  c #CCAA73",
"E  c #CCAE79",
"W  c #D1AD72",
"Q  c #D1AF7A",
"!  c #CFB17B",
"~  c #D3B175",
"^  c #D3B37A",
"/  c #D8B678",
"(  c #D7B87A",
")  c #DAB97D",
"_  c #7FEAEE",
"`  c #9F9E80",
"'  c #9DAC9C",
"]  c #A1A485",
"[  c #ABA682",
"{  c #A8A98A",
"}  c #B2AA85",
"|  c #B7B28B",
" . c #A1AB95",
".. c #A5AE9A",
"X. c #AEB397",
"o. c #AFB399",
"O. c #BEBB94",
"+. c #93B1A3",
"@. c #95B1A9",
"#. c #9DB7AA",
"$. c #9DBCB5",
"%. c #A7BDA8",
"&. c #A9B9A9",
"*. c #D6B882",
"=. c #A5C0AB",
"-. c #AEC2AC",
";. c #A1C4BA",
":. c #AEC3B8",
">. c #9FC7C7",
",. c #A3CAC3",
"<. c #ACCBC5",
"1. c #A0CCC9",
"2. c #AFCECA",
"3. c #B3CCC3",
"4. c #A5D3CC",
"5. c #A9D0C9",
"6. c #B9D3CD",
"7. c #A5D8D8",
"8. c #ADDFDE",
"9. c #B1D9D6",
"0. c #BADAD7",
"q. c #B4DDDC",
"w. c #B0DFE0",
"e. c #8CE3E4",
"r. c #84E6EC",
"t. c #8CE4EA",
"y. c #82E9ED",
"u. c #93E5E6",
"i. c #9EE5E5",
"p. c #96E5EB",
"a. c #9DE6EB",
"s. c #9CE9ED",
"d. c #85E6F2",
"f. c #81E8F1",
"g. c #A5E7E9",
"h. c #ACE6E9",
"j. c #A4E9EB",
"k. c #BBE4E1",
"l. c #B9E6E9",
"z. c #B6EAEB",
"x. c #BBEBED",
"c. c #B6EEF0",
"v. c #BCEEF1",
"b. c #BEF0F0",
"n. c #C4DEDB",
"m. c #C2E5E5",
"M. c #C9E7E5",
"N. c #C4ECEB",
"B. c #CAEEEE",
"V. c #D2E9E7",
"C. c #D4ECEB",
"Z. c #CDF0EE",
"A. c #C2EFF0",
"S. c #C4F0F1",
"D. c #CBF3F3",
"F. c #D4F3F3",
"G. c #DDF5F5",
"H. c #DEF7F8",
"J. c #E3F6F6",
"K. c #E9F4F6",
"L. c #E6F9F6",
"P. c #E1F7F8",
"I. c #E6F9FA",
"U. c #EBFAF9",
"Y. c #FBF7F6",
"T. c #F5FBF6",
"R. c #FAFAF5",
"E. c #FCF7F9",
"W. c #F4FAFA",
"Q. c #FAFAFA",
/* pixels */
"f 0 7 8 n H n L R J n n J H H P M y d f H H I / P H M I ~ W I P M M H L J H b = ",
"i 8 5 8 d M f H J B n f H H H P M 0 s f f H I / J n n I W I I J n n H J J n b : ",
"y 5 4 9 f n f n n n i y i f f H s 4 0 d f f J Y H d d J J J J J f g g n n i l = ",
"y 4 4 9 d n d n b w w w y y y y 6 > 9 r i i n H i 5 5 i H d z n 9 9 9 r 8 8 7 @ ",
"f 0 6 0 n J B n b w w w y 0 0 9 4 > 0 s y y z n r 7 , u u w t 9 ; ; 4 7 7 < : @ ",
"P g d n P E Q R L i i b H H g M d 0 n M M M J Y n u w J J n n d 8 i b M d r s : ",
"K g f f J I R Y J n n N P J L P M a B K H H P Q J z z J J H H d r b B J n b f : ",
"f f y i H J J J H z b H R R P ~ L d B A H L R R B z z J Y H H n r N J Y H n b : ",
"H f y f M H H J J b n N L L L R A d M A M J Y R N z d P R L H d r x B L M n n : ",
"H y 8 0 s f i f n w w u b n f M d 9 d f f b M B i w 9 n M f y 0 7 e a d s r r % ",
"f 0 7 5 0 y y r w : : 2 w a s a e j  .] C ] v b 0 4 4 r u 9 8 7 1 9 9 9 7 4 1 O ",
"R H f d B L L J B e e m B A G o.:.n.N.9.q.k.5.%.[ r e b N 0 r r e r i 0 4 4 1 O ",
"~ P K g K K L Y U r x N U &.6.V.L.T.T.U.W.W.J.N.5.C l N M 0 i n r r u y , > , . ",
"~ K g s g K H U U r l N S 7.I.W.T.R.R.T.W.W.E.W.M.>...Z M 8 d M d i 0 8 , > > . ",
"K g g 0 y d y b z 7 l [ ;.N.W.Q.R.R.E.U.N.H.W.Y.U.F.0.} H y f n d i y y 8 , , X ",
"I K g 0 d f y d r 7 c >.S.h.S.G.W.R.W.F.i.B.U.R.Y.T.J.&.J i f n b d s y t 8 , + ",
"~ I g y g g f n b e ] 8.v.t.r.p.x.F.P.c.e.j.P.Q.E.E.W.6.G i i f p a d i w < < + ",
"K H y 5 t y y b b l #.A.j.r.r.d.r.t.s.p.r.u.F.Q.E.E.T.C. .7 , ; % 1 1 7 , - = . ",
"y 5 , > 5 y y d z k ;.b.u.r.y.y.y._ y.d.f.t.z.W.Q.T.Q.U.<.k 5 , * 1 4 < - - = O ",
"> > o , y g g M N q +.l.l.p.t.r.y.y.y.d.f._ u.G.W.T.R.P.>.c b s r a d 0 7 7 7 @ ",
", , , , g P P I Y c 1.G.W.G.x.g.u.y.y.y.f.f.t.A.W.R.Q.B.@.b M M n J J d < , < # ",
"u < u u K W W / ^ V 2.U.E.R.R.I.D.s.y.r.d.d.t.w.L.Q.R.G.;.U L L n J U n u , , + ",
"u < , y L / ) ) ! b ' F.R.R.R.Q.P.i.y.r.t.a.v.G.W.R.T.Z.-.P P K d n H f u , & X ",
"< , , y L ( ( ( R d h 0.T.R.Y.W.S.e.u.j.D.P.W.R.Q.T.T.w.O.I P K n n H f u , = . ",
", , ; w H I I I B r 3 $.P.W.Q.W.l.z.F.U.W.R.R.T.Q.W.F.,.E H H n a d d f p 7 = O ",
", & % , y d s d d e q j w.F.U.Q.K.W.Q.W.Q.R.R.T.W.M.$.` d 9 8 5 ; 9 p a a 9 7 @ ",
", , , u n M b n b i a x o.;.F.W.E.W.W.T.Y.E.Q.Y.J.4.h r u 5 8 8 4 r b M M b q $ ",
"u < < z L L M M M d N M L F 5.B.I.W.W.T.W.W.L.N.3.o.e u y 5 y i r d A L J n i $ ",
"f y 8 i M K g f g d d g P A G =.5.l.n.8.Z.m.:.X.F n 8 y y u s H d N L R J b r # ",
"H i t d H L g H A f g M P K A T G { C | -.| T R J d 7 t u y s H b B A T J s r # ",
"H i 0 y K L K K A d d A L L A P A a b P ~ I I I J d 8 w y y f H m B B L M d w + ",
"f 8 , 6 f K M M f r p p g g g A d w d B I K K K n y 9 y y 5 u u p d f b d r 8 + ",
"f 5 , 5 s n d f d e e a M A A A m e p d g s s s 0 9 r b M i d d 0 9 9 8 7 4 ; + ",
"f 5 , < a b d a a r x m A A A T N r 9 0 y 6 4 5 4 6 b D T B B N r 1 ; ; - & ; O ",
"H r 7 r M L B B B d m A ! ~ E ^ U x d d d y y f a a A ! *.^ R J l 7 ; < ; ; , + ",
"J i 0 s M L A L M d b A ! ! E ! U b s d s 0 y f d b A T ^ R P n r q 7 9 7 , , X ",
"I i 6 d H L M J M d b A ~ R P R A a 0 0 y 5 y f b b b A L T J b w q w y w 5 - . ",
"L y 5 y f M n M B d b B T U A R A d p 0 5 5 y f b b A L L K J n z w w i 8 4 *   ",
"H 9 , y d M f M B i b B T L K T A p p 0 y 0 d H b b m A L J B N b e w w 8 4 *   ",
"u , , 9 d g f M N z x N L L M L n 9 0 y s 0 d J d d d A A M M n b w 7 8 , ; %   "
};
