/* XPM */
static char *result[] = {
/* columns rows colors chars-per-pixel */
"40 40 212 2 ",
"   c #1D140F",
".  c #341B0C",
"X  c #271610",
"o  c #29231E",
"O  c #3F2017",
"+  c #322622",
"@  c #322C25",
"#  c #3C342A",
"$  c #47180A",
"%  c #4D2919",
"&  c #582515",
"*  c #69240F",
"=  c #672912",
"-  c #6D2D11",
";  c #772C15",
":  c #7D3818",
">  c #452E21",
",  c #4C3C25",
"<  c #42342C",
"1  c #49372D",
"2  c #58382A",
"3  c #463C33",
"4  c #4D3D35",
"5  c #543E34",
"6  c #693D2B",
"7  c #56462D",
"8  c #4C443A",
"9  c #584135",
"0  c #5C4B33",
"q  c #50443A",
"w  c #5A4539",
"e  c #53483C",
"r  c #5E4A3D",
"t  c #65492D",
"y  c #664C39",
"u  c #754E34",
"i  c #6A5537",
"p  c #735B3B",
"a  c #795E38",
"s  c #7D613C",
"d  c #544C42",
"f  c #5F4F43",
"g  c #5E5243",
"h  c #59524A",
"j  c #515152",
"k  c #6C5642",
"l  c #685848",
"z  c #655E54",
"x  c #7B6545",
"c  c #6E6256",
"v  c #776759",
"b  c #5A6A7D",
"n  c #7C7469",
"m  c #666F77",
"M  c #8A2A0F",
"N  c #912D0F",
"B  c #862D13",
"V  c #922E12",
"C  c #8D3115",
"Z  c #83331A",
"A  c #883618",
"S  c #943114",
"D  c #973718",
"F  c #A53F19",
"G  c #933F22",
"H  c #AA421A",
"J  c #A14F19",
"K  c #B2491B",
"L  c #A4521C",
"P  c #8B4628",
"I  c #974723",
"U  c #BE5E22",
"Y  c #A24F32",
"T  c #84643D",
"R  c #88663D",
"E  c #97653C",
"W  c #9B743F",
"Q  c #C56122",
"!  c #D66825",
"~  c #DC6A26",
"^  c #846943",
"/  c #8B6B43",
"(  c #866C49",
")  c #976B47",
"_  c #8F734C",
"`  c #947445",
"'  c #9A7445",
"]  c #9B7B47",
"[  c #93744B",
"{  c #9A774A",
"}  c #9C7A4B",
"|  c #947255",
" . c #9B7C52",
".. c #9A7E59",
"X. c #A27845",
"o. c #A27D4C",
"O. c #A37F51",
"+. c #A8735A",
"@. c #817365",
"#. c #88796A",
"$. c #907D69",
"%. c #B87A60",
"&. c #9D814B",
"*. c #9E8154",
"=. c #A4824D",
"-. c #A7864E",
";. c #A58352",
":. c #AA8553",
">. c #A68851",
",. c #AC8A55",
"<. c #A58558",
"1. c #A98758",
"2. c #A68A5F",
"3. c #AD8C5A",
"4. c #B18C56",
"5. c #B38859",
"6. c #B28E5A",
"7. c #AE905B",
"8. c #B4925D",
"9. c #B9975C",
"0. c #B9955E",
"q. c #95816E",
"w. c #948473",
"e. c #988875",
"r. c #9C8A76",
"t. c #9D8D7A",
"y. c #9F907F",
"u. c #A48B64",
"i. c #A78C65",
"p. c #A38C6A",
"a. c #AC9269",
"s. c #B59361",
"d. c #BA9662",
"f. c #B79965",
"g. c #BC9A64",
"h. c #B3986D",
"j. c #BD9C6A",
"k. c #A48E76",
"l. c #A18E7D",
"z. c #BC8A71",
"x. c #AA9274",
"c. c #A3917D",
"v. c #AA967B",
"b. c #B69B73",
"n. c #BDA379",
"m. c #C19D66",
"M. c #C29E69",
"N. c #C3A166",
"B. c #C4A26B",
"V. c #C9A56C",
"C. c #CCA96E",
"Z. c #C9A671",
"A. c #CCAA72",
"S. c #C7A978",
"D. c #D1AD72",
"F. c #D1AF7A",
"G. c #D4B275",
"H. c #D4B479",
"J. c #D9B87B",
"K. c #7D8386",
"L. c #988D80",
"P. c #9A9289",
"I. c #978A94",
"U. c #A59481",
"Y. c #AB9985",
"T. c #A49988",
"R. c #AC9D89",
"E. c #B49D89",
"W. c #A39D95",
"Q. c #B8A48B",
"!. c #B8AA98",
"~. c #BDB19C",
"^. c #BCB5A4",
"/. c #C2AB8C",
"(. c #C8B8A2",
"). c #CBBAA4",
"_. c #D4BAA2",
"`. c #D8BCA3",
"'. c #C4BCB2",
"]. c #D6C5AD",
"[. c #DBC4AC",
"{. c #DAC7B2",
"}. c #E2C6AD",
"|. c #E3CEB6",
" X c #ECD5BB",
".X c #E9D5BC",
"XX c #F1D8BE",
"oX c #A1BFE4",
"OX c #BFC1C3",
"+X c #B8C5D2",
"@X c #BCCCDD",
"#X c #A3C1E5",
"$X c #B3C9E5",
"%X c #C4CCD5",
"&X c #D4D3D3",
"*X c #EADAC1",
"=X c #E5D9CB",
"-X c #ECDECE",
";X c #F4DCC2",
":X c #F8DEC4",
">X c #E6DED7",
",X c #FBE1C7",
"<X c #F4E4CB",
"1X c #FCE4C9",
"2X c #FBEBD6",
"3X c #FDF0DC",
"4X c #CDDBEC",
"5X c #DCE6F1",
"6X c #F8EEE4",
"7X c #FBF1E4",
"8X c #E1E8F0",
"9X c #F6F6F6",
/* pixels */
"0.,.:.:.0.m.g.M.Z.M.g.d.M.m.m.V.g.4.9.d.m.m.D.J.V.g.g.C.G.D.C.V.f.g.M.N.N.M.s.[ ",
"6.:.;.:.8.g.0.M.V.j.s.0.m.m.m.V.9.,.6.8.0.9.C.G.B.g.g.V.D.C.D.M.d.g.m.M.M.d.s.[ ",
"4.-.o.-.6.g.0.0.d.s.6.4.8.8.0.m.,.&.;.,.,.3.f.B.g.8.8.M.V.M.M.M.9.9.0.g.d.s.3.[ ",
"4.-.=.>.8.d.0.d.s.3.1.:.4.4.4.4.i > , , , 7 7 ^ 6.-.-.6.d.6.d.6.:.>.>.3.:.:.<.( ",
"0.,.-.4.g.M.j.g.s.<.<.1.3.o.t , l n n b b n n k , t [ <.5.:.3.:.} } -.;.;.O.O.^ ",
"V.9.8.0.V.A.H.S.V.8.6.s.s.x g d Q.XX&X#X#X=X.Xy.d f x s.M.d.d.s.1.3.s.d.6.3.6. .",
"N.9.8.0.M.C.A.Z.N.s.s.s._ d ~.*X<X<X>X#X#X-X1X,X*XR.d ..M.m.d.0.3.s.j.M.f.d.0. .",
"m.0.5.6.m.M.M.M.j.s.s.x # [.XX:X3X9X8X#X#X;X1X,X:X X/.@ O.M.d.0.6.f.M.Z.m.0.s. .",
"m.0.8.8.g.m.m.m.m.s.s.x 3  X1X1X9X9X5X#XoX=X<X1X1X1X`.# *.M.g.8.2.s.j.j.j.0.9. .",
"0.6.,.,.6.8.9.0.d.:.y f Q. X:X7X4X$X$X#XoX$X$X>X1X1X XT.e ^ 6.3.>.>.7.s.8.8.7._ ",
"0.,.-.-.,.3.3.3.>.{ , e |.;X1X2X>X%X#X#XoXoX%X-X1X1X:X_.# i ;.=.&.>.>.:.=.&.&.R ",
"A.m.8.8.j.V.N.j.f.x l w. X,X1X1X1X>X$X#X#X%X-X:X1X1X:X}.#.y [ 3.1.3.7.,.=.=.=.T ",
"G.V.9.9.N.C.V.Z.j.8 #.*X.X1X1X1X1X1X-X$X%X-X2X2X1X1X,X|..Xh p 8.3.3.3.4.-.] X.T ",
"D.V.9.9.9.N.M.V.g., #..X|.,X1X[.).|.1X1X1X:X}.).|.1X:X X.Xh p s.8.3.:.:.:.=.X.T ",
"N.m.9.,.8.9.6.8.2., @.[.[.;X;X@.4 $.1X1X:X*Xv 3 l.:X X[.[.h p d.9.6.4.4.-.o.o.R ",
"V.N.9.4.8.8.3.6.6.[ 0 c ].|. X'.d + $.XX*Xv o z {. X{.(.l i ,.d.8.9.6.5.:.:.o./ ",
"G.C.g.6.9.g.8.d.f.<.| x z {.:X7Xm z ].-X:X(.j K.6X;X(.k x <.6.8.7.7.8.6.:.:.O./ ",
"N.g.4.-.4.4.3.s.s.<.<.[ y @.{.7X^.^.2X:X:X2X!.^.6X).v 0 [ o.o.o.` &.&.*.} { [ T ",
"4.-.=.X.-.4.6.9.s.<.O.O.[ 0 @.{.1X1X1X1X1X1X1X:X).c t o.:.-.=.o.] &.=.} } { [ T ",
"X.X.W X.4.g.0.g.d.1.<.:.:.E % !.;X1X1X,X:X1X1X:X$.2 ) d.j.8.0.8.,.7.s.3.<.O.<./ ",
":.X.o.:.0.V.V.C.Z.7.1.;.X.C ; z.}.;X;X*X*X;X;X`.+.; G 8.V.m.m.M.d.j.B.8.:.o.O./ ",
"4.:.o.5.N.G.D.J.F.s.3.E A C Z C M.`._._._._._.%.C B C P 0.M.V.m.d.M.Z.d.:.X.o./ ",
":.:.o.5.V.G.J.J.G.8.;.E Z Z C S G Y Y G G Y Y G V B B G 5.N.V.m.8.d.m.m.5.o.' R ",
"O.o.o.4.B.J.J.J.A.7.p k E.I.) D V V N M M V V V I | I.E.x o.V.N.d.d.d.0.5.o.) T ",
"O.X.} :.m.A.V.V.j.S.v.P.@XOXg - S S D S C S S C = c %X+XL.Q.F.d.7.8.9.8.3.-.{ ^ ",
"X.' ` o.4.0.8.9.7.$.W.OX%X).@ = C S D K K D S C $ q ].%XOXL...O.&.>.7.7.7.>...( ",
"O.{ } 1.g.g.9.s.3.7 m +X|.t.> A F F K ~ ~ H H F = 4 T.*X+Xj i O.*.,.s.f.f.s.1._ ",
"5.:.<.s.M.B.f.g.8.i n ].T.X : Q ~ ~ ~ ~ ~ ~ ~ ! Q - + !.^.l a 4.1.s.N.V.M.d.6.[ ",
"0.,.:.6.g.N.9.0.0.;.i # # + 2 P Q ! ! ! ~ ~ ! U P 1 + # # p 1.d.9.f.j.Z.M.s.3./ ",
"M.6.:.8.m.V.g.m.j.9.*._ ( < 9 5 P J J J L J J : 9 5 1 s / O.0.g.f.j.B.S.M.9.,./ ",
"M.8.:.6.N.V.N.N.N.8.8.g.2.< r y y u 6 . . t u y y w 1 O.4.5.0.g.f.f.j.M.f.8.1.` ",
"8.:.=.:.9.N.9.g.g.3.3.s.p.l < 1 r r 4 d d 4 y w < 3 l u.4.:.4.6.7.8.9.g.8.3.;./ ",
"9.=.X.:.8.9.8.8.7.u.u.k.c.e.o O 6 2 3 v.c.< 2 6 . @ e.U.x.i.8.8.,.>.>.>.;.=. .R ",
"0.:.o.-.7.f.7.8.7.p.t.t.U.t.8 & * % 8 e.w.1 & * % 4 e.U.Y.c.h.f.3.&.} } { ' } / ",
"m.4.;.4.g.N.j.j.j.p.c.T.R.R.t.#   e t.t.r.q.<   q w.U.R.Q.E.n.M.8.<. .o.o.' o./ ",
"M.6.,.6.j.V.j.N.j.s.s.b.R.R.Y.y.w.w.c.t.t.r.$.$.$.L.U.R./.S.Z.d.2.;.;.:.;.o.o.R ",
"V.0.,.8.9.V.m.M.j.7.8.j.S.S.Y.Y.c.t.t.r.r.e.r.l.U.l.h.n.j.B.M.s.1.:.1.6.,.o.] T ",
"M.4.-.,.9.g.0.g.g.7.f.j.A.S.b.n.v.t.r.r.e.e.k.x.a.a.j.j.V.N.m.d.s.1.1.6.:.-.] T ",
"m.:.o.3.9.g.0.j.j.s.f.j.S.V.j.C.h.p.u.u.u.u.a.h.d.s.f.B.B.m.g.j.s.3.:.:.:.=.] s ",
"4.o.} :.9.s.9.f.g.6.s.j.j.j.g.B.f.:.,.,.4.4.s.j.s.8.9.j.n.g.g.f.a.1.<.-.o.} ` s "
};
