/* XPM */
static char *e7982380cc0548858ce87548f1fe3b03e2wRiDPTechF2Yvq[] = {
/* columns rows colors chars-per-pixel */
"40 40 223 2 ",
"   c #120E0B",
".  c #15110E",
"X  c #191413",
"o  c #2A0F07",
"O  c #24160C",
"+  c #271E17",
"@  c #351E16",
"#  c #2A2215",
"$  c #2A231C",
"%  c #33291A",
"&  c #3F331F",
"*  c #2C2A27",
"=  c #352824",
"-  c #352D27",
";  c #3A2B25",
":  c #3B3122",
">  c #3C352D",
",  c #393733",
"<  c #452317",
"1  c #572D11",
"2  c #712A10",
"3  c #732D16",
"4  c #7D2A12",
"5  c #673718",
"6  c #423624",
"7  c #44352D",
"8  c #4A3828",
"9  c #4A3C2C",
"0  c #573B2B",
"q  c #423B33",
"w  c #4C3C33",
"e  c #7B3B25",
"r  c #50422A",
"t  c #4D4336",
"y  c #594636",
"u  c #534139",
"i  c #5D4B3D",
"p  c #754324",
"a  c #7C4A2A",
"s  c #624E33",
"d  c #634B3C",
"f  c #635136",
"g  c #6A5535",
"h  c #69583C",
"j  c #755836",
"k  c #7A5D39",
"l  c #7D613C",
"z  c #544A42",
"x  c #5B4C42",
"c  c #674E40",
"v  c #675241",
"b  c #675848",
"n  c #655B51",
"m  c #7A6441",
"M  c #6E6154",
"N  c #75695B",
"B  c #596676",
"V  c #7B6F61",
"C  c #7D7162",
"Z  c #77726F",
"A  c #606872",
"S  c #8B2B0F",
"D  c #842C12",
"F  c #8B2E12",
"G  c #932F14",
"H  c #863519",
"J  c #943215",
"K  c #9B3615",
"L  c #863722",
"P  c #843D23",
"I  c #923F25",
"U  c #9A4C18",
"Y  c #AB431A",
"T  c #B44B1C",
"R  c #A6521B",
"E  c #A9531C",
"W  c #B9571E",
"Q  c #884526",
"!  c #934B29",
"~  c #984B32",
"^  c #905033",
"/  c #AB532C",
"(  c #83643D",
")  c #92713C",
"_  c #A2653E",
"`  c #CF6023",
"'  c #D36324",
"]  c #DC6B26",
"[  c #E06D27",
"{  c #9E5A41",
"}  c #836945",
"|  c #8B6C44",
" . c #876A48",
".. c #9D6948",
"X. c #89714A",
"o. c #987445",
"O. c #96754B",
"+. c #9A754C",
"@. c #9C7B4C",
"#. c #8C7658",
"$. c #977A54",
"%. c #9B7C53",
"&. c #A7764A",
"*. c #A27E4D",
"=. c #B36D51",
"-. c #A07E51",
";. c #A77F59",
":. c #837565",
">. c #877969",
",. c #8B7C6C",
"<. c #907C6E",
"1. c #B77D62",
"2. c #9E814F",
"3. c #A2824E",
"4. c #A9854F",
"5. c #A8894F",
"6. c #A48353",
"7. c #A68754",
"8. c #AA8553",
"9. c #AC8A55",
"0. c #A58459",
"q. c #A6895A",
"w. c #AC8C5A",
"e. c #B08251",
"r. c #B18C56",
"t. c #B28E5A",
"y. c #AD9057",
"u. c #AE905C",
"i. c #B59057",
"p. c #B4925D",
"a. c #B9945D",
"s. c #BB995F",
"d. c #9A8368",
"f. c #938575",
"g. c #9C8874",
"h. c #938978",
"j. c #9C8B79",
"k. c #A68968",
"l. c #B18D62",
"z. c #B28269",
"x. c #BC856B",
"c. c #B38E6A",
"v. c #AC9167",
"b. c #B59462",
"n. c #B99662",
"m. c #B79862",
"M. c #BC9A64",
"N. c #B5976A",
"B. c #BD9C69",
"V. c #A48C71",
"C. c #A18E7C",
"Z. c #B48D76",
"A. c #A4917E",
"S. c #AD987D",
"D. c #B39B79",
"F. c #BEA26D",
"G. c #C19A5F",
"H. c #C29C65",
"J. c #C19E6A",
"K. c #C89F68",
"L. c #C39076",
"P. c #C3A166",
"I. c #CAA167",
"U. c #C4A26B",
"Y. c #C9A56C",
"T. c #CDA96F",
"R. c #C4A471",
"E. c #CAA672",
"W. c #C4A870",
"Q. c #CCAA73",
"!. c #CDAE7B",
"~. c #D0AD74",
"^. c #D3B277",
"/. c #D2B27B",
"(. c #918E8A",
"). c #9D9484",
"_. c #A08F81",
"`. c #A69483",
"'. c #AB9987",
"]. c #B19E8A",
"[. c #BAAA96",
"{. c #ABACAE",
"}. c #C19B82",
"|. c #CDAF8B",
" X c #C5B19C",
".X c #D9B89E",
"XX c #CBBCA8",
"oX c #D3BDA7",
"OX c #D4C2AB",
"+X c #DBC5AD",
"@X c #CFC5B4",
"#X c #DAC9B7",
"$X c #E5CEB5",
"%X c #E8CEB2",
"&X c #ECD3B7",
"*X c #E7D3BA",
"=X c #EBD4BC",
"-X c #ECD8BE",
";X c #F0D8BE",
":X c #9EBEE4",
">X c #B1C5DE",
",X c #BAC9DD",
"<X c #9FC0E6",
"1X c #A0C0E6",
"2X c #ACC5E2",
"3X c #A7C6EA",
"4X c #B4C9E3",
"5X c #DAD1C5",
"6X c #D7D6D5",
"7X c #DAD7D4",
"8X c #E9DDCA",
"9X c #F4DCC2",
"0X c #F8DFC4",
"qX c #E7DCD1",
"wX c #FAE1C6",
"eX c #F4E0C9",
"rX c #FDE4C9",
"tX c #FAEBDA",
"yX c #DCE2E9",
"uX c #D5E1F1",
"iX c #F1EAE2",
"pX c #F8F1E9",
"aX c #F6F6F5",
/* pixels */
"a.4.t.M.M.w.q.b.w.t.M.t.4.8.9.6.o.@.@.| j ( ( o.+.%.w.p.w.6.t.n.w.*.m.B.b.p.t.t.",
"M.p.M.M.a.6.w.J.b.b.M.a.8.t.p.m % % % # O + # l +.%.6.9.*.@.p.B.n.w.M.M.m.p.p.M.",
"/.E.Y.H.H.m.J.Q.U.U.T.H.q.m f b V C B B A C V b f g *.t.w.8.B.U.E.B.Y.Y.M.n.H.Q.",
"^.U.U.H.M.M.U.U.B.U.Y.t.} t > :.9X9X4X3X4X9X9XN > t l 8.r.8.n.H.U.M.H.K.M.p.n.T.",
"U.p.p.r.t.b.m.b.p.p.w. .q  X;X9XrXeX>X:X,XwXwX9X-X].> ( @.4.p.p.b.w.r.a.r.9.t.M.",
"M.9.6.*.3.0.b.n.p.9.s t [.$X0XtXaXpX4X<X,XrXrXrX0X$X[.9 g w.M.J.p.q.t.r.4.9.t.n.",
"Y.b.b.r.8.w.B.U.U.M.s q *X9XwXtXaXaX4X1X,XrXrXrXrX0X$X- g p.U.E.B.b.U.U.B.m.B.U.",
"U.n.M.a.r.w.J.Y.U.$.v V -XwXtXiXuXuX3X<X4X7X7XeXrXrX-XN h O.a.H.m.b.U.Y.B.m.M.U.",
"p.5.w.w.9.6.b.B.0.& N $X9XwXpXyX2X1X1X1X<X<X2XqXrXrXwX$Xn 8 9.p.w.6.w.p.w.9.p.n.",
"U.y.b.M.M.N.F.E.w.6 N *XrXrXrXrXqX2X1X1X1X2XqXrXrXrXwX$Xn r M.U.m.w.J.Y.M.m.E./.",
"E.b.M.M.H.B.M.N.9 ,.OX*XrXrXrXrXwXqX4X<X4X8XwXrXrXrXrX*XoX:.8 w.b.b.Y.Q.U.M.E./.",
"J.w.b.n.M.m.b.N.$ ).-X*XrXrXrXrXrXwX7X6X7XrXrXrXrXrXrX*X-Xf.# 6.w.l.U.H.B.M.J.U.",
"w.3.w.p.p.0.0.0.$ ).-X$XwXrXoX[. XwXrXrXrX9X X[.OXrXwX$X-Xf.# %.q.6.w.9.9.8.t.p.",
"U.m.B.M.M.b.8.8.: h.+X+X9XwX<.w i +XwXrXwXXXw w j.rX-X+XOX>.: w.b.8.9.r.9.w.K.U.",
"Q.J.Y.U.Y.M.M.M.%.i >.OX$X-X#XZ X x oX9X Xw . (.#X;X$XOXN s u.^.Y.8.8.r.r.p.T.T.",
"Y.M.U.U.Y.m.M.M.9.$.h M $X9XiX(., [.-XwX*X'.* {.tX9X#Xn i | Y.^.U.6.8.i.r.p.I.Y.",
"m.w.b.m.M.q.9.p.w.p.X.i ,.#XtX@X).rXrXrXrX8X(.5XtXOX:.y k @.p.n.p.0.9.t.9.9.p.p.",
"B.b.M.m.M.w.t.M.B.b.t.| 9 j.$XwXrXrXrXrXrXrXrXwX+X,.6 O.6.q.M.m.n.b.M.H.m.p.U.U.",
"J.m.M.H.H.b.b.P.U.m.p.*.| 8 '.9XrXrXrXrXrXrXrX9Xj.8 O.a.p.t.H.H.M.a.U.U.M.m.~.Q.",
"M.r.a.M.s.9.t.M.B.t.9.o.H 3 Z.$X9XwX9X9X9XwX9X$Xz.2 P e.r.8.m.M.p.u.m.M.b.p.U.P.",
"U.w.p.M.s.w.6.w.w.b.&.! F D ~ L.*X*X*X*X*X=X*Xx.~ 4 S ! ..3.p.p.u.u.B.U.M.w.r.w.",
"/.B.J.H.H.n.t.p.w.M._ D F D S / x.x.z.z.z.x.x.~ F I 1.1.;.8.M.J.n.n.Q.!.R.p.r.r.",
"/.B.H.M.H.B.p.p.w.m.&.Q 4 F J J J J D 4 D J J J J =.&XeX|.6.0.m.n.b.E.Y.B.w.8.r.",
"U.p.M.a.M.p.8.8.7.p.|.}.L H F J J J J J J J J J ! l.%X=X9Xf.% 0.b.b.U.P.m.9.8.p.",
"8.@.w.p.t.0.*.3.2.7.|.+X.X.X{ D J J J J J J J D D ^ c.&XrXh.+ O.6.@.9.u.9.q.p.p.",
"M.w.J.Q.U.B.a.a.w.M.#.:.9XwX=.F G J T W T J J F D H +.M n b } n.n.6.p.H.B.U.Q.Q.",
"H.t.M.K.K.M.t.a.t.M.f q -X9X..D Y Y ' ] ` Y Y Y K H j 9 6 g a.H.n.6.t.a.B.B.K.K.",
"p.9.t.t.a.9.6.t.w.w.f t XX@Xi 5 ] ] ] ] ] [ [ ] W 5 O q.s.8.p.a.t.-.p.p.p.p.p.n.",
"B.p.m.M.m.u.w.B.b.p.u. .- * 5 U W ] ] ] ] ] ] W Q 7 ; w.M.9.a.a.b.6.m.M.p.p.M.U.",
"E.M.Y.E.Q.U.n.B.M.W./.%.. + 8 p U R E E E R R p y u 7 M.Y.a.G.H.J.t.Q.~.U.B.K.Q.",
"U.M.P.T.Q.J.p.M.M.B.!.#.. = ; 0 a a 1 1 1 5 a s i u # k.B.p.H.H.M.9.J.Y.P.s.H.Y.",
"s.y.p.M.B.b.p.B.N.v.D.>.- $ = 7 i u .   + 7 x v v w   >.V.q.m.M.p.6.p.a.p.9.p.n.",
"E.p.p.t.q.q.B.R.'.A.A.j.>.$ + ; ; = . ; d d c c d 9 X >.C.C.S.Q.M.@.6.8.6.@.w.H.",
"/.M.w.0.@.q.R.!.'.`.'.A.g.,.> .   X V b w v v v 7 - :.C.A.A.S.E.B.*.8.*.-.@.p.T.",
"/.p.9.6.6.q.M.E.D.D.S.A.j.C.C n n M `.z @ P P e < * f.C.V.v.N.H.b.-.6.*.@.@.p.U.",
"t.3.w.t.p.0.-.q.q.w.v.k.d.g.C.A._.`.].q o K K 2 < z d.V.k.6.9.w.0.%.0.8.3.w.p.p.",
"4.w.U.Y.U.b.9.9.b.b.t.r.6.V.d.g.j.`.].x @ 4 4 < x V.B.~.J.8.8.8.p.l.J.P.B.U.U.M.",
"a.p.J.I.Y.B.M.a.n.M.M.r.8.t.8.k.j.C.A.f.b O O ( 0.0.M.Y.B.9.r.8.a.b.Y.T.J.B.U.H.",
"M.r.p.a.s.p.p.a.p.t.a.8.o.&.o.+.$.%.0.%.} k k @.6.%.8.p.p.9.r.9.t.w.J.Y.b.u.m.a.",
"p.6.q.t.w.3.6.w.0.3.6.*.) o.+.+.X.@.*.O.} o.o.+.@.| %.9.9.3.w.p.q.2.t.p.9.3.w.t."
};
