/* XPM */
static char *_fd8e1ce697245b5fbb34297537f7491ajNXs4qaJlacqs7J[] = {
/* columns rows colors chars-per-pixel */
"40 40 182 2 ",
"   c #7D5E41",
".  c #8C6836",
"X  c #86693E",
"o  c #8C6C3D",
"O  c #91713F",
"+  c #866945",
"@  c #8C6C43",
"#  c #8B6B4A",
"$  c #936F43",
"%  c #9A6F41",
"&  c #947444",
"*  c #9A7545",
"=  c #967846",
"-  c #9C7C46",
";  c #94754A",
":  c #99764B",
">  c #967A49",
",  c #9C7B4B",
"<  c #967850",
"1  c #9D7C52",
"2  c #9D7B5A",
"3  c #A17B47",
"4  c #A27E4C",
"5  c #A27F51",
"6  c #9E824F",
"7  c #9F8053",
"8  c #9D865A",
"9  c #A3824D",
"0  c #A9854E",
"q  c #A48353",
"w  c #AA8553",
"e  c #AC8A55",
"r  c #A58559",
"t  c #AA875A",
"y  c #A5895B",
"u  c #AD8B5A",
"i  c #B28C56",
"p  c #B28E5B",
"a  c #B88F5D",
"s  c #AF905B",
"d  c #B4915D",
"f  c #BA945E",
"g  c #938F71",
"h  c #A38C65",
"j  c #AD8C61",
"k  c #B48F61",
"l  c #A79061",
"z  c #AC9365",
"x  c #A5926B",
"c  c #A9926A",
"v  c #A99A6E",
"b  c #B59462",
"n  c #BA9662",
"m  c #B59962",
"M  c #BC9A64",
"N  c #B1966B",
"B  c #B89668",
"V  c #B49B6B",
"C  c #BD9C6A",
"Z  c #BE9D6A",
"A  c #A39872",
"S  c #AE9F75",
"D  c #A39B78",
"F  c #B39C70",
"G  c #BDA16D",
"H  c #A9A17E",
"J  c #BFA573",
"K  c #B7A379",
"L  c #BCA678",
"P  c #C2995E",
"I  c #C09762",
"U  c #C19A62",
"Y  c #C29D64",
"T  c #C29C65",
"R  c #C19D66",
"E  c #C29E69",
"W  c #C29F6A",
"Q  c #C89F68",
"!  c #C39F72",
"~  c #C4A067",
"^  c #C2A16A",
"/  c #C4A26B",
"(  c #C6A26A",
")  c #C2A26D",
"_  c #C7A36D",
"`  c #C7A56E",
"'  c #CAA46C",
"]  c #CAA66D",
"[  c #CDA86E",
"{  c #C5A572",
"}  c #C9A671",
"|  c #CBA671",
" . c #C7AA72",
".. c #CAA972",
"X. c #CEAB72",
"o. c #CCAA74",
"O. c #CEAC76",
"+. c #CDAE79",
"@. c #D1AC75",
"#. c #D0AF7A",
"$. c #D3B37D",
"%. c #7FEAF0",
"&. c #929B84",
"*. c #9EA48C",
"=. c #9FA88F",
"-. c #9DA993",
";. c #A9A687",
":. c #AAA78B",
">. c #A4AB8F",
",. c #ADA88A",
"<. c #A5AC94",
"1. c #A4B29C",
"2. c #B4B594",
"3. c #B3B69E",
"4. c #9DB0A3",
"5. c #9EBAA7",
"6. c #9DB7A9",
"7. c #9CBBAC",
"8. c #9EBEB4",
"9. c #A0B3A2",
"0. c #AEB6A2",
"q. c #A5BBA6",
"w. c #A3BDAD",
"e. c #AABBAE",
"r. c #A4BDB1",
"t. c #D9B982",
"y. c #9CC2B6",
"u. c #9EC7BF",
"i. c #A3C1AD",
"p. c #A5C2B9",
"a. c #ADC3BA",
"s. c #9DCAC6",
"d. c #9AC7C9",
"f. c #A2CAC3",
"g. c #A8C9C4",
"h. c #A1CBCC",
"j. c #BDD9D6",
"k. c #B5DEDB",
"l. c #BCDEDB",
"z. c #BBE1DC",
"x. c #85E7E7",
"c. c #8BE5E5",
"v. c #84E7EC",
"b. c #8AE5EA",
"n. c #82E8ED",
"m. c #9EE6E7",
"M. c #91E2EA",
"N. c #9DE6EA",
"B. c #84E6F1",
"V. c #80E8F0",
"C. c #A3E4E5",
"Z. c #A1E5E9",
"A. c #A7EAEB",
"S. c #ADE9EC",
"D. c #B8E1E4",
"F. c #B0E7E9",
"G. c #B2E9EB",
"H. c #BAEAEA",
"J. c #C1DDDC",
"K. c #C2E1E0",
"L. c #C4EAEB",
"P. c #CCEDED",
"I. c #D3EBEA",
"U. c #CAF1ED",
"Y. c #D4F4F4",
"T. c #DBF5F5",
"R. c #D6F8F9",
"E. c #E4F5F5",
"W. c #E9F7F5",
"Q. c #E6F8F7",
"!. c #EBF8F7",
"~. c #E4F7F8",
"^. c #E3F9F8",
"/. c #ECFAFA",
"(. c #F6F7F6",
"). c #FDF7F5",
"_. c #F6FCF6",
"`. c #FAFAF5",
"'. c #F6F7FB",
"]. c #FDF7FA",
"[. c #F4FBFA",
"{. c #FAFAFA",
/* pixels */
"C ! t 5 t u t t e d p d d w 9 d f M M s q u d p e u b n p 0 0 w e u q - 9 3 3 , ",
"5 r 1 q d b p u u d d f f i e n f n f q , k n b u d n n p 0 e e e u q = q 9 3 , ",
": 1 , m +.$. .C n _ _ ] ..^ M ` R R M d r C { { b C } ( M i M W R M d q d d p p ",
"1 q q V $.t.+.{ ) O.X.@.$.O.) ..R U R M b } X.O.C ) X.] R d ( @.] ( n r n U M f ",
"r u r u C W W C C o.[ X.$...C ` U f M n C ..( } M ^ ] ~ U d R ( U f p q d M f f ",
"q b t r u k b d M ..] X.@.` C ( U U M b B } M W b C ` R M p M R f f e , p f M M ",
"q u q r p b d u b ^ ~ ( ` C d f i i d b b C b n s f M M f i f f d p e = w e i u ",
"t p q q u d u q u b f n n u - 4 3 3 4 q y d u d e q w e w 9 0 0 9 4 > X ; , , > ",
"R ] d w d n p w d n C ( ` n t p w w w t j W M ( n f M U n e w p u q , & 0 w w q ",
"R ] d q u d u e f f M ( ..C b n i i u u N { R ] ^ ^ ] [ R i i a p w , ; q w w q ",
"P ( u q e p w u m f f R ] C b ^ N ;.>.<.1.2.G  .) ^ ] [ R i i f i w , & 0 0 q , ",
"f U q , t u q q d p i f M N <.q.5.k.H.H.H.k.7.5.<.b M R M e e i e 0 - & 3 3 0 > ",
"0 w , 6 w e q , q u e u z -.l.L.H.F.S.S.G.G.L.L.l.*.u p p w w w 9 > & o > , 4 & ",
"i d e f ^ W C u n { ` L 1.l./.[.~.Z.b.b.b.m.Q.[.W.J.<.b d d M f t q , > q 4 q : ",
"d f e f C M M u n _ { 0.J./.{.`.^.N.n.v.v.N.Q.{._.Q.j.:.d d R M a e 9 ; q 4 q : ",
"n n u d M M f u n { 3.K./._.`.`.^.N.n.v.v.N.Q.`.`._.W.j.,.d M T n e - O , , 4 & ",
"n M u b R R M u n { p.Y.[.`.`.`.^.m.n.n.v.Z.Q.`.).`._.P.w.d M R M p 4 ; q 4 4 & ",
"e u q e p p p q u N y.Y.{.`.`.{.^.m.v.n.v.N.Q.{.].`.`.P.7.8 r t q 1 ; + > & $ + ",
"4 , > , w w w , y =.z.Q.{.[././.T.N.n.n.n.N.R./././.{.Q.k.&.< , : ; #   # @ $ # ",
"e e , e d d i , h 7.Y._.'.L.S.S.A.b.n.n.v.b.A.S.F.L._.{.U.7.b b d u 7 # r t u r ",
"n b t u d p e , 8 7.Y.{.'.T.C.c.x.v.n.n.B.B.b.c.C.Y.[.{.P.i.X.@.X.] b q n W _ n ",
"f p 9 t p p e : 8 6.Y.[.{._.T.Z.v.v.v.n.V.B.b.Z.Y./.{.{.U.w.^ ( W M p , a f R a ",
"d d q t p p e > 8 9.I.[._.[.[.Y.N.b.B.B.%.x.C.Y./._.{.[.L.q.n f a n p q p f M a ",
"9 q > > 3 3 , , l D g.E.`._.{.[.Y.Z.B.B.b.C.T.{.].`.`.Y.f.A u p e u q & 9 4 w 5 ",
"* > & > , - 9 q C V y.Y.{.).{.{._.Y.Z.M.Z.Y._.{.].)._.P.7.8 f n d b u = 0 4 q 5 ",
"* * O - 3 3 w p { G w.P.[.].{.`.`.[.T.D.T.[.`.{.{.{.[.L.4.r _ ` ( ( b 4 e w i q ",
"% $ . * 0 4 e d  .W F a.I.[.].`._.`._.!._.{._.`.{./.I.e.h e ] X.[ X.M , w i a w ",
"* * o 3 i i i d  .` M K a.P.(.{._.{.{.`.{.{.{.`.!.I.e.c r q ] [ [ [ M , w i f e ",
"* * & 3 e e w q m C n M S r.I.T.Q._.[.`.`.[.W.T.P.e.x u t q R ( ^ ^ b 9 e i p q ",
", , , u n n n u m ) ^ ^ G v w.s.h.P.T.T.T.P.h.d.r.S C C M p u i u u r 2 q 4 4 * ",
"4 t 7 b { ` { b C  .O.#.#.G N K H p.f.f.u.8.g x c C O.X.] n d d b b j 2 t q q , ",
"q e , d { ..{ b C  .} #.$.{ M ( M C J C z V d d u C ] [ ( n b b b b u 1 t q q 4 ",
"0 q > p ^ _ _ M C } ] @.$.{ M ( f M ( C p n d d u b ( ( ( n b n d u r 1 t q q 4 ",
", , > u n n C b C ` _ X.+.^ b ~ f M ( C u p i i y b W ( ( b d n d u q 1 u w t 5 ",
"; : ; q u u u u d n n M M d e M f d n u 4 w 0 w 6 e n M n e 0 e u u q < r 5 5 , ",
"@ @ X ; 7 q r > , q q w q , - d p e u q , 9 , 9 > 9 u u e , , 0 q 1 ; + ; ; ; @ ",
"d u q b  . .+.b p n M M M p u ` X.] ] W p M d f u C } ] _ d n ( W n t : t p p r ",
"n u q M o.o.{ b e p f U R d u ( } Q ] W p U U f u C } X._ d n ( ( M t : w p f q ",
"d d u C $.$.+.n p u i f T f p R R U ] W e p p p u C } ] W d d U I n u , e i d w ",
"0 q 9 m  .+. .b u e w p n d w f f f M f 9 e i d u b M M f e e p p p q = 3 4 0 - "
};
