/* XPM */
static char *result[] = {
/* columns rows colors chars-per-pixel */
"40 40 154 2 ",
"   c #795E38",
".  c #7F623A",
"X  c #84643D",
"o  c #88663D",
"O  c #9B743F",
"+  c #856941",
"@  c #8B6B43",
"#  c #866948",
"$  c #906E46",
"%  c #8E704C",
"&  c #937445",
"*  c #9A7445",
"=  c #9C7C46",
"-  c #94744B",
";  c #9A774A",
":  c #9C7A4B",
">  c #9D7C51",
",  c #A17F47",
"<  c #A27D4C",
"1  c #A37F51",
"2  c #9E804B",
"3  c #9F8153",
"4  c #A4824D",
"5  c #A9854F",
"6  c #A4884E",
"7  c #A58352",
"8  c #AA8653",
"9  c #A68851",
"0  c #AC8A55",
"q  c #A78559",
"w  c #AA8758",
"e  c #A6895A",
"r  c #AC8C5A",
"t  c #B08757",
"y  c #B18C56",
"u  c #B18658",
"i  c #B28E5A",
"p  c #AD9157",
"a  c #AD905D",
"s  c #B49156",
"d  c #B4925D",
"f  c #B9955E",
"g  c #BB9A5F",
"h  c #A58F62",
"j  c #AE8E60",
"k  c #B18F61",
"l  c #A69267",
"z  c #AF9262",
"x  c #A4956F",
"c  c #AE9469",
"v  c #B59461",
"b  c #BA9662",
"n  c #B69965",
"m  c #BC9A64",
"M  c #BD9C6A",
"N  c #BD9E70",
"B  c #BFA06B",
"V  c #ACA27C",
"C  c #BDA473",
"Z  c #C19D65",
"A  c #C29E69",
"S  c #C3A166",
"D  c #C4A26B",
"F  c #C9A56D",
"G  c #CCA96E",
"H  c #C5A572",
"J  c #C9A671",
"K  c #C7A872",
"L  c #CCAA73",
"P  c #CCAE78",
"I  c #D1AD72",
"U  c #D1AF7A",
"Y  c #CFB17B",
"T  c #D4B275",
"R  c #D3B37A",
"E  c #D8B678",
"W  c #DAB97D",
"Q  c #9E9E82",
"!  c #9EA68E",
"~  c #A3A185",
"^  c #A4A78B",
"/  c #B6AC85",
"(  c #B5AF8E",
")  c #A2AA94",
"_  c #A9AD92",
"`  c #A3AD9A",
"'  c #AFB095",
"]  c #A6B19C",
"[  c #A9B29E",
"{  c #B6B494",
"}  c #B2B79E",
"|  c #9BB6A5",
" . c #9FBDB4",
".. c #A5BBA7",
"X. c #AABAA6",
"o. c #A5BFAC",
"O. c #B0BCA8",
"+. c #A8BEB0",
"@. c #CCB683",
"#. c #D6B882",
"$. c #AAC3AF",
"%. c #A9C5B0",
"&. c #A3C7BF",
"*. c #9CC8C1",
"=. c #A4CBC3",
"-. c #A9CEC7",
";. c #A6CCCB",
":. c #A7D1CD",
">. c #AAD1CC",
",. c #A8D5D2",
"<. c #BFDBD5",
"1. c #BDDDDB",
"2. c #8EE4E6",
"3. c #86E6EC",
"4. c #8CE4EA",
"5. c #82E8ED",
"6. c #95E5E5",
"7. c #9CE5E6",
"8. c #95E5E9",
"9. c #9CE6E8",
"0. c #85E7F1",
"q. c #80E8F2",
"w. c #A6E3E5",
"e. c #A4E4EA",
"r. c #ACE6EA",
"t. c #A6E8EC",
"y. c #B9E8E7",
"u. c #B2E5E8",
"i. c #BBF1F4",
"p. c #C1DEDE",
"a. c #CCE6E5",
"s. c #CEE9E6",
"d. c #C2EDED",
"f. c #CDEBEB",
"g. c #D9EEEF",
"h. c #C0EFF0",
"j. c #CDEFF0",
"k. c #CBF3F4",
"l. c #D3F4F4",
"z. c #DAF5F5",
"x. c #E4F6F6",
"c. c #EAF6F6",
"v. c #E3F8F5",
"b. c #E9F8F6",
"n. c #E2F7F8",
"m. c #E5F9F9",
"M. c #ECF9F9",
"N. c #F1F7F7",
"B. c #FCF7F7",
"V. c #F5FBF6",
"C. c #FAFAF6",
"Z. c #FCF7FA",
"A. c #F3FBFA",
"S. c #FAFAF9",
/* pixels */
"f 0 7 0 f Z b D L A m b A A Z D m y f f Z Z G E F Z Z G I I I A m b A D S Z v - ",
"i 8 7 8 d m f Z A M b d Z Z Z F m 0 i f f Z G E A Z b G I G G F b b Z A A b n > ",
"y 5 4 5 d b f b b v i y s f g Z s 4 8 d f f A J b i f A J A A A v g g m b d j % ",
"y 4 4 9 b b d b v r 8 w u y y y 6 = 0 p i i d A i 8 4 i b i b i 9 5 0 0 8 7 7 @ ",
"f 0 6 y b A m m k 8 8 w y 0 5 0 4 4 0 p i y v b r < < w u w t 8 ; 4 4 7 7 < > # ",
"F g d b D U U L F k k v Z Z f Z s 0 m m b Z A J b i w Z A b b i q i v v d r d > ",
"S f d f A L L J A b v m F D S K m d m S Z Z L P M k k A F Z b b r v M A b v b > ",
"g f y i Z A Z A A k v m L L F P D a M B Z Z J I M k k A L Z Z b r n A J Z b v > ",
"Z f i f g Z Z A A v b m D D D L B d m B m A J J M k d D L Z Z d r a M B m m n : ",
"g i 8 0 d d s b b w w w v v g m d 0 p g f b b M i 8 0 n A f i 0 7 e a g s r r $ ",
"f 0 5 4 0 y i r w : > 1 r r s d 6 2 e a z z j k r 4 2 w i 7 7 7 = 9 9 8 7 4 2 + ",
"L A f d A D M A M e r c M D D K n a ] ....../ @.M r e v v 0 i r e a s w 4 , 4 + ",
"T F g g S G H J H j j M H J J { &.*.y.i.h.d.:.=.X.c r M b 0 i b a r r y < , , o ",
"T S g s g S Z D A h j b H H _ 1.m.l.w.8.8.7.l.m.s.[ c M m w f m f 0 8 8 5 < = X ",
"S g f 0 s d i v v 7 r M H ' 1.M.C.m.9.5.3.4.z.S.N.a.[ M Z t f g v r y y 5 < < o ",
"G S f s s v i i i 7 j N ( p.M.B.C.m.9.5.0.4.z.S.A.A.a.} A i f b f d s u t 8 1 @ ",
"E F Z y f Z d b v q k N o.z.C.C.C.m.e.5.3.4.z.C.S.C.b.-.C i d d e a s i w 1 1 @ ",
"S m y 5 5 y y d k q q l +.z.S.B.C.M.9.5.5.4.z.S.Z.C.c.>.x 4 < < : 2 2 7 < ; ;   ",
"y 5 , , 5 i i v v q 1 Q y.A.N.z.l.k.8.5.5.3.i.l.l.c.B.l.| 7 < < = 2 4 > : - ; X ",
", O O , u Z g m b q e ! j.S.c.u.6.2.5.5.3.0.4.2.w.z.S.z.%.d b d 0 a d i 7 7 q # ",
"1 < < < g F S G J k w ! f.A.Z.M.r.5.3.5.5.0.3.9.l.A.B.z.%.A A m v Z A i < < 1 $ ",
"t t 5 u S L T E R v r ~ s.A.A.A.v.t.3.0.q.5.9.l.M.A.B.l.$.F S S b A H b t < < @ ",
"u 1 < y F E W W R v e e  .z.C.A.S.m.t.0.3.6.l.S.Z.C.x.,.@.F F S d Z Z Z u < * o ",
"1 < < y F E E E L j 7 > | z.C.B.S.V.n.r.e.l.V.S.Z.C.v.;.@.G G S v b b f u < - X ",
"1 < < 8 Z I F F M r 7 3 ! 1.M.B.C.C.V.b.g.A.C.C.Z.A.s.O.P Z Z b p d v f 0 7 ; + ",
"< * & < r d d d i r 3 3 7 ~ <.c.C.V.S.S.C.S.C.C.A.s.) j r 8 8 5 2 9 p a a 9 > # ",
"< < ; w m m f f v r r p d n ^ p.n.b.V.S.C.V.M.v.s.` e r y 5 8 8 7 0 n m m v e % ",
"u 1 1 b A S m m m v n m S S M { &.*.f.l.l.l.;.*.X.v w i u 5 y i w v M S A b i - ",
"f y 8 i m S f g g f f n F S B F M l | $.%.$.V B D b 8 t i t s f d n D J D v r $ ",
"Z i w d m F m A m g f m F F g F m d m D T I G G A d 7 y t u f Z n M C J A d 0 @ ",
"Z s 8 y m F S S B d d B S D B S m p g D T G F F S d 4 0 y u f f n m M A m s w $ ",
"f 8 , 0 g Z g m g r p p g g n B f 0 d B F S S S m r 8 y y t y s r d g n d r 8 @ ",
"d 5 < 7 d v d d d e e a m B B B z e p s g d s s 0 9 r n n i d d r 9 9 8 7 < : + ",
"f 8 < 5 p d d d a r z n B B B K N r 0 0 0 6 5 5 4 9 a C H A A v r 2 : : ; * : @ ",
"Z y 7 r m D m M m d n M P Y P Y H z d f d y y f r d B Y #.U L A z 7 : 1 < ; < @ ",
"A d 8 i B D B A M d v D R R P Y H v a s s 5 y f d z m P R P J m r 7 7 8 1 < < @ ",
"F s 0 s m F A A M d f M P L K K D p r 0 y 5 t f v v n B K D M k w e w r 0 4 = X ",
"A i 4 s g m v m b d v M L K F F B d p 0 5 5 y m v v n D D D A b j w w i w 4 = X ",
"Z 8 4 0 f m b m M v v M K D B G m p p y y 5 d m n n n B D M Z m v r w w 8 4 = . ",
"u < : 8 p b f m m j z n D B B D n 9 0 0 s s d M d p g m D M b b v q 7 7 < = &   "
};
