/* XPM */
static char *result[] = {
/* columns rows colors chars-per-pixel */
"40 40 134 2 ",
"   c #000000",
".  c #060907",
"X  c #070A09",
"o  c #090D0B",
"O  c #0C110F",
"+  c #0E1311",
"@  c #111614",
"#  c #131A17",
"$  c #151D19",
"%  c #181F1C",
"&  c #19221E",
"*  c #1C2521",
"=  c #1E2924",
"-  c #292726",
";  c #202B26",
":  c #2D2A27",
">  c #232E28",
",  c #2C2B29",
"<  c #2F3127",
"1  c #26332D",
"2  c #28342E",
"3  c #353826",
"4  c #33332C",
"5  c #3B3F2B",
"6  c #293731",
"7  c #2C3A34",
"8  c #2F3F38",
"9  c #363631",
"0  c #393732",
"q  c #323B34",
"w  c #3C3C33",
"e  c #38373A",
"r  c #323F39",
"t  c #3C3B3A",
"y  c #403E38",
"u  c #3E432F",
"i  c #2F4038",
"p  c #334036",
"a  c #3D4136",
"s  c #33433B",
"d  c #39463D",
"f  c #35483F",
"g  c #3A483E",
"h  c #424336",
"j  c #44433B",
"k  c #44493E",
"l  c #494A3E",
"z  c #495037",
"x  c #4C523D",
"c  c #3B3940",
"v  c #3A4641",
"b  c #374941",
"n  c #3A4C43",
"m  c #3C5047",
"M  c #3E5349",
"N  c #414E44",
"B  c #4B4D43",
"V  c #414F49",
"C  c #4A4B4B",
"Z  c #425146",
"A  c #4B5144",
"S  c #41564C",
"D  c #4A544A",
"F  c #43594E",
"G  c #535443",
"H  c #565C46",
"J  c #53534B",
"K  c #535B4A",
"L  c #474554",
"P  c #455D52",
"I  c #4C5D52",
"U  c #575851",
"Y  c #5E5F58",
"T  c #55624B",
"R  c #586549",
"E  c #476054",
"W  c #496256",
"Q  c #4C6659",
"!  c #4E695C",
"~  c #516557",
"^  c #5D6055",
"/  c #5D6258",
"(  c #526B5E",
")  c #5C6C5C",
"_  c #626456",
"`  c #626D55",
"'  c #62655B",
"]  c #646B5B",
"[  c #696E5E",
"{  c #64715F",
"}  c #72735C",
"|  c #536F61",
" . c #567364",
".. c #5A7465",
"X. c #5D7865",
"o. c #577668",
"O. c #597768",
"+. c #5B7B6B",
"@. c #636563",
"#. c #6B6E63",
"$. c #627463",
"%. c #6D7264",
"&. c #6F766C",
"*. c #63796A",
"=. c #697E6E",
"-. c #727466",
";. c #757B64",
":. c #7B7D64",
">. c #75776C",
",. c #74796B",
"<. c #7A7D6B",
"1. c #757B73",
"2. c #7A7E72",
"3. c #62806F",
"4. c #7C8065",
"5. c #7C8069",
"6. c #638473",
"7. c #6C8372",
"8. c #678877",
"9. c #668878",
"0. c #708473",
"q. c #7B8274",
"w. c #738977",
"e. c #6D917E",
"r. c #808366",
"t. c #82886F",
"y. c #848972",
"u. c #898C73",
"i. c #858B7C",
"p. c #739782",
"a. c #719985",
"s. c #8A9389",
"d. c #999F8D",
"f. c #929C91",
/* pixels */
"i.i.>.[ <.u.5.<.q.:.;.4.y.y.y.t.t.;.$.{ ] $.] %.q.,.<.<.>.' / 1.2.>.>.>.#.@.@.' ",
"d.d.2.' } r.r.:.4.:.} ;.u.r.4.` ) 7.e.p.3.6.8.$.=.) ] -.%._ ^ >.>.-.-.#.Y B U Y ",
"%.%.K j l H G H H x G x H g N Q +.+.( ..Q P W 6.9.Z P ..B l l B l j a 0 - - t J ",
"^ Y C N B J G G G G l k  .8.Z W Q Q E W P F M F F Q a.8.O.W 4 h y j j 0 : - t U ",
"1.@.L c t y w y w d W 3.9.O.! m E W P W P F M m s  .+.E ! ( P a h h h 5 : - , j ",
"s.1.C t 0 9 5 j v m e. .W P +.F s F F S M n m i s +.E E W W F Z x x x h 4 : 4 w ",
"f.q.C j l B k ..8.M P Q P P W  .7 s > * = * 7 7 m +.E F W F f ..X.T R H h 9 K U ",
"s.&.B l ^ K Q 6.O.S s W P M f f $ + .   . . o + 1 P P F P b Q  .O.| R ` x 5 #.>.",
"&.Y a B A W +.Q P P b b n 7 $ o                 . # 1 f m E o.P W  . .T z u -.>.",
"C B 0 w S 9.Q P P P m 6 $ o                         . @ 2 ! ! P W E | Q u 3 R ] ",
"B j w 8 n E M P P M i @                                 o 2 M M P M M ! p < a j ",
"t t d +.M 7 b m M i +                                     o 2 M M n M Q m 3 4 w ",
"0 e Z +.+. .M 7 7 +                                         o 1 b E 6.o.O.d < w ",
"4 9 ! ( P +.6.s +                                             X > | ! Q +.n , a ",
"y D +.W P P Q 1                                                 # n W P  .O.q w ",
"' ) 6.W F P b O                                                 . 2 P F P *.D u ",
"<.I E F n m 8 o                                                   > m n f ( ( B ",
",.O.F i 7 r %                                                     O 6 i F ..! B ",
"0. . .o.E 1 +                                                     o 2 ! 6.+.| n ",
"w.( W ! ( 2 .                                                     . 1  .Q E E Z ",
"w.( P E S ;                                                         & ..W W F Z ",
"7. .F P F >                                                         & o.F F S g ",
"*.W b m n ;                                                         & +.E S v r ",
"W b i 8 7 *                                                         # S s s 1 7 ",
"~ O. .o.S =                                                         $ ! +.! | Z ",
"*.+.|  .P =                                                         & +. .!  .P ",
"..( Z P M ;                                                         & +.P P W D ",
"..~ S M M >                                                         & +.Q F F Z ",
"..W b S P ;                                                         & +.P m Z v ",
"D b 6 s f *                                                         $ M s 7 8 p ",
"I W W ! n *                                                         $ P ! W W d ",
"7.+.o.O.P =                                                         & +... . .V ",
"w.! F P M =                                                         & +.P P P b ",
"7.| F S M ;                                                         $ O.Q W S b ",
"*.! S M M ;                                                         & O.P Z n r ",
"=.m 7 b i *                                                         $ W b s 7 r ",
"/ P F P b &                                 .     .   .       .   . $ M M F m s ",
"*. .! | P ;                   . . . . . X X X X X X X X o o X o X X * o.( Q ! v ",
"| M r b b =             . . X X o o o + + + + + + + + + + + + + + + = Q b s s q ",
"I n 7 r r =       . . . X o O + + @ @ # $ $ $ $ $ $ $ $ $ $ $ $ $ $ > W m b i 1 "
};
