/* XPM */
static char *_7906ac6444b405ac28823e39e3d807aWn5V5Sf5vkgZf0pT[] = {
/* columns rows colors chars-per-pixel */
"40 40 133 2 ",
"   c #000000",
".  c #060907",
"X  c #070A08",
"o  c #0A0D0C",
"O  c #0C110F",
"+  c #0E1310",
"@  c #101614",
"#  c #131A17",
"$  c #141C19",
"%  c #17201C",
"&  c #19221E",
"*  c #1B2521",
"=  c #1E2924",
"-  c #272525",
";  c #212B26",
":  c #2B2B26",
">  c #222E29",
",  c #2E2C2A",
"<  c #24322B",
"1  c #2F3028",
"2  c #32332C",
"3  c #2A3731",
"4  c #2C3C34",
"5  c #363632",
"6  c #383731",
"7  c #363E36",
"8  c #3C3C35",
"9  c #363F3F",
"0  c #384334",
"q  c #33443C",
"w  c #39423B",
"e  c #36483F",
"r  c #3C493D",
"t  c #42443C",
"y  c #364740",
"u  c #364941",
"i  c #3A4D44",
"p  c #3D5147",
"a  c #3E5349",
"s  c #434344",
"d  c #434D44",
"f  c #4A4C43",
"g  c #454F4A",
"h  c #494C49",
"j  c #41564C",
"k  c #485549",
"l  c #42594E",
"z  c #495B4F",
"x  c #525545",
"c  c #54544D",
"v  c #545D4E",
"b  c #465D52",
"n  c #4B5D52",
"m  c #565752",
"M  c #525E56",
"N  c #5A5E53",
"B  c #57595A",
"V  c #5F624F",
"C  c #476053",
"Z  c #496256",
"A  c #4C6559",
"S  c #4E695C",
"D  c #516157",
"F  c #54655A",
"G  c #5B645C",
"H  c #516C5E",
"J  c #5A695C",
"K  c #616657",
"L  c #606359",
"P  c #626A5D",
"I  c #5D6163",
"U  c #536E61",
"Y  c #596C61",
"T  c #557264",
"R  c #587567",
"E  c #597768",
"W  c #5C7C6C",
"Q  c #656764",
"!  c #666A61",
"~  c #696C64",
"^  c #676E68",
"/  c #6D6F6A",
"(  c #6D7064",
")  c #61766A",
"_  c #6D7069",
"`  c #657A6E",
"'  c #707567",
"]  c #767B66",
"[  c #767D6E",
"{  c #7B7F6A",
"}  c #677F72",
"|  c #6A7F72",
" . c #767A73",
".. c #787C71",
"X. c #5F816F",
"o. c #5F8170",
"O. c #7A806F",
"+. c #628372",
"@. c #6B8275",
"#. c #658877",
"$. c #678B79",
"%. c #6E8979",
"&. c #7E8374",
"*. c #77837A",
"=. c #7E837B",
"-. c #778F7F",
";. c #818676",
":. c #82857A",
">. c #80837C",
",. c #83847D",
"<. c #828878",
"1. c #85897D",
"2. c #878D7D",
"3. c #8C8F7C",
"4. c #95977D",
"5. c #97987E",
"6. c #6D9280",
"7. c #6D9481",
"8. c #799182",
"9. c #709885",
"0. c #848780",
"q. c #848B81",
"w. c #848D82",
"e. c #8E8E80",
"r. c #888F85",
"t. c #8C968C",
"y. c #969986",
"u. c #929789",
"i. c #929B8F",
"p. c #989C8A",
"a. c #949E92",
"s. c #A4AB99",
"d. c #A9AE9A",
/* pixels */
"0.:.:.1...&.p.y.3.O.P D +.9.b a S A b Z b l j j a j 6.+.+.+.M / 0.q.,.=.=.>. .Q ",
"u.d.d.s.<.{ 5.4.] n W #.W U T j l Z b Z b j j i q T W Z Z S T G :.e.e.e.:.( ~ ! ",
" .;.2.;.K x V v z p $.H b b T S 3 a j a a i i q 4 E Z b A Z a a J N c c t 5 s c ",
"G N P L f t d W 7.a a A b b l T q 3 ; # % $ < 3 e E A l b b e H +.k t 8 , - 8 c ",
"^ ! ! B s w H +.T j q b b a q 4 $ o .       X O * i l l l i b R T E d 6 , - 2 f ",
"=.w.=.I 9 A R Z b b i q u > @ .                   o & 4 i b E Z C S T d 1 : , 8 ",
"r.a.t.G l #.Z b b l a 3 @ .                           o & j S l b b Z E r , 8 f ",
"q.i.*.j 4 j j l l a 3 O                                 . & u j l j a A r 2 N ' ",
"=.=.M +.l 4 u i p 4 o                                     . & u a i i S A 0 K [ ",
"_ N z W W T a 4 3 +                                         . * q a +.+.W b v ( ",
"! f R S b W o.4 O                                             . $ Z T C T S t f ",
"m F W Z b b Z =                                                 o 4 b Z A X.i 8 ",
"h H +.Z l b e O                                                   & a l a R U w ",
"h i l j i a 3 X                                                   $ u i u j H 7 ",
"G H l 4 4 4 $                                                     . ; 4 p H U q ",
"| T W T l > O                                                     . * a #.$.W i ",
"8.A Z T H <                                                         % S R l Z j ",
"-.Z Z Z a ;                                                         + A S b Z j ",
"8.A l l j ;                                                         + S S j b i ",
"%.j p i i =                                                         + S H j p e ",
"Y e u q 4 &                                                         O a j e 4 4 ",
"D S S Z i &                                                         o u S b Z i ",
"%.W E W Z =                                                         + U #.R W Z ",
"@.Z j l i =                                                         + S S j C a ",
"} b j a p ;                                                         + S T l b p ",
"@.j i a b ;                                                         + S H i a i ",
") e e i i *                                                         O a j e e u ",
"n a p a q &                                                         o e j p a e ",
"@.+.+.W b *                                                         + H #.E +.b ",
"} A b b a *                                                         + S H j Z i ",
"%.S b j p =                                                         + S U C Z u ",
"| Z l a a =                                                         + A S a a e ",
"` p u i e &                                                         O b Z i q q ",
"n u e e 4 &                                                         o q u u e 4 ",
"` R R R Z =                       . . . . . . . . . . . . . . . X . @ Z E S T a ",
") a u p i ;             . . . X X o o o O O O O O O O O O O O O O O $ b b e i q ",
"Y e 4 q q = .     . . . X o o O + + @ # # # # # $ $ $ $ $ $ $ $ $ $ & l l u y 3 ",
"F 4 3 3 3 * .   . . o o O + @ # $ % & & * * * * * * * * * * * * * * = l i 4 4 < ",
"F 3 < > < & . . o o + @ # $ & * = ; > < < < < < < < < < < < < < < < < i q ; < > ",
"g ; ; ; ; & o o + @ # % * = > < < 3 3 4 3 4 4 4 4 4 4 4 4 4 4 4 4 4 < 3 < = ; = "
};
