/* XPM */
static char *_d8bb377297d4ad7fd9439ad7c92ac5ffpNAPujS1Ygb9Arw[] = {
/* columns rows colors chars-per-pixel */
"40 40 215 2 ",
"   c #090605",
".  c #130A04",
"X  c #27180A",
"o  c #381B0C",
"O  c #281C17",
"+  c #27221F",
"@  c #362216",
"#  c #1D1E28",
"$  c #2A2A2C",
"%  c #372A24",
"&  c #3D3228",
"*  c #323132",
"=  c #383030",
"-  c #393939",
";  c #491D00",
":  c #472A06",
">  c #54280A",
",  c #5C3A0B",
"<  c #542F1F",
"1  c #51341C",
"2  c #763103",
"3  c #643719",
"4  c #422B25",
"5  c #4A3428",
"6  c #563728",
"7  c #473C33",
"8  c #553E33",
"9  c #643829",
"0  c #794609",
"q  c #7E4D16",
"w  c #5D4432",
"e  c #684334",
"r  c #6A4B32",
"t  c #754E32",
"y  c #735232",
"u  c #21395B",
"i  c #2C476D",
"p  c #4D4E52",
"a  c #555454",
"s  c #735745",
"d  c #7E604C",
"f  c #445772",
"g  c #6A5C64",
"h  c #6C6B6A",
"j  c #873E0E",
"k  c #955507",
"l  c #8C4D15",
"z  c #AE4E11",
"x  c #BB5817",
"c  c #9B600B",
"v  c #A4640A",
"b  c #B96908",
"n  c #A66318",
"m  c #834625",
"M  c #9A4B24",
"N  c #8A512E",
"B  c #88593B",
"V  c #9A5A31",
"C  c #9B5B3B",
"Z  c #A25A30",
"A  c #9F603D",
"S  c #AB6939",
"D  c #B3663D",
"F  c #C8570C",
"G  c #DB5C06",
"H  c #C75B15",
"J  c #D5671D",
"K  c #C97016",
"L  c #EC6207",
"P  c #E6650E",
"I  c #FA6A09",
"U  c #F76F14",
"Y  c #FA751A",
"T  c #FE751A",
"R  c #C46D33",
"E  c #E1732A",
"W  c #FD7C24",
"Q  c #E67D38",
"!  c #875743",
"~  c #945E45",
"^  c #936C4F",
"/  c #916954",
"(  c #987456",
")  c #9E795B",
"_  c #A36745",
"`  c #B87849",
"'  c #B67F5A",
"]  c #917B6D",
"[  c #C27E4B",
"{  c #D3820A",
"}  c #E58A0A",
"|  c #EB940C",
" . c #EE9E0D",
".. c #FCA70E",
"X. c #FFAB0F",
"o. c #FC802D",
"O. c #E1813A",
"+. c #F9883C",
"@. c #B88458",
"#. c #A98C6F",
"$. c #B88967",
"%. c #BC936A",
"&. c #A58374",
"*. c #AD9475",
"=. c #AB9678",
"-. c #B49573",
";. c #BE9C74",
":. c #CA8954",
">. c #D38B55",
",. c #D48C56",
"<. c #E98544",
"1. c #F48C48",
"2. c #ED9256",
"3. c #D99966",
"4. c #C39675",
"5. c #C49877",
"6. c #CFA57C",
"7. c #E1A36F",
"8. c #E3A471",
"9. c #E7AC7C",
"0. c #F9AA75",
"q. c #357B9A",
"w. c #4C6280",
"e. c #0E85B8",
"r. c #57A3BB",
"t. c #0E97D2",
"y. c #2696C6",
"u. c #37AFDF",
"i. c #0AA9EE",
"p. c #12AFF3",
"a. c #1CB5F6",
"s. c #16B4F8",
"d. c #19B5F9",
"f. c #1EB9FB",
"g. c #2CAFE5",
"h. c #2EB4EE",
"j. c #38B5E9",
"k. c #2ABCFA",
"l. c #31B8F2",
"z. c #39BDF3",
"x. c #48ACD0",
"c. c #50BFEF",
"v. c #44BFF2",
"b. c #7AC8DE",
"n. c #4EC1ED",
"m. c #42C0F1",
"M. c #58C3F1",
"N. c #73CAEB",
"B. c #8B8A8A",
"V. c #988B82",
"C. c #989796",
"Z. c #9C9C9C",
"A. c #A29681",
"S. c #AE9E90",
"D. c #B1A58F",
"F. c #B0ADAC",
"G. c #B4B4AD",
"H. c #C9A784",
"J. c #D6AB86",
"K. c #C1AE9A",
"L. c #D1B597",
"P. c #EBB385",
"I. c #E4B58B",
"U. c #EEBA8B",
"Y. c #EEBF91",
"T. c #CDBAAC",
"R. c #EFC79E",
"E. c #F3C395",
"W. c #F4C599",
"Q. c #F8CC9F",
"!. c #CDC4B4",
"~. c #DAD4BA",
"^. c #ECC9AB",
"/. c #F9CDA1",
"(. c #F5C7A8",
"). c #FBD2A6",
"_. c #F5D2AB",
"`. c #FED6AA",
"'. c #FFD9AD",
"]. c #F1CFB8",
"[. c #E5D5B6",
"{. c #ECD6B4",
"}. c #F0D7B2",
"|. c #F5D8B0",
" X c #86C9D9",
".X c #9AC8DB",
"XX c #A3CDCF",
"oX c #BBD0C6",
"OX c #9BDBF6",
"+X c #A3CFE1",
"@X c #BCDAE7",
"#X c #B8E3F5",
"$X c #BDE7F9",
"%X c #D3D3D2",
"&X c #F3DDCE",
"*X c #E1DEDD",
"=X c #F4DED0",
"-X c #CFDFE5",
";X c #DDE1E2",
":X c #C6EBFB",
">X c #D3ECF8",
",X c #DCF2FB",
"<X c gray90",
"1X c #E7E9E7",
"2X c #EDEDED",
"3X c #F8EAE1",
"4X c #F2ECEA",
"5X c #E5EEF3",
"6X c #E5F5FC",
"7X c #EFF9FD",
"8X c #F3F3F3",
"9X c #FAF7F5",
"0X c #F4F7F9",
"qX c #F5FAFD",
"wX c #FFFFFF",
/* pixels */
"wXwXwXwXwXwXwXwXwXwXwXwXwXwXwXwXwXwXwXwXwXwXwXwXwXwXwXwXwXwXwXwXwXwXwXwXwXwXwXwX",
"wXwXwXwXwXwXwXwXwXwXwXwXwXwXwXwXwX0X0X0X9X9XwX9X9X9XwXwXwXwXwXwXwXwXwXwXwXwXwXwX",
"wXwXwXwXwXwXwXwXwXwXwXwXwXwX,XOXOXOXOXOXOXOXOXOX$XwXwXwXwXwXwXwXwXwXwXwXwXwXwXwX",
"wXwXwXwXwXwXwXwXwXwXwXwX>X#XN.i.i.i.i.i.i.i.i.i.v.#X:XqXwXwXwXwXwXwXwXwXwXwXwXwX",
"wXwXwXwXwXwXwXwXwXwXwX,XM.i.p.k.n.n.n.n.n.n.n.z.d.i.h.$XqXwXwXwXwXwXwXwXwXwXwXwX",
"wXwXwXwXwXwXwXwXwXwX,XM.a.k.v.b.{.}.}.}.}.}.}.XXm.z.f.l.$XqXwXwXwXwXwXwXwXwXwXwX",
"wXwXwXwXwXwXwXwXwXqXc.a.k. X[.{.'.'.'.'.'.'.'.}.[.oXz.f.l.>XwXwXwXwXwXwXwXwXwXwX",
"wXwXwXwXwXwXwXwXwX6Xj.s. X[.'.'.'.'.'.'.'.'.'.'.'.|.oXz.k.:XqXwXwXwXwXwXwXwXwXwX",
"wXwXwXwXwXwXwXwX6XM.a.f.z.XX'.'.'.'.'.'.'.'.'.'.'.'._.G.z.z.:XwXwXwXwXwXwXwXwXwX",
"wXwXwXwXwXwXwXwX6Xh.d.k.b.~.'.'.'.'.'.'.'.'.'.'.'.'.).L.j.i.$XwXwXwXwXwXwXwXwXwX",
"wXwXwXwXwXwXwXwX6Xh.d.b.~.'.'.'.'.'.'.'.'.'.'.'.'.).E.L.j.i.$XwXwXwXwXwXwXwXwXwX",
"wXwXwXwXwXwXwXwX6Xj.r.!.'.'.'.'.'.'.'.'.'.'.'.'.'./.P.L.j.t.#XwXwXwXwXwXwXwXwXwX",
"wXwXwXwXwXwXwXwX5Xq./ I.'.'.'.'.'.'.'.'.'.'.'.'.).E.P.H.j.e.@XwXwXwXwXwXwXwXwXwX",
"wXwXwXwXwXwXwXwX2Xh 5 4.).'.R.J.J.J.Y.Q./.E.I.I.U.P.7.%.u.e.@XwXwXwXwXwXwXwXwXwX",
"wXwXwXwXwXwXwXwXwX8X- ) E.).4.6 9 ! :.9.P.3.A B @.8.,.%.u.e.@XwXwXwXwXwXwXwXwXwX",
"wXwXwXwXwXwXwXwXwX8X- ) P.P.(   + V.,.9.P.3.A 6 r ` >.%.u.e.@XwXwXwXwXwXwXwXwXwX",
"wXwXwXwXwXwXwXwXwX8X- ) P.P.(   * G.3.P.U.3.C ^ ( 6 :.=.j.y.-XwXwXwXwXwXwXwXwXwX",
"wXwXwXwXwXwXwXwXwX8X- ) P.P.&.u f !.I.Q.).7.t s ) 5 #.x.l.#X0XwXwXwXwXwXwXwXwXwX",
"wXwXwXwXwXwXwXwXwX8X- #.).).S.i w.%X_.`.'.8.r + r ` *.g.y.>XwXwXwXwXwXwXwXwXwXwX",
"wXwXwXwXwXwXwXwXwX8X- *.'.'.^.K.L.}.'.'.'.8.r 6 ` -.x.y.+X0XwXwXwXwXwXwXwXwXwXwX",
"wXwXwXwXwXwXwXwXwX8X- ( E.'.'.'.'.'.'.'.W.' 5 r =.r.y..X0XwXwXwXwXwXwXwXwXwXwXwX",
"wXwXwXwXwXwXwXwXwX9XZ.s @.U./.'.'.'.`.W.$.e O % a q..X0XwXwXwXwXwXwXwXwXwXwXwXwX",
"wXwXwXwXwXwXwXwXwXwXwXZ.s B ) 5.5.5.4.$._ t e 6 O p 0XwXwXwXwXwXwXwXwXwXwXwXwXwX",
"wXwXwXwXwXwXwXwXwXwXwXwX] : < 9 C C M M R Q O.R m t (.].9XwXwXwXwXwXwXwXwXwXwXwX",
"wXwXwXwXwXwXwXwXwXwXwXwX8.E V @ :.<.G I G L I T o.T I J ^.9XwXwXwXwXwXwXwXwXwXwX",
"wXwXwXwXwXwXwXwXwXwXwX3X0.J 2 X w F I I G L U o.1.+.T U J =XwXwXwXwXwXwXwXwXwXwX",
"wXwXwXwXwXwXwXwXwXwX4X,.Q N ; x <.W W Y > z +.Q F J 1.<.J &XwXwXwXwXwXwXwXwXwXwX",
"wXwXwXwXwXwXwXwXwX4X&.x P j ; F T W W P o V 2.` m M H F x &XwXwXwXwXwXwXwXwXwXwX",
"wXwXwXwXwXwXwXwX4X&.` H E m . 3 +.U P > . X 5 e ~ 3.R m 1 %XwXwXwXwXwXwXwXwXwXwX",
"wXwXwXwXwXwXwXwX4X/ ` Z 3 X X 8 w 6 > ( -.y l m s 3.[ ! F.8XwXwXwXwXwXwXwXwXwXwX",
"wXwXwXwXwXwXwXwX9XT.r @ X : 0 n l q O H.`.<.P D g C N 8 *XwXwXwXwXwXwXwXwXwXwXwX",
"wXwXwXwXwXwXwXwXwX9XZ.B.y k K | | { , 6.W.+.I _ p @ 5 B.2XwXwXwXwXwXwXwXwXwXwXwX",
"wXwXwXwXwXwXwXwXwXwXwXwX;.b } X.X. .c S ' D z r * X % C.2XwXwXwXwXwXwXwXwXwXwXwX",
"wXwXwXwXwXwXwXwXwXwXwXwX-.k { X...| b 0 3 < O # & 1 % $ *XwXwXwXwXwXwXwXwXwXwXwX",
"wXwXwXwXwXwXwXwXwXwXwXwXD.q v | | b k 0 : & - = 4 6 % a <XwXwXwXwXwXwXwXwXwXwXwX",
"wXwXwXwXwXwXwXwXwXwXwXwX9XA., n K l , : % F.8XZ.* * a <XwXwXwXwXwXwXwXwXwXwXwXwX",
"wXwXwXwXwXwXwXwXwXwXwXwXwXC.7 ) ;./ d 7 G.0XwX0X1X1X2XwXwXwXwXwXwXwXwXwXwXwXwXwX",
"wXwXwXwXwXwXwXwXwXwXwXwXwX2X*X1X1X;X;X-X5X7X7X7X7XqXwXwXwXwXwXwXwXwXwXwXwXwXwXwX",
"wXwXwXwXwXwXwXwXwXwXwXwXwXwXwXwXwXwXwXwXwXwXwXwXwXwXwXwXwXwXwXwXwXwXwXwXwXwXwXwX",
"wXwXwXwXwXwXwXwXwXwXwXwXwXwXwXwXwXwXwXwXwXwXwXwXwXwXwXwXwXwXwXwXwXwXwXwXwXwXwXwX"
};
