/* XPM */
static char *c0bb2edbbfed421bb14fcf91b011768egnRj7uZ45UtFRwrw[] = {
/* columns rows colors chars-per-pixel */
"40 40 215 2 ",
"   c #040506",
".  c #120904",
"X  c #2F170B",
"o  c #281A0E",
"O  c #351D08",
"+  c #261E19",
"@  c #332307",
"#  c #2C231C",
"$  c #342319",
"%  c #1C2225",
"&  c #2A2725",
"*  c #332B25",
"=  c #382E24",
"-  c #36312A",
";  c #451C01",
":  c #4B2208",
">  c #572B09",
",  c #5A3603",
"<  c #502E1B",
"1  c #5B3318",
"2  c #64360A",
"3  c #663213",
"4  c #4B352A",
"5  c #493829",
"6  c #57392A",
"7  c #5A3F31",
"8  c #673E28",
"9  c #794604",
"0  c #6B4818",
"q  c #724514",
"w  c #554739",
"e  c #764227",
"r  c #6C522E",
"t  c #674937",
"y  c #7E4A32",
"u  c #785233",
"i  c #203757",
"p  c #214756",
"a  c #28446C",
"s  c #504B49",
"d  c #574F49",
"f  c #654D4E",
"g  c #7E614A",
"h  c #6A625A",
"j  c #43556F",
"k  c #7C7061",
"l  c #8E3A03",
"z  c #844B06",
"x  c #88510E",
"c  c #92520A",
"v  c #954813",
"b  c #AA480B",
"n  c #B74C08",
"m  c #B9500C",
"M  c #AD5512",
"N  c #A85817",
"B  c #B6680A",
"V  c #A86515",
"C  c #B96B14",
"Z  c #894B2B",
"A  c #834D35",
"S  c #845239",
"D  c #8E543B",
"F  c #935535",
"G  c #AA5B27",
"H  c #936335",
"J  c #98683F",
"K  c #BE6629",
"L  c #AF6B3D",
"P  c #D15707",
"I  c #E45D04",
"U  c #E95F03",
"Y  c #C56E08",
"T  c #C8720A",
"R  c #D27B09",
"E  c #CB621B",
"W  c #D56113",
"Q  c #EC650A",
"!  c #F86605",
"~  c #FE6A06",
"^  c #E96D19",
"/  c #F77318",
"(  c #C36526",
")  c #D56C27",
"_  c #CC7135",
"`  c #D3773B",
"'  c #E77529",
"]  c #F47620",
"[  c #E77B33",
"{  c #8A5944",
"}  c #8B6D4F",
"|  c #9D6A42",
" . c #9E6C4E",
".. c #A96B41",
"X. c #B97647",
"o. c #AC7751",
"O. c #A87254",
"+. c #8A7866",
"@. c #8B7970",
"#. c #C27D49",
"$. c #D57C45",
"%. c #DC860A",
"&. c #EA940C",
"*. c #EC960C",
"=. c #F9A40E",
"-. c #FF812D",
";. c #FD8738",
":. c #AB8656",
">. c #998A70",
",. c #AB8164",
"<. c #B78D67",
"1. c #C6834F",
"2. c #CA8958",
"3. c #D48C53",
"4. c #D9945F",
"5. c #C89063",
"6. c #D79A6A",
"7. c #C39575",
"8. c #C99973",
"9. c #D4A47A",
"0. c #E1A26F",
"q. c #E5A977",
"w. c #495F80",
"e. c #288CB7",
"r. c #388FB0",
"t. c #3897BE",
"y. c #74A5AE",
"u. c #2D9CC9",
"i. c #3DA4D0",
"p. c #08A7EC",
"a. c #17A9E7",
"s. c #12ABED",
"d. c #19ABEA",
"f. c #1EB4F5",
"g. c #19B6FA",
"h. c #1EB9FB",
"j. c #22B1EE",
"k. c #2EB2EA",
"l. c #28B1ED",
"z. c #2CB9F4",
"x. c #23BAFA",
"c. c #31BBF4",
"v. c #43A5CF",
"b. c #47BBE8",
"n. c #4FBFF0",
"m. c #3FC3FD",
"M. c #79C7DE",
"N. c #58C3EA",
"B. c #48C1F3",
"V. c #54C3F0",
"C. c #7BCFF4",
"Z. c #7FD0F3",
"A. c #8A8A88",
"S. c #968C86",
"D. c #9A978B",
"F. c #8F9E94",
"G. c #949990",
"H. c #85A19D",
"J. c #A8A191",
"K. c #95A8A1",
"L. c #9DB6B4",
"P. c #B0ABA8",
"I. c #B3B2B0",
"U. c #D9AE86",
"Y. c #D7B694",
"T. c #E3AC84",
"R. c #E4B184",
"E. c #EBB485",
"W. c #EBB789",
"Q. c #E5B692",
"!. c #F1BF91",
"~. c #C4BFBD",
"^. c #EBC39B",
"/. c #F3C395",
"(. c #F4C79A",
"). c #CFC4BC",
"_. c #CED2BF",
"`. c #D2D3BD",
"'. c #F6CEA3",
"]. c #FBD1A5",
"[. c #FDD5A9",
"{. c #F7D8AF",
"}. c #FFD9AD",
"|. c #E3D2B8",
" X c #F7D8B1",
".X c #A2B9C4",
"XX c #96CAD9",
"oX c #AFC7C1",
"OX c #B3CFC8",
"+X c #BCD0C5",
"@X c #A3CCDE",
"#X c #87D4F5",
"$X c #A2DDF6",
"%X c #ACE1F8",
"&X c #BAE5F9",
"*X c #C7C4C3",
"=X c #C9C9C9",
"-X c #D6CEC6",
";X c #C4D1C2",
":X c #D4D4D3",
">X c #E6D8CB",
",X c #E3DED7",
"<X c #F7E7DC",
"1X c #C6E8F7",
"2X c #DCECF3",
"3X c #D4EFFB",
"4X c #DDF2FC",
"5X c #E8E8E7",
"6X c #F2F0EE",
"7X c #FAF3EE",
"8X c #EEF8FD",
"9X c #F4F4F3",
"0X c #FBF7F5",
"qX c #F4FAFD",
"wX c #FFFFFF",
/* pixels */
"wXwXwXwXwXwXwXwXwXwXwXwXwXwXwX9X9X9X9X0X0X0X0X9X0XwXwXwXwXwXwXwXwXwXwXwXwXwXwXwX",
"wXwXwXwXwXwXwXwXwXwXwXwXwXwXqX1X&X&X&X&X&X&X&X&X&X4XwXwXwXwXwXwXwXwXwXwXwXwXwXwX",
"wXwXwXwXwXwXwXwXwXwXwXwX8X3X%Xj.s.s.s.s.s.s.s.s.s.C.3X4XwXwXwXwXwXwXwXwXwXwXwXwX",
"wXwXwXwXwXwXwXwXwXwXwXqX#Xj.j.h.z.z.c.c.c.c.c.z.x.f.j.V.4XwXwXwXwXwXwXwXwXwXwXwX",
"wXwXwXwXwXwXwXwXwXwXwXZ.z.g.h.c.OX`.`.`.`.`.`._.N.h.g.f.n.4XwXwXwXwXwXwXwXwXwXwX",
"wXwXwXwXwXwXwXwXwXqXZ.z.g.V.OX+X X}.}.}.}.}.}.}._.OXM.h.f.V.4XwXwXwXwXwXwXwXwXwX",
"wXwXwXwXwXwXwXwXwX8XB.g.N.OX}.}.}.}.}.}.}.}.}.}.}.}.`.M.x.d.1XwXwXwXwXwXwXwXwXwX",
"wXwXwXwXwXwXwXwXqX%Xm.b.oX}.}.}.}.}.}.}.}.}.}.}.}.}.|.XXx.f.#X4XwXwXwXwXwXwXwXwX",
"wXwXwXwXwXwXwXwX4Xl.g.L./.}.}.}.}.}.}.}.}.}.}.}.}.}.+XB.x.h.p.$XwXwXwXwXwXwXwXwX",
"wXwXwXwXwXwXwXwX4Xl.g.L./.[.}.}.}.}.}.}.}.}.}.}.}.}.{.;XB.x.p.$XwXwXwXwXwXwXwXwX",
"wXwXwXwXwXwXwXwX4Xl.g.L.W./.}.}.}.}.}.}.}.}.}.}.}.}.}.{.;Xb.p.$XwXwXwXwXwXwXwXwX",
"wXwXwXwXwXwXwXwX2Xu.d.L.E.!.}.}.}.}.}.}.}.}.}.}.}.}.}.}.'.J.u.$XwXwXwXwXwXwXwXwX",
"wXwXwXwXwXwXwXwX2Xe.a.K.q.W.(.[.}.}.}.}.}.}.}.}.}.}.}.}.(. .p .XwXwXwXwXwXwXwXwX",
"wXwXwXwXwXwXwXwX2Xe.a.F.4.q.E.R.8.T./.(./.R.7.7.7.Q.}.[.U.7 h =XwXwXwXwXwXwXwXwX",
"wXwXwXwXwXwXwXwX2Xe.a.F.3.4.6.| y X.0.E.q.1.{ 6 < ,.'.(.8.* =XwXwXwXwXwXwXwXwXwX",
"wXwXwXwXwXwXwXwX2Xe.a.F.3.1.| 6 e X.0.E.q.5.S.+   g E.E.8.* =XwXwXwXwXwXwXwXwXwX",
"wXwXwXwXwXwXwXwX2Xt.d.H.2.J 5 <.S X.0.W.q.6.I.&   g E.E.8.* =XwXwXwXwXwXwXwXwXwX",
"wXwXwXwXwXwXwXwXqX1XB.k.H.J 5 <.4 ..E.].(.Q.~.j i @.E.E.8.* =XwXwXwXwXwXwXwXwXwX",
"wXwXwXwXwXwXwXwXwX8Xv.a.y.#.H w # | W.}.[.'.*Xw.a S.'.'.U.- =XwXwXwXwXwXwXwXwXwX",
"wXwXwXwXwXwXwXwXwXqX@Xi.i.G.1.u # | W.}.}.}.|.J.D.Y.}.}.Y.- =XwXwXwXwXwXwXwXwXwX",
"wXwXwXwXwXwXwXwXwXwXwX@Xi.i.D.X.= S 9.].}.}.}.}.}.}.}.].9.* =XwXwXwXwXwXwXwXwXwX",
"wXwXwXwXwXwXwXwXwXwXwXwX@Xt.r.} # <  .R.].}.}.}.}.[.'.R.| d :XwXwXwXwXwXwXwXwXwX",
"wXwXwXwXwXwXwXwXwXwXwXwXqXI.% # # $ 8 o.U.^.^.^.^.U.5.| d :X0XwXwXwXwXwXwXwXwXwX",
"wXwXwXwXwXwXwXwXwXwXwX0X7XP.o 8 L X.#...D D { D S 6 o w :X0XwXwXwXwXwXwXwXwXwXwX",
"wXwXwXwXwXwXwXwXwXwXwXT.` ( b W ^ / / W n m $.M : > l L 7XwXwXwXwXwXwXwXwXwXwXwX",
"wXwXwXwXwXwXwXwXwX0XT.[ Q U Q ~ ~ ~ ~ ! U Q ;.^ : e ) ` 7XwXwXwXwXwXwXwXwXwXwXwX",
"wXwXwXwXwXwXwXwXwX7X` ' -./ ! U I I I n l l v W v Z G ' Q.7XwXwXwXwXwXwXwXwXwXwX",
"wXwXwXwXwXwXwXwXwX7X` [ ;./ I n b b N 3 $ 5 6 b ' q 3 / ) <XwXwXwXwXwXwXwXwXwXwX",
"wXwXwXwXwXwXwXwXwX7X4.' ] ^ M Z D Z f f O.(.q.E _ 8 > ^ ) <XwXwXwXwXwXwXwXwXwXwX",
"wXwXwXwXwXwXwXwXwXwX7X2.n b Z 1.6.( S } 6.]./.K > . ; m ` <XwXwXwXwXwXwXwXwXwXwX",
"wXwXwXwXwXwXwXwXwXwXwXk X O A 1.3.E m K 4.R.9.t 7 $ . 7 >X0XwXwXwXwXwXwXwXwXwXwX",
"wXwXwXwXwXwXwXwXwXwXwX+.@ O $ A F m P M y 5 5 0 V x > t 6XwXwXwXwXwXwXwXwXwXwXwX",
"wXwXwXwXwXwXwXwXwXwXwX>., 2 > 1 $ 1 > : O O > M %.R 9 w 6XwXwXwXwXwXwXwXwXwXwXwX",
"wXwXwXwXwXwXwXwXwXwXwXk > z M z , 0 0 , , 9 c T &.R H A.9XwXwXwXwXwXwXwXwXwXwXwX",
"wXwXwXwXwXwXwXwXwXwXwXA.5 9 Y R %.=.=.*.B z z C C V <.,XwXwXwXwXwXwXwXwXwXwXwXwX",
"wXwXwXwXwXwXwXwXwXwXwX9X>., c T &.=.=.%.V r r r t } } +.9XwXwXwXwXwXwXwXwXwXwXwX",
"wXwXwXwXwXwXwXwXwXwXwXwXG.@ , c V T B x } ,X-Xs + & & d 9XwXwXwXwXwXwXwXwXwXwXwX",
"wXwXwXwXwXwXwXwXwXwXwXwX5XA.o u :.J < h ,XwX0X:X=X=X=X:X0XwXwXwXwXwXwXwXwXwXwXwX",
"wXwXwXwXwXwXwXwXwXwXwXwXwX5XP.).>X-XI.=XwXwXwXwXwXwXwXwXwXwXwXwXwXwXwXwXwXwXwXwX",
"wXwXwXwXwXwXwXwXwXwXwXwXwXwXwXwXwXwXwXwXwXwXwXwXwXwXwXwXwXwXwXwXwXwXwXwXwXwXwXwX"
};
