/* XPM */
static char *_54f2cbaa60342179e6fcf79280ce06d0W5Lpcyuar85rRQ5[] = {
/* columns rows colors chars-per-pixel */
"40 40 108 2 ",
"   c #7D5E41",
".  c #8C6836",
"X  c #86693E",
"o  c #8C6C3D",
"O  c #91713F",
"+  c #866945",
"@  c #8C6C43",
"#  c #8B6B4A",
"$  c #936F43",
"%  c #9A6F41",
"&  c #947444",
"*  c #9A7545",
"=  c #967846",
"-  c #9B7B46",
";  c #94754A",
":  c #99764C",
">  c #967A49",
",  c #9C7C4B",
"<  c #977655",
"1  c #967850",
"2  c #9D7C52",
"3  c #9D7B5A",
"4  c #A17B47",
"5  c #A27E4C",
"6  c #A27F51",
"7  c #9F8346",
"8  c #9E814E",
"9  c #9F8152",
"0  c #A3824D",
"q  c #A9854E",
"w  c #A58353",
"e  c #AA8553",
"r  c #A58953",
"t  c #AC8A54",
"y  c #A58559",
"u  c #AA875A",
"i  c #A68C5C",
"p  c #AD8C5A",
"a  c #B28C56",
"s  c #B88F56",
"d  c #B28E5A",
"f  c #B88F5B",
"g  c #AF915C",
"h  c #B39057",
"j  c #B4925D",
"k  c #BA945D",
"l  c #B6985F",
"z  c #BC9A5E",
"x  c #AD8C61",
"c  c #B48F61",
"v  c #B59462",
"b  c #BA9662",
"n  c #B59962",
"m  c #BC9A64",
"M  c #B89668",
"N  c #BD9C6A",
"B  c #BE9D6A",
"V  c #BEA069",
"C  c #C2995E",
"Z  c #C09761",
"A  c #C09A61",
"S  c #C19C65",
"D  c #C29D64",
"F  c #C19D66",
"G  c #C19D67",
"H  c #C49D65",
"J  c #C39F68",
"K  c #C39F6B",
"L  c #C19E6C",
"P  c #C89F68",
"I  c #C39F72",
"U  c #C3A067",
"Y  c #C5A067",
"T  c #C1A069",
"R  c #C3A16A",
"E  c #C6A46A",
"W  c #C3A36D",
"Q  c #C1A06E",
"!  c #C7A36C",
"~  c #C6A36E",
"^  c #C7A56F",
"/  c #C8A269",
"(  c #CAA46C",
")  c #CBA66C",
"_  c #C9A66E",
"`  c #CCA86F",
"'  c #C3A271",
"]  c #C6A571",
"[  c #C8A771",
"{  c #CBA870",
"}  c #CBA971",
"|  c #CBA973",
" . c #CFAB71",
".. c #CFAC72",
"X. c #C8A875",
"o. c #CFAD76",
"O. c #CBAE78",
"+. c #CFAF7A",
"@. c #D0A971",
"#. c #D2AE73",
"$. c #D1AF76",
"%. c #D0AF79",
"&. c #D3B178",
"*. c #D5B47B",
"=. c #D1B27E",
"-. c #D3B27E",
";. c #D2B47E",
":. c #D9B982",
/* pixels */
"N I u 6 u p u u t j d j j r 0 j k m m g w p j d t p v b d q q e t p r - 0 4 4 , ",
"6 y 2 w j v d p p j j k k a t b k b l r , c M M p j b b d q t t p p r = r 0 4 , ",
": 2 , n O.=.X.N M ~ ~ ) | T m ^ F F m j y N ] ] v N ) T m a m K F m j w j j d a ",
"2 w w n ;.:.+.' Q o. .$.*.o.Q | F A F m M [  .o.N Q  .) H j T @.) T M y b A z z ",
"y p y p N K L N N | ` ..&.| N ^ A z m M M | T [ m T ) Y A j F / A z d w j b z z ",
"w v u y p c v j m | )  .$.^ m E A A m M M [ m K M N ^ H b d m F z k p , d k b b ",
"w p w y d v j p v T U T ^ m j k a a j v M N v M g l m b k a l k d d u = e p a p ",
"u d w w p j p w i v k b b p - 5 4 4 5 w i j p j t r e t e 0 q q 5 5 > X ; , , > ",
"F ) j r j b d e d b m T ^ M u d e e e u x L m T b k m A b t e d p r , & q e e w ",
"F ) j w p j p t l z m T | N v M a a a p M [ F ) T T ) ) F a a f d e , ; w e e w ",
"C / p w p d r p n l k H ) m v T k s a p M | Y ..^ T ) ) F a a k a e , & q q w , ",
"k A w , u p r r j d a k m j a m k h p w p ~ U ) m v m F b p p a t q - & 4 4 q : ",
"q r , 8 w t w , w p p p j r 7 p r r r 9 r N b b r r p d d e e r 0 > & o > : 5 & ",
"a j t n T K N p M ] ^ ^ ^ l t N N U U M v o.X.+.j p j d j j m l t w , ; w 5 w : ",
"j l t l m F m p b ~ [ | [ M p N b m T m v ~ [ ) j j j a d j F b f p 0 ; w 5 w : ",
"b b p j m m k p b ~ | | [ v p m j k T N p v K ~ l j k s k a b F b p = O , , 5 & ",
"b m p v F F m p M ~ ~ ~ ~ v p N k m T m j m ] =.K b m Z z h m F b d 5 ; w 5 5 & ",
"p p w t d d d w p v j j j u r l j k b p y v N ] m j d a e , w u w 2 ; + ; & $ + ",
"5 , ; , e e r , y p p d p r r l j j v u < u d v p t t e 5 ; 1 , : ; +   # @ $ # ",
"t t , u j j a , y M m T ^ N m ^ F F T M w e d b p j m m b p v v d p 9 # y u p y ",
"b v u p j d p , w f F | +.] N | U Y E m j m b K l F ) ) ) T  .$. .) v w m K ~ b ",
"k d 0 u d d t * , u b [ o.Q N | E ) | F b ) A m j m ) ` ` F T T K m d , f k F f ",
"j j w u d d p = 9 p k T ] N m ~ F E ^ m l Y m j t K #.$.#.T b k f b d 6 d k m f ",
"0 w > > 4 4 , , i v j v M p i M v m m p w j j p r j V m m g p d p p w & 0 5 e 6 ",
"* > & > , - 0 w N N v b m v g M v N m p 8 j b m j g v d w 0 l b j v i = q 5 w 6 ",
"& * O - 5 4 e d ] N b F K m v m b m m j u m m T N v v d 5 0 T ^ T T v 5 t e a e ",
"% $ . * q 5 t j X.T b F K m k b b m m l p m z E V b b f w r )  .`  .m , e a k e ",
"* * o 4 a a a j X.^ A F T m b F T E U n p m z ) V l d d w r ~ ` ` ` m , e a k t ",
"* * & 4 t t r r n m b m b p t k k m l r w l l m v p p p e r F T T K v 0 t a d r ",
", , , p b b b p n Q T T K h q l z z z p 0 t p p p v N N m d p a p p y < w 5 5 * ",
"5 u 9 M ] ^ ] v N X.o.%.%.Q j T m F F k t p p j p N o. .) b j j v M x 3 u w w , ",
"r t , j ] | ] M N X.[ %.-.] m T m m T m d b j j p M ) ) / b v v v v p 2 u w w 5 ",
"q w > d T ~ ~ m N [ ) $.-.] m T z m T N d b j j p M T / T b v b j p y 2 u w w 5 ",
": , > p b b N v N ^ ~  .+.T v Y z b K N p d a a i v K / T v j k j p w 2 p e u 6 ",
"; : ; w i i p t j b b m m j t m k j b p 5 e q r 8 i b m b t q p p p w 1 y 6 6 , ",
"@ @ X ; 9 w y > , w r e r , - j d p p y , 5 , 0 > 0 p p t , , q w 2 ; + ; ; ; @ ",
"j i w M X.X.X.M d b b m m d p ^  ./ ~ F d b j l p M [ ) ~ j M T K M u : u d d y ",
"b p w m | | ] v p d k A F j p T | P ~ F d A A k p N |  .~ j b T T m u : e d k w ",
"j j i N &.=.+.b d p a z F k d H H A ) K t d d d p N ) ) K j j A Z b p , t a j e ",
"q r 0 n X.O.X.v p t e d b j r k k k m l 0 p a d i v m m k t t d d d w = 4 5 q - "
};
