/* XPM */
static char *result[] = {
/* columns rows colors chars-per-pixel */
"40 40 74 1 ",
"  c #795E38",
". c #7F623A",
"X c #84643D",
"o c #88663D",
"O c #9B743F",
"+ c #856941",
"@ c #8B6B43",
"# c #866948",
"$ c #906E46",
"% c #8E704C",
"& c #937445",
"* c #9A7445",
"= c #9C7C46",
"- c #94744B",
"; c #9A774A",
": c #9D7B4B",
"> c #9C7C51",
", c #A17F47",
"< c #A27D4C",
"1 c #A37F51",
"2 c #9E804B",
"3 c #9F8152",
"4 c #A4824D",
"5 c #A9854F",
"6 c #A4884E",
"7 c #A58452",
"8 c #AA8653",
"9 c #A68851",
"0 c #AC8A55",
"q c #A78658",
"w c #AA8758",
"e c #A78959",
"r c #AD8C5A",
"t c #B08757",
"y c #B18C56",
"u c #B18658",
"i c #B28E5A",
"p c #AD9157",
"a c #AE905C",
"s c #B59157",
"d c #B4925D",
"f c #B9955E",
"g c #BB9A5F",
"h c #B18F61",
"j c #AF9162",
"k c #B59461",
"l c #BA9662",
"z c #B69864",
"x c #BC9A64",
"c c #BD9C69",
"v c #BFA16B",
"b c #BFA472",
"n c #C19D65",
"m c #C29E69",
"M c #C3A166",
"N c #C4A26B",
"B c #C9A56D",
"V c #CCA96D",
"C c #D0AD6F",
"Z c #C5A571",
"A c #C9A671",
"S c #C6A872",
"D c #CCAA73",
"F c #CDAE7A",
"G c #D1AE73",
"H c #D1AF7A",
"J c #CFB17A",
"K c #D4B175",
"L c #D3B37A",
"P c #D8B678",
"I c #D7B87A",
"U c #DAB97D",
"Y c #D5B781",
"T c #D6B884",
/* pixels */
"f078fnlmAmmlmnnBxyfgnnVPBnxGGGABxnnmmnk-",
"i879fnnnmckfnnnBl0idfnVPmllVGVCmllnmmlk>",
"y549dlilxhiyiffns40dffnAnifmBmmmkggxkih-",
"y449fldlkrwwyyyy5,9riifmy97ilili9990887#",
"f04ylmclk8wwyy00420siyhxr1<wuu8w:29771>+",
"BxdlNHHDmhilnlgxs0gxxxmAxuwxmlxi7hkldii>",
"MgslmADAmkkxAmNBcacnnmBHchuZmnxlrkcmlkl>",
"nsisnnmmnkkmDAVDMdvvnmADchlBAmndikmAnkk>",
"nfifxnnmmkkmNNNDvdxclmADxhdBDmniekcNcgl>",
"ly80sdsllwwwkzgxs0afdkcciw9xcgi07eaksrr&",
"f0749srrw>>1ersd62eadihkr74ey7772999742+",
"SMffcBmmceekcNNBxpzvZDFFxwekk0rieri0422+",
"KBggMVNAZjjzZAAGvdvVHLTTZkrcx0ilrriy<,,X",
"VBgsgxmAZehcZAAGMdmBAHYTZkhmx8fxdr885<,o",
"Mnspsdidh7ecmAAGNfcMmDFFckkxnyflkiyy5<<o",
"VMgsdfrii7hcAAmVvkcNmADAckkmniflksiyt81@",
"KVgsfnslcqhcNmnMxkcmmmBAnudmmsddaadi871#",
"Mni<5iidhqqwiyyi94riiisi8<=7w<<<&223<;; ",
"y5<,5iikhq17785y7=7yssysy4,997<<;271:;-X",
",*O,ynfxlw8wyyyf0<icMMMMxdscmdgd0ady71q@",
"1<<5gBMCZrwwyy5fr9fMVVBVcxlAAmmnlcms1<1$",
"u1<umCKPLkw8yyysi7gMCVCVmlxAGBMmlmZku<<@",
"u15sNPUULk075yigi9dMCCCVngkVGBMMdnnnu<*o",
"1<<uBPIIDr9<5yiga4fMVBVBxgnGPVVMdllfu<-X",
"1<;8nGBBvr3398rgp7ixnngmfsfSDmmgpakd06:+",
"<*&<yksdkw73w00se37iiyisy44is95529ada0>#",
"<<<ulxkllrradgfxderknggxfr9iu58870kxzkw%",
"u11dNBxxxkkzNmmBcsdmVMBVmd8ui5yiwkvNmlr-",
"fy8ixMfgxdfgNMvNxazBKVVVmk7yutsfkxvAmkw&",
"niysxBgnxggxVNnNcszBKVVVmf7tyyfnzcNZmge@",
"mi8ixVMMvdggMMvMvdgNKVVBMd7tyyfnxzcNxsw$",
"f849fxxxgeppgvgvs0avVMMMgi9yy5uuaafldr7@",
"s5<4szddderjzvxvjepsgdis09rzziddw99e7<>@",
"l8<7afadderzvbvScrep065944aZZmmlr3;=;*=+",
"my7rxvcccakvFFJLZjdfsyydaavJTHAmh7:4<;<@",
"ms8ixBcmcdzNJJFJZkass0ygsjcFLDAxr77w<<<@",
"Vi5dxBmmxdkcKDBDvp00y50fkkzvSNxkwqwsw4=X",
"mi5ydxlxxdkcSSNSvdp055ylkkzvBNnkhwwr84=X",
"n7<ygxgxchzcSNvVvp0pyysckkzvNccckrwrw4=.",
"y1<9szdxchkzvvvNz000yykxgpgccxxcjw77<=& "
};
