/* XPM */
static char *de64994dfcf24ecaee06e1a3cac3ef59xa4fdUBFHXcxWLSv[] = {
/* columns rows colors chars-per-pixel */
"40 40 217 2 ",
"   c #080909",
".  c #160C02",
"X  c #170E0B",
"o  c #19140A",
"O  c #0E1C1B",
"+  c #131B1A",
"@  c #291A09",
"#  c #281B15",
"$  c #1B201F",
"%  c #3A2507",
"&  c #2B251C",
"*  c #352719",
"=  c #3F321C",
"-  c #2A2A29",
";  c #3C2D21",
":  c #322D2C",
">  c #36342A",
",  c #35312F",
"<  c #2E3231",
"1  c #363431",
"2  c #383634",
"3  c #492C06",
"4  c #533202",
"5  c #462915",
"6  c #572C1C",
"7  c #4F3512",
"8  c #403B1F",
"9  c #5D3E15",
"0  c #55381A",
"q  c #673C04",
"w  c #67381C",
"e  c #733F15",
"r  c #552F21",
"t  c #49372A",
"y  c #563624",
"u  c #402F37",
"i  c #473934",
"p  c #653E2C",
"a  c #3C413D",
"s  c #58431B",
"d  c #774A05",
"f  c #674918",
"g  c #724A1A",
"h  c #45433F",
"j  c #724C2D",
"k  c #78482B",
"l  c #443F4A",
"z  c #49494A",
"x  c #594D49",
"c  c #57574F",
"v  c #734F4F",
"b  c #7A5547",
"n  c #695955",
"m  c #7C6946",
"M  c #66615C",
"N  c #686867",
"B  c #787673",
"V  c #8C3A03",
"C  c #864D05",
"Z  c #9F4709",
"A  c #955706",
"S  c #905014",
"D  c #A45D07",
"F  c #AA5312",
"G  c #A7650A",
"H  c #B66907",
"J  c #965629",
"K  c #91552D",
"L  c #824F34",
"P  c #895539",
"I  c #A75D2C",
"U  c #B55D21",
"Y  c #99643B",
"T  c #A7612C",
"R  c #A7693E",
"E  c #B6693D",
"W  c #BA723E",
"Q  c #C25408",
"!  c #D75D0A",
"~  c #C65F19",
"^  c #C67309",
"/  c #CD631F",
"(  c #D7681C",
")  c #E9660F",
"_  c #FB6B0A",
"`  c #FF6D0B",
"'  c #E26616",
"]  c #FF7315",
"[  c #FD781E",
"{  c #D46E26",
"}  c #DD742A",
"|  c #C36C31",
" . c #EB7829",
".. c #FF7F27",
"X. c #EA7D34",
"o. c #875845",
"O. c #925D45",
"+. c #915E4A",
"@. c #95644A",
"#. c #966754",
"$. c #906D57",
"%. c #A66845",
"&. c #B16F44",
"*. c #AD7548",
"=. c #B9764B",
"-. c #AA7654",
";. c #B17E57",
":. c #BC7E51",
">. c #9F7463",
",. c #A37765",
"<. c #C37946",
"1. c #D57D48",
"2. c #D7810A",
"3. c #D8860C",
"4. c #CD8D11",
"5. c #D08F11",
"6. c #D59312",
"7. c #DA9611",
"8. c #E58D0B",
"9. c #E9960D",
"0. c #F29E0D",
"q. c #F6A00D",
"w. c #FFAB0F",
"e. c #FE802B",
"r. c #FF8533",
"t. c #F98639",
"y. c #FD8839",
"u. c #BC835B",
"i. c #BA8967",
"p. c #AC8577",
"a. c #B59477",
"s. c #C4814E",
"d. c #D88145",
"f. c #C78757",
"g. c #D28C54",
"h. c #FF9146",
"j. c #FF9149",
"k. c #EA9054",
"l. c #CA8B62",
"z. c #CA9163",
"x. c #CB956A",
"c. c #D99864",
"v. c #CB9975",
"b. c #D29B73",
"n. c #D99F72",
"m. c #DEA26F",
"M. c #DBA378",
"N. c #E4A878",
"B. c #E6AC7C",
"V. c #FFB27E",
"C. c #0D93D0",
"Z. c #2292C2",
"A. c #1FA4DA",
"S. c #00A2E8",
"D. c #0EADF2",
"F. c #29AEE7",
"G. c #20BCFF",
"H. c #3CBCF0",
"J. c #43B2DF",
"K. c #3EC0F4",
"L. c #848383",
"P. c #839896",
"I. c #9A9A9A",
"U. c #B8988D",
"Y. c #9EA2A2",
"T. c #92ACAA",
"R. c #9DBBB8",
"E. c #A2A1A1",
"W. c #ABAAA9",
"Q. c #BDB3AE",
"!. c #ABB5B2",
"~. c #B9B9B9",
"^. c #C4AA9F",
"/. c #C9B093",
"(. c #E9AF80",
"). c #EBB385",
"_. c #E7B589",
"`. c #EBB688",
"'. c #F0BD8F",
"]. c #E6BB97",
"[. c #F1BE91",
"{. c #CCB9A8",
"}. c #C6B9B3",
"|. c #CCBBB4",
" X c #F3C496",
".X c #F3C69B",
"XX c #F5C99E",
"oX c #D4C5AA",
"OX c #DFD5B8",
"+X c #F5CCA2",
"@X c #FBD2A5",
"#X c #FDD6A9",
"$X c #FFD9AD",
"%X c #E6CBBC",
"&X c #FFD6BB",
"*X c #ABCECC",
"=X c #CACACA",
"-X c #DBCDC9",
";X c #DCD1CE",
":X c #D6D4D0",
">X c #DDD9D0",
",X c #DCDCDC",
"<X c #E3D7D4",
"1X c #E3D9D5",
"2X c #E7DDDA",
"3X c #EAE2DF",
"4X c #F7E5DA",
"5X c gray90",
"6X c #EBE4E2",
"7X c #ECECEC",
"8X c #FFEFE4",
"9X c #F3EDEC",
"0X c #FAF3EE",
"qX c #F5F3F3",
"wX c #FBF5F2",
"eX c #FBF9F7",
"rX c #FFFFFF",
/* pixels */
"rXrXrXrXrXrXrXrXrXrXrXrXrXrXrXrXrXrXrXrXrXrXrXrXrXrXrXrXrXrXrXrXrXrXrXrXrXrXrXrX",
"rXrXrXrXrXrXrXrXrXrXrXrXrXrXrXrXrXrXrXrXrXrXrXrXrXrXrXrXrXrXrXrXrXrXrXrXrXrXrXrX",
"rXrXrXrXrXrXrXrXrXrXrXrXrXrXrXrXrX<X;X2X9XeX9X;X2XqXrXrXrXrXrXrXrXrXrXrXrXrXrXrX",
"rXrXrXrXrXrXrXrXrXrXrXrXeX3X1Xp.o.o.b n n n o.+.+.^.2X9XrXrXrXrXrXrXrXrXrXrXrXrX",
"rXrXrXrXrXrXrXrXrXrXrXeX1X>.#.v.].+XR.F.F.J.oXXX_.i.@.U.9XrXrXrXrXrXrXrXrXrXrXrX",
"rXrXrXrXrXrXrXrXrXrXeX<X,.b.].+X#X$X*XG.G.K.OX$X#X.X_.i.p.9XrXrXrXrXrXrXrXrXrXrX",
"rXrXrXrXrXrXrXrXrXrX<X>.f. X#X$X$X$X*XG.G.K.OX$X$X$X#X(.=.p.qXrXrXrXrXrXrXrXrXrX",
"rXrXrXrXrXrXrXrXrXrX-XO._.#X$X$X$X$X*XG.G.K.OX$X$X$X$X Xl.#.9XrXrXrXrXrXrXrXrXrX",
"rXrXrXrXrXrXrXrXrX<Xp.u.+X$X$X$X$X$X*XG.G.K.OX$X$X$X$XXXn.-.U.9XrXrXrXrXrXrXrXrX",
"rXrXrXrXrXrXrXrXrX|.P c.@X$X$X$X$X$X*XG.G.K.OX$X$X$X$XXXN.<.+.6XrXrXrXrXrXrXrXrX",
"rXrXrXrXrXrXrXrXrX|.P m.@X$X$X$X$X$X*XG.G.K.OX$X$X$X@X XB.f.@.6XrXrXrXrXrXrXrXrX",
"rXrXrXrXrXrXrXrXrX|.O.`.#X$X$X$X$X$X*XG.G.K.OX$X$X$X.X).).b.#.6XrXrXrXrXrXrXrXrX",
"rXrXrXrXrXrXrXrXrX}.P `.#X$X$X$X$X$X*XG.G.K.OX$X$X$X.X).).b.o.6XrXrXrXrXrXrXrXrX",
"rXrXrXrXrXrXrXrXrXE.t _.@X$X$X$X$X$X*XG.G.K.OX$X$X#X X).).i.i ,XrXrXrXrXrXrXrXrX",
"rXrXrXrXrXrXrXrXrXE.; B.'.@X$X$X$X$X*XG.G.K.OX$X$X X`.).).i., ,XrXrXrXrXrXrXrXrX",
"rXrXrXrXrXrXrXrXrXE.* c.).'.@X$X$X$X*XG.G.K.OX$X X`.).).B.*.: ,XrXrXrXrXrXrXrXrX",
"rXrXrXrXrXrXrXrXrXE.* g.B.).'.@X$X$X*XG.G.H.{.[.`.).).).N.*.: ,XrXrXrXrXrXrXrXrX",
"rXrXrXrXrXrXrXrXrXE.# %.B.).).[. X XR.D.D.F./.).).).).).b.L : ,XrXrXrXrXrXrXrXrX",
"rXrXrXrXrXrXrXrXrX=XM p M.).).).).).T.S.S.A./.).).).).).i.t L.7XrXrXrXrXrXrXrXrX",
"rXrXrXrXrXrXrXrXrXrX~.* x.).).).).).T.S.S.A./.).).).).B.-.2 7XrXrXrXrXrXrXrXrXrX",
"rXrXrXrXrXrXrXrXrXrX=Xx @.x.N.).).).T.S.S.A./.).).B.M.u.P N 7XrXrXrXrXrXrXrXrXrX",
"rXrXrXrXrXrXrXrXrXrXqXQ.t L f.N.B.(.T.S.S.A./.B.B.c.=.p x 7XrXrXrXrXrXrXrXrXrXrX",
"rXrXrXrXrXrXrX0X8X8X%X%.=.:.x.f.s.z.P.C.C.Z.a.f.s.z.v.-.#.4X8X8X8XeXrXrXrXrXrXrX",
"rXrXrXrXrXwXwXV.y.h.t.) ( b a * 6 6 & u v : & w 5 > z @.' r.h.h.y.&X0XeXrXrXrXrX",
"rXrXrXrXwXl.k.e.` ] [ ! w U x Y b < O $ - + O l T v P S e _ ..] ` h.d.].rXrXrXrX",
"rXrXrXrXeX%X$.W j.| y 5 @ ! / k Y =.;.;.;.;.;.=.j J ' Z o 0 g  .y.L a.4XrXrXrXrX",
"rXrXrXrXrXeXc j 1.d.Y k * ! ] U ( ..r.r.r.r.r.[ F ! ` Z & K T X.E * Y.rXrXrXrXrX",
"rXrXrXrXqXE.i k <.d.E g * ( ..e.[ ] ] ] ] ] ] ] ] ] ` Z - S | d.R r n =XrXrXrXrX",
"rXrXrXrX7X2 6 %.g.&.r   : } ................e.......] Q 5 X k s.g.P # L.rXrXrXrX",
"rXrXrXrXqXN t L R L 5   < I |  .............e.....} ~ Q V . y Y Y p i E.rXrXrXrX",
"rXrXrXrXrXqXN 1 , , : -   o > T { { { { { { { { { j & . X - : 1 1 , W.eXrXrXrXrX",
"rXrXrXrXrXrX7X5X5X5X5X~.& 4 C s 8 8 8 8 8 8 8 8 8 g d % h ,X5X5X5X5XqXrXrXrXrXrX",
"rXrXrXrXrXrXrXrXrXrXrX>Xf H 8.7.7.6.4.4.4.4.5.6.7.9.3.A m eXrXrXrXrXrXrXrXrXrXrX",
"rXrXrXrXrXrXrXrXrXrXrX>Xg ^ q.w.w.3.A d d d G 0.w.w.9.D m eXrXrXrXrXrXrXrXrXrXrX",
"rXrXrXrXrXrXrXrXrXrXrX>Xf A 2.q.w.8.D q @ d H 0.w.9.^ C m eXrXrXrXrXrXrXrXrXrXrX",
"rXrXrXrXrXrXrXrXrXrXrX:X= q D 2.8.^ A 3 . q D 3.8.^ C 3 x eXrXrXrXrXrXrXrXrXrXeX",
"rXrXrXrXrXrXrXrXrXrXrX5XB * 3 C A C 4 = M % q A A q % t I.eXrXrXrXrXrXrXrXrXrXwX",
"rXrXrXrXrXrXrXrXrXrXrXrX7XN X 5 9 9 % z =X# 7 9 9 @ < I.rXrXrXrXrXrXrXrXrXrXrXrX",
"rXrXrXrXrXrXrXrXrXrXrXrXrXeX!.Q.|.|.Q.~.7XW.}.|.|.W.=XrXrXrXrXrXrXrXrXrXrXrXrXrX",
"rXrXrXrXrXrXrXrXrXrXrXrXrXrXrXrXrXrXrXrXrXrXrXrXrXrXrXrXrXrXrXrXrXrXrXrXrXrXrXrX"
};
