/* XPM */
static char *result[] = {
/* columns rows colors chars-per-pixel */
"40 40 161 2 ",
"   c #33341F",
".  c #262625",
"X  c #292726",
"o  c #2C2C26",
"O  c #2D2C2B",
"+  c #312F2C",
"@  c #2F3027",
"#  c #2F312B",
"$  c #313521",
"%  c #353826",
"&  c #33322D",
"*  c #39372D",
"=  c #3B3C2E",
"-  c #2E2D33",
";  c #312F33",
":  c #343433",
">  c #383734",
",  c #373835",
"<  c #3B3C34",
"1  c #35343A",
"2  c #38363A",
"3  c #373838",
"4  c #3C3C3B",
"5  c #403F2F",
"6  c #413F34",
"7  c #403F3A",
"8  c #3F412C",
"9  c #3F4135",
"0  c #3F413C",
"q  c #42442E",
"w  c #42492D",
"e  c #434335",
"r  c #4B4934",
"t  c #44443B",
"y  c #48463B",
"u  c #46493B",
"i  c #4B4B3D",
"p  c #514E3E",
"a  c #4D533D",
"s  c #4F5A3F",
"d  c #52533D",
"f  c #3B3940",
"g  c #444442",
"h  c #494740",
"j  c #464842",
"k  c #4C4D43",
"l  c #4C4C4A",
"z  c #524F42",
"x  c #4F5143",
"c  c #4F5A40",
"v  c #4E514B",
"b  c #545444",
"n  c #585644",
"m  c #545B44",
"M  c #5B5A45",
"N  c #53544C",
"B  c #595749",
"V  c #57584B",
"C  c #5B5C4A",
"Z  c #474554",
"A  c #515351",
"S  c #575A53",
"D  c #5A5D54",
"F  c #5D5F59",
"G  c #605F4B",
"H  c #566145",
"J  c #596346",
"K  c #576348",
"L  c #5D624B",
"P  c #5C694B",
"I  c #5D6056",
"U  c #62634D",
"Y  c #68664E",
"T  c #65694E",
"R  c #6A6B4E",
"E  c #636453",
"W  c #686556",
"Q  c #666954",
"!  c #6B6B54",
"~  c #62655C",
"^  c #696758",
"/  c #66695C",
"(  c #6B6C5B",
")  c #706F56",
"_  c #657255",
"`  c #6B7354",
"'  c #6E725B",
"]  c #717156",
"[  c #787756",
"{  c #767B57",
"}  c #73745C",
"|  c #78775E",
" . c #7A7C5E",
".. c #616366",
"X. c #666961",
"o. c #6B6D62",
"O. c #6E7263",
"+. c #6F766C",
"@. c #737363",
"#. c #787766",
"$. c #767962",
"%. c #7B7C63",
"&. c #71746B",
"*. c #787769",
"=. c #75786A",
"-. c #7A7B6A",
";. c #757B74",
":. c #817E6E",
">. c #7A815E",
",. c #7E8264",
"<. c #7E816B",
"1. c #7B8074",
"2. c #81845F",
"3. c #838465",
"4. c #848A66",
"5. c #898D67",
"6. c #83856B",
"7. c #868A6D",
"8. c #8A8B6C",
"9. c #8B926D",
"0. c #91916E",
"q. c #90986E",
"w. c #838573",
"e. c #8A8777",
"r. c #878A74",
"t. c #8A8C74",
"y. c #84867C",
"u. c #86887A",
"i. c #8B8D7B",
"p. c #908F70",
"a. c #8D9374",
"s. c #8F9871",
"d. c #8E917B",
"f. c #929473",
"g. c #959C74",
"h. c #999D74",
"j. c #92957B",
"k. c #959A7B",
"l. c #9C9D7B",
"z. c #A09F7B",
"x. c #9DA176",
"c. c #97A17B",
"v. c #9CA27C",
"b. c #A1A37D",
"n. c #A2A87F",
"m. c #8C8E82",
"M. c #8A9389",
"N. c #9A9D84",
"B. c #9A9F8C",
"V. c #929C91",
"C. c #9DA382",
"Z. c #9DA28E",
"A. c #9DA291",
"S. c #A1A583",
"D. c #A3AA85",
"F. c #A5A78F",
"G. c #A4AA8A",
"H. c #A6AA92",
"J. c #A9AD95",
"K. c #ADB39B",
"L. c #B0B59D",
/* pixels */
"B.A.u.-.t.Z.k.j.k.d.7.a.N.N.k.k.k.k.j.f.d.r.-.-.m.u.r.i.1.O.X.y.m.m.y.y.:.&.o.~ ",
"B.Z.1./ ' 6.3.%.,. .' %.8.7.7.7.6.3.3.%.,.%.( Q @.@.@.#.O.E E =.*.@.&.o.F v S F ",
"O.O.S u i m m n b n b d C C M M C M B n n m u 8 e t i i u e y l y t e * X . 7 v ",
"I D l 0 k N b b b b p p b b b b n b b k p k r 9 t e t y 6 : * 9 6 t t , X O < S ",
";...Z f 3 < < e t = 5 r B m d i i i y u i i u e u t e w < 1 2 e e e e < o . O t ",
"M.;.l 2 > * < i b n E -.i.d.7.! U Q L m C n C Q ' _ V u e 4 t c s s i e % o & 4 ",
"V.1.v t k z z U Q -.i.N.F.F.C.$.| r.%.T L _ ,.s.k.a._ V u u u H J K K K e * N K ",
"M.+.j k E @.' ! | j.F.H.H.J.N.%.,.k.j.` T ,.c.v.c.7.` L L U P J K P _ P a < o.+.",
"+.I 0 k } j.r.` $.N.J.J.L.K.t.' ,.v.v.>.{ s.v.g.9.>._ ` >.4.4.` J P _ _ a 8 O.<.",
"v t < e O.C.j.$.' j.H.K.L.N.} U %.v.v.5.{ 9.k.9.,.5.q.q.q.h.x.>.P K P H 8 $ I I ",
"y t = 9 Q k.N.t.! ,.N.H.N.#.U G %.v.v.g.{ ,.9.9.s.c.v.c.x.q.q._ H c s s 8 # 9 u ",
"4 4 1 < C r.d.t.} E ( =.( W E E $.v.v.x.,.>.>.9.c.v.n.v.x.q._ J H c c a 9 % % , ",
"< 2 > > h W O.' E m n G E ^ W U } g.D.v.5.{ 4.c.v.v.v.v.q.>.J H m m s a e & & < ",
"& & ; > t h b n b b b B D E E C U %.f.l. .[ 5.g.x.x.c.f.>._ s s m s a a = + O 6 ",
"6 7 7 > < t t y t i b C G Q Q Q U U ] %.Y R [ 2.>.>.>.} U d s s s a u 8   @ + 6 ",
"( O.o.z t B h p r t p U  .8.j.k.6.Q p b p n C M d d M d d a r d a a u q   $ t q ",
"e.e.:.b b *.*.} Q C L ,.C.C.D.D.S.a.Q d p G ) | :.:.2.5.[ T d U E } #.W y 6 W C ",
":.:.*.b b :.i.u.i.w.$.3.C.D.D.D.D.b.%.n n d Y p.b.x.b.b.b.5.] d ) 3.8.| n r -.W ",
"#.#.O.k b <.i.j.j.r.} } k.D.D.D.n.l.| M R Y Y 3.b.b.b.x.x.h.2.M U  .:.] n e ( ^ ",
"@.@./ i b 1.r.r.r.#.Q Q 7.v.v.v.b.0.! Q 4.:.) ] h.x.x.x.x.x.5.M d R ) U b * n ! ",
"^ ^ S 7 v *.:.-.$.W C T 4.g.c.v.h.4.G [ f.p.[ T 2.q.x.h.x.h.5.G n C U B k & < M ",
"B S k 4 g I W ! W B V ' 9.k.v.n.h. .n ) 8.a.[ U G :.q.h.h.h.q.R C B B a e & * t ",
"v z g 2 2 h z C B b L %.s.C.D.D.f.Q p G  .:.R d d M ) :.2.5.2.[ G B b i = + : > ",
"l z g > t z k l y y E 7.k.D.G.C.%.n z n M G G U R ) R R Y M U M n z i 6 & + * 6 ",
"k l 7 4 v ^ ^ X.l k E t.k.v.D.a.) d G d G Y %.8.0.0.8.6.| G n z k k i =     n Q ",
"g g 4 4 B O.@.&.S V ! 3.a.v.k.| G d n R [ 8.k.S.b.b.z.l.8.( z z b V k =   8 $.<.",
"t g 2 6 B ( ( ( W W ! } %.8.3.E p n U 5.0.z.z.S.z.l.l.l.8.! z b C E V 9 & x 6.6.",
"g t > 7 B ( ( E W ( ( Q E Q L n p n :.z.b.z.S.z.z.z.l.p.| n k B L L x < < x @.} ",
"4 j 4 < z E E D G E E G G M b i y n 8.z.S.z.z.z.z.f.6.) n p n C C m y < < i E I ",
": 1 ; ; > t y y y y r q e y e e 6 y | p.p.p.f.p.3.) G z i h n B V i 9 , < e n a ",
"j 1 - X : i z k k b d d d n n k r 6 p ) ] [ R U d r y z z h k h e , , , , 9 x x ",
"I t & o 7 D ^ Q ! ' ] ' ) ( ( E B r 5 p n d d p p d G E E E C b * @ # : # & t L ",
"^ B > o e E ' ' @.$.$.| } ` ( Q C x t < y b B E / @.#.#.#.@.( E 6 o X O . o j I ",
"I v 2 O < x L S L L I L m b a a x h 4 & y / =.-.=.@.} ( ^ / U C y O X X . O k A ",
"l g f - , j l l l k u u x l u i k g 1 f B E I V N b N l j e 4 0 0 3 , : # - 0 4 ",
"&.X.g 2 S o.I X.X.D l x ~ / / I S j 0 I / o./ I S ~ I V 0 : f A S S S v f 3 v v ",
"O./ t 0 v D S S S v t j V S S N j 4 t I o.o.~ S N D S l 4 : f l A A v g 3 3 F ..",
"I N 3 : 4 j 0 g t 0 3 4 j l l t 4 , 0 I ..I D N l v l 0 3 - 1 4 0 g g 3 1 3 S I ",
"v g 1 O # , , 3 : : : < g g 0 9 , # , A D S v j t t 0 2 - - - : 3 3 3 : - # l S ",
"t 0 - O # , : 1 : & & : 4 4 3 : ; O - g l g 0 1 : < 1 ; O X X # : : : # # O 0 j "
};
