/* XPM */
static char *e764dac057b24001e523acb47b4e0b52QODncej2fRhNcCiR[] = {
/* columns rows colors chars-per-pixel */
"40 40 177 2 ",
"   c #2F341A",
".  c #30321B",
"X  c #262625",
"o  c #282727",
"O  c #272827",
"+  c #2C2B27",
"@  c #2A272B",
"#  c #2D2D2C",
"$  c #302F2D",
"%  c #2E312F",
"&  c #313324",
"*  c #373A22",
"=  c #393C25",
"-  c #32322D",
";  c #39372F",
":  c #3B3D2B",
">  c #2E2D32",
",  c #2F3034",
"<  c #343433",
"1  c #393732",
"2  c #373935",
"3  c #3B3B34",
"4  c #36343A",
"5  c #38373E",
"6  c #373938",
"7  c #3B3C3A",
"8  c #403E33",
"9  c #3D402E",
"0  c #3F4235",
"q  c #3F413B",
"w  c #43452F",
"e  c #434335",
"r  c #454A34",
"t  c #4A4B36",
"y  c #43433B",
"u  c #48473C",
"i  c #46493A",
"p  c #4B4B3D",
"a  c #504E3E",
"s  c #4C523C",
"d  c #52513E",
"f  c #555A3F",
"g  c #373640",
"h  c #3C3C42",
"j  c #444542",
"k  c #464943",
"l  c #4B4C43",
"z  c #4B4C4A",
"x  c #514E42",
"c  c #4E5144",
"v  c #4F5A40",
"b  c #4E504A",
"n  c #535344",
"m  c #595543",
"M  c #545A43",
"N  c #5B5B45",
"B  c #53544B",
"V  c #59574A",
"C  c #57594C",
"Z  c #5B5B4B",
"A  c #4E4F52",
"S  c #535651",
"D  c #565953",
"F  c #5B5D52",
"G  c #52525C",
"H  c #5B5D59",
"J  c #605F4C",
"K  c #615F51",
"L  c #566044",
"P  c #5D6445",
"I  c #576248",
"U  c #5D624C",
"Y  c #5D6A4C",
"T  c #5E6254",
"R  c #5D615A",
"E  c #636246",
"W  c #63644D",
"Q  c #68674E",
"!  c #636A4D",
"~  c #69694C",
"^  c #636453",
"/  c #686754",
"(  c #666A53",
")  c #6B6C55",
"_  c #62655B",
"`  c #656A5E",
"'  c #6B6C5B",
"]  c #677457",
"[  c #6D7255",
"{  c #6D725C",
"}  c #727256",
"|  c #73745C",
" . c #79775D",
".. c #757A5B",
"X. c #797C5C",
"o. c #646761",
"O. c #656962",
"+. c #6C6F62",
"@. c #6F7162",
"#. c #6E7268",
"$. c #737463",
"%. c #787666",
"&. c #757961",
"*. c #7B7D63",
"=. c #72756A",
"-. c #767A6D",
";. c #7C7B6A",
":. c #707573",
">. c #727970",
",. c #7D7D7E",
"<. c #807F62",
"1. c #807F70",
"2. c #7B835E",
"3. c #7D8363",
"4. c #7F8862",
"5. c #7E816A",
"6. c #7E8475",
"7. c #7F877E",
"8. c #818365",
"9. c #848A65",
"0. c #82856B",
"q. c #868C6B",
"w. c #8A8C6B",
"e. c #87906E",
"r. c #8D936D",
"t. c #91946E",
"y. c #848572",
"u. c #8A8777",
"i. c #868A71",
"p. c #8B8D73",
"a. c #888678",
"s. c #878D7D",
"d. c #8C8E79",
"f. c #8F9673",
"g. c #8F9477",
"h. c #8F9977",
"j. c #8F917B",
"k. c #939574",
"l. c #989777",
"z. c #949B74",
"x. c #9A9C74",
"c. c #92957B",
"v. c #969B7A",
"b. c #979E7E",
"n. c #9C9D7A",
"m. c #9CA176",
"M. c #99A17D",
"N. c #9DA27C",
"B. c #A1A27D",
"V. c #A4A97D",
"C. c #7E7F80",
"Z. c #7F8080",
"A. c #818282",
"S. c #828B81",
"D. c #848B80",
"F. c #868F84",
"G. c #898A89",
"H. c #8B9180",
"J. c #8F978B",
"K. c #949681",
"L. c #969982",
"P. c #9B9F83",
"I. c #999B85",
"U. c #959E94",
"Y. c #9DA382",
"T. c #9BA480",
"R. c #9EA289",
"E. c #A2A581",
"W. c #A3AA85",
"Q. c #A0A38C",
"!. c #A5AD88",
"~. c #A6AB92",
"^. c #A7AD95",
"/. c #A9AC93",
"(. c #ABAF98",
"). c #ADB29A",
"_. c #B0B69E",
/* pixels */
"6.s.H.-.F V ) ) ) ) ( W ^ | | | | | | ) ) ) / U d Z Z F ^ F B C _ ^ F D n y 3 l ",
"H _ ` F k u V V V V m n n N N N N V V m n n m p 9 e y p p y 3 0 p y y y 1 o o y ",
"R ` R A j y l l p p p t t n n d d n n p p p p u 3 e e e e 8 < < 3 e e y 1 o o 1 ",
"7.S.:.G h 2 1 1 3 e e w d ^ / U n d n p i s p p p n p i r 3 4 7 i r r e 3 + o + ",
"J.U.S.H 7 3 3 3 x Z ^ ' u.I.R.L.*.^ | ' Z U U W &.0.*.T c y y i M m M v s ; + 3 ",
"J.U.S.R y n Z Z ^ ' 5.I.Q.Q.~.R.0...g.p.[ U [ e.M.T.h.&.I c s s M P Y Y Y i 1 _ ",
"D.F.>.B y Z 0.5.' | j.~.~.^._.R.*.&.b.b.X.[ 9.M.M.z.3.! U ( ..} ! L Y ] ] s 9 =.",
"#.` D y e W c.c...| d./.(._.).p.) | v.N.9...q.M.z.q.4.2.3.9.r.t.2.U Y ( Y r : ' ",
"R b y 3 3 Z c.P.0.| 5.Q.(.(.K.| W | z.B.t.X.9.z.r.e.f.z.z.z.z.z.2.P L I M w & n ",
"B k y 3 1 n i.L.c...) y.L.d.$.W J | v.N.x.8.2.q.r.z.N.N.N.m.z.4.! L M M s r + 1 ",
"y 3 7 4 2 u $.0.i.&.W Z / ^ / ^ ^ | v.B.N.w.....r.m.N.N.N.m.q.! L M M v s 0 - - ",
"3 1 2 < < 3 n T ^ Z m n V J ' / ^ / 9.N.E.w.X.9.N.N.N.N.m.r...L L L M v s 0 - - ",
"3 - - - < 3 y u p p x n V V Z Z Z Z Q 8.k. .} 8.k.r.t.k.q.| N M f M s s r = + $ ",
"F V V C l 3 u y e e e p N ( ..5.0.&.W N W N N Q Q E P W Z n p s s s i e : . + 1 ",
"1.;.;.;.K e ^ / K m s n ) q.v.T.Y.b.0.Z d d N ^ Q Q ~ ( ) W m d n V U W n : ; B ",
"a.a.u.y./ y %.y.y.;.{ / *.N.W.!.!.!.Y.&.n d N / 8.r.t.k.z.w...W Z / *.0.| a u $.",
";.;.;.%.K y %.d.j.K.c.;.X.n.Y.W.W.W.E.0.V Z m W w.W.V.V.V.V.z...N ~ 8.w. .N i ;.",
";.%.$.+.V y %.u.d.d.y.| ( q.Y.W.E.B.n.| J  .| Q | n.B.B.m.m.x.w.N N }  .) n 3 / ",
"' $.$._ b y %.y.y.5.$.^ U 3.z.M.m.x.k.Q ) w.w.| Q w.n.m.m.x.x.r.N n W ^ Z n - i ",
"n F ^ C j h _ $.$.{ ^ m W 8.z.m.N.m.w.N } w.k.*.W ) w.x.m.x.x.t.( Z V V n i - 1 ",
"k b C l 7 4 l V ^ J V B { w.v.Y.W.m...n W *.w. .N N Q X.w.t.t.w.} U V m p 3 - 1 ",
"k l n k 7 2 j l n x l N *.g.Y.W.W.k.W x m / ) Q N J J Q [ } } } Q Z n x y - - ; ",
"l l b j 7 y V V V l y N 0.v.Y.W.M.5.n n m m N ^ ..*.*.&.| Q N n m x l p 3 & & e ",
"l k z j 7 k ' %.=.H z W 0.k.M.Y.q.W n V N E | p.n.B.B.N.n.0./ n n l x p :   * ) ",
"D k j 7 3 p / $.@./ F ^ | 5.c.k...n m N  .w.l.N.E.N.N.n.n.p...n n V T B 0 - p 0.",
"R k j 7 3 l ' ' / / ' { ' / | ) Z a n ) l.B.B.B.n.n.n.n.l.8.W l m U ^ n 3 1 n ;.",
"z y k y 3 p / ' / ^ / ' / ^ W V n p n *.B.E.B.B.B.n.n.k.<.Q d n V U V p 3 3 p ' ",
"j 3 7 7 2 3 l n n n n n d a p p u e p  .k.l.l.n.k.t.8.} J a p m V V l y 3 3 i V ",
"n y < > # $ 3 y y y i t t t i p i e e N  .*.3.*...) N a p p p n n l e 3 3 3 e n ",
"` _ j - @ < n F Z Z W W Q W ^ ^ U n e e n Z N f s i w p B V n x p ; - < < - 1 k ",
"@.+.D y + - T { | $.&.*.*.....| ' U n y e u p d m F / | $.$.$.' ^ 3 + + $ + + y ",
"+.' D y # - n ^ ^ / ( ) ( U Z V V n b y - y K $.;.;.;.%.$.$.' / W p + X o o # b ",
"C n k g > - y l z z c l l l k t p l j 2 4 l ^ _ ^ Z V V B n l p y q < % # @ # y ",
"` _ R z 4 y D F H H C l k D H Z V B l 7 z R _ ` F C D F B y 1 7 z b b z k 6 < l ",
"-.-.=.B 3 l ` _ _ ` F l k H _ _ H n j y R +.+.O.R D R R B q < 5 A D F D z 7 7 D ",
"+.` R k < 7 l l l k y 7 7 k b l k 7 3 7 H o.` R D z B b j 7 < 4 j j k j 7 2 2 H ",
"` C z 7 > < 7 7 7 3 3 2 7 k k j y 3 < 6 S R H D l k l j 7 4 > > 6 7 7 7 2 < < S ",
"R l k 7 # # 2 2 4 < < < < q h 7 3 < > > l B z k 7 7 7 7 < > @ @ < 2 2 2 < $ $ j ",
"j 3 3 2 # # < > > > # # # - , > # # # @ - < < < # # # # @ o o O @ # # # + @ @ $ ",
"G.A.A.A.A.C.Z.Z.,.,.,.,.,.,.Z.C.,.,.,.,.,.,.Z.A.A.Z.A.A.A.A.A.A.A.,.,.,.,.,.A.A."
};
