/* XPM */
static char *result[] = {
/* columns rows colors chars-per-pixel */
"40 40 207 2 ",
"   c #170703",
".  c #160905",
"X  c #240E08",
"o  c #381B0B",
"O  c #2D1B14",
"+  c #381D13",
"@  c #272016",
"#  c #2B231B",
"$  c #33261E",
"%  c #2E2B28",
"&  c #342D25",
"*  c #392A25",
"=  c #352F29",
"-  c #3C3121",
";  c #3D342B",
":  c #232A31",
">  c #49190C",
",  c #5F1F0D",
"<  c #4E2813",
"1  c #71250F",
"2  c #742610",
"3  c #792710",
"4  c #7D2911",
"5  c #6D3816",
"6  c #452C21",
"7  c #45352C",
"8  c #453B2C",
"9  c #483829",
"0  c #493C32",
"q  c #583B30",
"w  c #623E2B",
"e  c #54432A",
"r  c #4F4338",
"t  c #524236",
"y  c #5B453A",
"u  c #5C4738",
"i  c #53493D",
"p  c #63492E",
"a  c #74472B",
"s  c #644834",
"d  c #614B3D",
"f  c #754C34",
"g  c #6A5539",
"h  c #755D3B",
"j  c #7B623C",
"k  c #4C4741",
"l  c #544B41",
"z  c #594C41",
"x  c #5C5246",
"c  c #624C40",
"v  c #665346",
"b  c #6A5C4B",
"n  c #735E40",
"m  c #7C6544",
"M  c #6E6355",
"N  c #796B5C",
"B  c #796D61",
"V  c #7C7163",
"C  c #832C12",
"Z  c #892D13",
"A  c #912F14",
"S  c #8B391D",
"D  c #923114",
"F  c #983918",
"G  c #A63F19",
"H  c #964D1E",
"J  c #B54F1C",
"K  c #A2511C",
"L  c #8D4E2B",
"P  c #B0572C",
"I  c #84643D",
"U  c #8A643B",
"Y  c #9B743F",
"T  c #D26625",
"R  c #DC6B26",
"E  c #836744",
"W  c #846A43",
"Q  c #8B6C43",
"!  c #906E46",
"~  c #8D7245",
"^  c #87714E",
"/  c #8E734C",
"(  c #937345",
")  c #9A7445",
"_  c #9B7B47",
"`  c #93754B",
"'  c #9A774A",
"]  c #967B4F",
"[  c #9D7A4B",
"{  c #8D775A",
"}  c #9B7C52",
"|  c #A17845",
" . c #A37D4C",
".. c #A27F51",
"X. c #AA7F51",
"o. c #847565",
"O. c #827668",
"+. c #8C7B6B",
"@. c #9D814B",
"#. c #9F8054",
"$. c #A4824D",
"%. c #AA834E",
"&. c #A4884E",
"*. c #A58352",
"=. c #AA8653",
"-. c #A68851",
";. c #AC8A55",
":. c #A3865B",
">. c #AA8758",
",. c #A68A5C",
"<. c #AD8C5A",
"1. c #B18C56",
"2. c #B18758",
"3. c #B28E5A",
"4. c #AD9157",
"5. c #B4925D",
"6. c #B9975C",
"7. c #B9955E",
"8. c #988368",
"9. c #958574",
"0. c #9B8773",
"q. c #9D8A75",
"w. c #9C8C7A",
"e. c #AB8D60",
"r. c #A48C68",
"t. c #B08E60",
"y. c #AD9165",
"u. c #AD936E",
"i. c #B59361",
"p. c #BA9662",
"a. c #B79965",
"s. c #BC9A64",
"d. c #B5986B",
"f. c #BD9C69",
"g. c #A28D72",
"h. c #A08E7C",
"j. c #AB9474",
"k. c #A69479",
"l. c #A3927E",
"z. c #B39A74",
"x. c #B59F7C",
"c. c #C19D65",
"v. c #C29E69",
"b. c #CC9173",
"n. c #C3A166",
"m. c #C4A26B",
"M. c #C9A56C",
"N. c #CCA96E",
"B. c #C5A572",
"V. c #C9A670",
"C. c #CCAA72",
"Z. c #C7AA7A",
"A. c #D1AD72",
"S. c #D1AF7A",
"D. c #D4B275",
"F. c #D4B479",
"G. c #D8B678",
"H. c #D7B87A",
"J. c #DAB97D",
"K. c #727B8B",
"L. c #758497",
"P. c #928C86",
"I. c #A49482",
"U. c #A89783",
"Y. c #AA9A86",
"T. c #AD9D8A",
"R. c #AEA18F",
"E. c #BCA487",
"W. c #B2A38E",
"Q. c #BDAB96",
"!. c #B7AF9B",
"~. c #9C9FB1",
"^. c #BDACAB",
"/. c #C9AA8D",
"(. c #C5B29D",
"). c #CBB6A1",
"_. c #CDBAA4",
"`. c #D1BDA7",
"'. c #D7C5AD",
"]. c #DAC5AE",
"[. c #D6C9B2",
"{. c #E2CBB3",
"}. c #EAD6BD",
"|. c #EDD5BD",
" X c #F0D8BF",
".X c #97B2D2",
"XX c #B5BCC2",
"oX c #9CBFE8",
"OX c #B6C3D3",
"+X c #AFC6E2",
"@X c #B1C6E1",
"#X c #CDD0D5",
"$X c #D2D4D6",
"%X c #E9D9C5",
"&X c #ECDDCE",
"*X c #F4DCC2",
"=X c #F8DFC4",
"-X c #F1DEC8",
";X c #FBE2C6",
":X c #F3E2CB",
">X c #F8E6CA",
",X c #FEE4C9",
"<X c #FCE9D3",
"1X c #CEDBEA",
"2X c #FBF2E7",
"3X c #FAF3EC",
"4X c #FBF5ED",
/* pixels */
"7.;.-.=.7.c.s.v.C.v.f.p.v.c.n.M.p.5.6.5.s.c.A.G.M.s.s.N.F.A.N.M.p.s.v.M.v.s.i.] ",
"3.=.%.=.5.s.c.c.v.f.i.7.c.c.c.M.p.;.5.5.p.c.N.F.m.p.p.M.A.N.N.M.s.s.c.v.c.s.i.` ",
"1.%.$.-.5.p.3.p.s.i.3.<.3.7.5.p.~ j j W W ~ / a.p.5.5.m.V.v.v.v.5.5.6.s.p.t.3.` ",
"1.%.@.-.5.p.7.p.i.<.=.;.2.%.Q W 8 ; : : : = = m ~ ~ $.5.p.3.5.3.-.-.4.;.=.*.:.Q ",
"7.;.&.;.p.f.f.s.i.=.>.>.=.h @ ; T.[.OX.X.X[.`.x @ 9 ( :.2.=.3.*.[ [ %.%.*.} } Q ",
"M.6.5.s.M.S.S.C.m.5.<.t.n i (._.|.,X#XoX+X%X*X'.(.9.7 >.v.p.p.t.>.<.i.a.3.3.3.} ",
"n.6.5.7.v.C.C.V.v.i.y.h M W.*X;X<X4X1XoX+X:X>X,X*X'.+.d e.c.c.7.<.i.f.v.s.7.7.} ",
"c.7.1.3.c.c.v.v.s.i.i.- B ;X-X,X4X4X1XoX+X:X,X,X;X*X_.* :.c.p.7.t.i.v.V.c.p.i.} ",
"c.7.3.7.s.c.c.c.v.t.` t w.>X,X<X2X3X1XoX+X:X,X,X,X,X].d ^ 5.c.5.<.y.f.m.s.p.p.#.",
"7.1.=.;.3.6.3.7.7.` @ w.|.,X<X2X<X>X$XoX+X:X,X,X,X,X X'.= j 5.<.*.-.4.a.5.<.<.( ",
"6.;.%.%.-.3.<.3.:.E # U.*X;X,X,X;X,X$XoX@X:X,X,X,X,X=X].; g [ *.@.-.-.=.$.$.@.I ",
"C.f.6.5.f.M.v.f.:.7 T.].*X,X,X,X,X,X:X&X:X>X,X,X;X,X;X{._.i p <.,.<.4.;.$.$.@.W ",
"F.M.c.6.n.M.m.V.:.& _.}.%X,X,X,X,X,X,X,X,X,X,X,X,X,X,X{.*Xl e 5.<.<.<.1.%.| _ I ",
"A.M.6.6.6.n.v.B.:.& _.{.}.;X;X,X,X,X,X,X,X,X,X,X,X,X X{.|.l e a.5.<.=.=.%.$.| I ",
"n.6.6.4.5.5.3.3.#.8 w._.{.*X,X,X,X,X,X,X,X,X,X,X,X;X}.'.Q.i g p.5.<.1.1.-.$. .U ",
"N.n.6.4.3.6.1.3.<.` - 8._.|.;X,X,X,X,X,X,X,X,X,X,X X].W.r I 7.s.5.6.3.1.2.*.X.E ",
"G.N.c.4.6.6.5.p.i.*.] t O.%X X>X,X,X,X,X;X,X,X,X=X*X).i ^ >.5.5.4.4.i.3.=.X.X.Q ",
"n.6.3.%.1.3.<.5.i.>.:.] g M |.;X,X,X,X,X;X=X;X,X*XQ.8 E @.$. . .` @.@.*.} ' ` I ",
"1.-.%.| %.3.5.5.i.:.*.$.E u V }.|.*X|. X X X%X;XT.b p @.=.$. . ._ @.$...' ` ` j ",
"| Y Y | 1.s.6.s.p.:.:.>.;._ p V ).{.].{.].{.{.w.b m 4.f.v.5.7.5.>.4.5.<.=.*.*.! ",
"=. .| %.7.M.M.N.V.<.>.=.%.| U 6 +.I.l.l.l.I.h.0 p X.X.v.C.c.n.s.p.f.v.5.=. . .! ",
"2.=.%.2.n.D.A.G.F.i.>. .L C C 4 X             , C C F 2.C.m.M.n.p.v.m.p.2. .| Q ",
">.X.X.3.n.G.J.J.S.5.*.L S D D D 3 1 1 1 1 1 1 Z A A D L 7.n.M.c.i.s.c.p.2. .) E ",
"X. . .1.M.H.H.H.C.:.7 K.^.b.D C C 4 3 4 4 4 4 C C P ).~.k } N.n.p.p.p.7.2.X.) I ",
"..| ' =.c.N.M.M.B.E.L.^.&X!.> 4 C C C 3 3 C Z Z , c }.#XL.T.S.s.4.4.i.5.<.%.' E ",
"[ ! (  .<.7.5.5.e.O.XX-X-XY.. 4 A Z Z Z Z Z A A > 0 |.-X$XP.{ *.@.-.4.i.4.,.} E ",
"X.' [ <.p.s.a.5.@.= '.-X'.+.o F G G G G G G K G 2 q /.}.=Xx e *.*.<.5.f.a.i.,./ ",
"<.X.*.i.n.M.s.s.#.; R.[.M O K T T R R R R R R R P 5 % !._.z p 1.-.i.f.M.v.p.3.` ",
"7.1.=.3.f.n.6.6.i.~ 8 = $ * w K T R R R R R R J L 7 # & % g =.7.5.a.f.V.v.p.;.! ",
"c.3.1.5.s.M.s.n.n.4.] #.g 7 d w H K K K K K K a q q 7 E Q *.7.s.s.f.B.B.v.5.;.Q ",
"c.3.=.1.f.M.n.n.m.5.i.s.E 7 v y f f 5 o < a f s c y 9 [ 1.1.7.s.a.d.f.m.s.5.>.~ ",
"7.=.$.-.6.n.6.s.p.>.<.i.o.z 7 q d y 0 i k q c z 7 7 b r.3.%.2.1.4.5.6.p.5.>.=.Q ",
"3.%.| -.5.a.5.5.5.r.r.g.l.N . 6 s 6 v U.9.- s w O & 9.I.j.e.t.5.>.-.-.>.*. .} W ",
"7.2. .-.4.6.4.i.y.q.w.l.I.V O 4 4 + l I.o.$ 2 Z > ; w.I.U.I.z.p.<.@.[ [ _ ) _ Q ",
"c.1.*.<.s.f.f.f.d.w.l.I.T.U.O.@ X b 9.l.q.o.# X 0 w.I.T.R.T.x.v.y.*.[  . .'  .Q ",
"n.3.=.5.f.m.f.m.f.y.d.k.T.W.l.+.o.9.w.w.w.0.o.N +.w.I.Y.Z.Z.B.c.<.*.*.>.*. . .U ",
"M.5.=.6.s.n.c.m.f.5.6.z.Z.E.I.T.Y.w.w.q.h.0.h.I.I.h.j.z.B.B.f.t.>.:.>.5.=.$._ U ",
"v.1.&.1.6.s.7.s.s.5.i.f.B.B.z.x.I.h.w.q.0.0.q.j.g.u.a.m.M.n.c.p.5.>.>.3.=.$._ I ",
"c.=. .;.6.s.7.s.f.i.i.f.Z.M.f.B.j.g.g.g.g.g.g.d.p.i.a.m.m.f.s.f.i.<.>.;.=.$._ j ",
"3. ._ =.5.p.i.f.f.e.y.a.m.f.f.m.a.-.;.;.1.=.5.s.i.5.5.f.f.f.f.p.y.>.:.$.$._ ( h "
};
