/* XPM */
static char *result[] = {
/* columns rows colors chars-per-pixel */
"40 40 213 2 ",
"   c #150F0B",
".  c #1C1614",
"X  c #291409",
"o  c #37150A",
"O  c #291C15",
"+  c #2C211D",
"@  c #3D301E",
"#  c #342B23",
"$  c #382924",
"%  c #302F2E",
"&  c #3C3224",
"*  c #343029",
"=  c #3D312A",
"-  c #54270F",
";  c #482A18",
":  c #532914",
">  c #52301C",
",  c #712F13",
"<  c #782B13",
"1  c #432E24",
"2  c #493926",
"3  c #43332C",
"4  c #453D33",
"5  c #4B3D33",
"6  c #4E402C",
"7  c #53442C",
"8  c #5B472C",
"9  c #544537",
"0  c #76492C",
"q  c #654836",
"w  c #6A573A",
"e  c #745D3B",
"r  c #7D633C",
"t  c #454644",
"y  c #594F43",
"u  c #5D5448",
"i  c #515353",
"p  c #644E40",
"a  c #685B4B",
"s  c #695E52",
"d  c #776345",
"f  c #6B6054",
"g  c #726659",
"h  c #565F68",
"j  c #596571",
"k  c #7D6F60",
"l  c #7F7A6B",
"z  c #882D13",
"x  c #912F13",
"c  c #883217",
"v  c #933115",
"b  c #993617",
"n  c #A33D18",
"m  c #873720",
"M  c #863B24",
"N  c #894619",
"B  c #974819",
"V  c #AD461B",
"C  c #B94E1E",
"Z  c #AB541D",
"A  c #B6521B",
"S  c #8A4D24",
"D  c #8E5134",
"F  c #A15124",
"G  c #83653D",
"H  c #88663D",
"J  c #9D6A3C",
"K  c #C65A21",
"L  c #CE6124",
"P  c #CB6A2C",
"I  c #846A43",
"U  c #8B6C43",
"Y  c #886A4A",
"T  c #8E714C",
"R  c #937445",
"E  c #9A7445",
"W  c #9B7B47",
"Q  c #93744B",
"!  c #9A774A",
"~  c #95794B",
"^  c #9C7A4B",
"/  c #8C6C53",
"(  c #957A54",
")  c #9C7C52",
"_  c #AB6E47",
"`  c #A17F47",
"'  c #A27D4C",
"]  c #A37F51",
"[  c #857665",
"{  c #8B7C6B",
"}  c #907369",
"|  c #9D814B",
" . c #9E8053",
".. c #A4824D",
"X. c #A9844E",
"o. c #A4884E",
"O. c #A58353",
"+. c #AA8653",
"@. c #A68852",
"#. c #AC8A55",
"$. c #A78559",
"%. c #A98859",
"&. c #AD8C5A",
"*. c #B18B56",
"=. c #B18758",
"-. c #B28E5A",
";. c #AE915B",
":. c #B4925D",
">. c #B9975C",
",. c #B9955E",
"<. c #9F896D",
"1. c #968573",
"2. c #9D8A76",
"3. c #9D8D7B",
"4. c #9F907E",
"5. c #A88B65",
"6. c #B9846A",
"7. c #AD9268",
"8. c #B59361",
"9. c #BA9662",
"0. c #B69964",
"q. c #BC9A64",
"w. c #B1916B",
"e. c #B4996C",
"r. c #BD9C6A",
"t. c #A18C70",
"y. c #A08F7C",
"u. c #A79176",
"i. c #AC9677",
"p. c #A3927D",
"a. c #B59B75",
"s. c #B99C74",
"d. c #BDA177",
"f. c #C19D66",
"g. c #C29E69",
"h. c #C69875",
"j. c #C3A166",
"k. c #C4A26B",
"l. c #C9A56C",
"z. c #C7A86F",
"x. c #CCA96E",
"c. c #C6A671",
"v. c #C9A671",
"b. c #CCAA72",
"n. c #C3A779",
"m. c #D1AD73",
"M. c #D1A87B",
"N. c #D4B275",
"B. c #D4B47A",
"V. c #D8B678",
"C. c #D9B97D",
"Z. c #5F738B",
"A. c #837C80",
"S. c #6D849F",
"D. c #778EA8",
"F. c #808E9F",
"G. c #A28F8A",
"H. c #A59582",
"J. c #A99784",
"K. c #AA9985",
"L. c #AD9D89",
"P. c #B49D84",
"I. c #B4A28A",
"U. c #B4AA9A",
"Y. c #849BAC",
"T. c #839CBA",
"R. c #A79EA0",
"E. c #9CA0A5",
"W. c #BEB8B3",
"Q. c #C8A48C",
"!. c #DBAA88",
"~. c #CFB28D",
"^. c #C6AC96",
"/. c #D9B99B",
"(. c #E0A485",
"). c #C9B9A3",
"_. c #D4BBA5",
"`. c #DBC5AD",
"'. c #DAC6AE",
"]. c #D7C5B2",
"[. c #DDC9B2",
"{. c #E5C4A9",
"}. c #ECCBAD",
"|. c #E4CCB2",
" X c #ECCEB6",
".X c #E5D0B7",
"XX c #EBD0B7",
"oX c #ECD5BB",
"OX c #EDD8BE",
"+X c #F5D7BA",
"@X c #F1D9BF",
"#X c #90ADCD",
"$X c #9CB9DC",
"%X c #9ABDE7",
"&X c #9FC1E8",
"*X c #ABC5E4",
"=X c #B2C8E3",
"-X c #BFD3E2",
";X c #C4C0C1",
":X c #C9CED5",
">X c #C4CEDB",
",X c #D6D4D4",
"<X c #D8D7D6",
"1X c #D7D8D8",
"2X c #EDDECE",
"3X c #F4DCC2",
"4X c #FAE1C6",
"5X c #FDE4C9",
"6X c #ECE4D7",
"7X c #FAE8D2",
"8X c #CAD9EC",
"9X c #EDECEC",
"0X c #FAF3ED",
/* pixels */
",.#.O.#.:.f.q.g.v.g.r.9.f.f.f.l.q.&.:.8.q.q.b.B.c.q.q.x.N.m.m.g.q.q.f.l.g.q.8.Q ",
"-.+.X.#.:.q.f.f.g.r.9.,.f.f.f.z.:.R ~  . .@.0.B.j.0.9.z.m.x.x.l.q.q.f.f.f.q.0.! ",
"*.X...X.-.q.-.q.q.8.&.&.-.:.*.:.I # * # # * w r.8.:.:.j.l.g.g.g.:.,.>.q.9.:.5.Q ",
"*.X.| @.8.q.-.,.8.&.+.#.*.*.q @ t S.S.S.S.S.j & 6 R ..-.9.-.9.-.@.@.#.#.+.O.O.U ",
":.#.o.*.q.g.r.q.8.$.$.%.' q h Z.F.<X1X1X1X<XW.1.k 7 U $.=.+.=.+.^ ` O.O.O.] ] I ",
"l.>.>.,.k.m.M.b.k.:.*.%.d i T.=X,X4X5X5X5X4X4X4X].g w  .g.9.9.8.%.&.8.9.-.&.-.) ",
"l.>.:.,.g.v.b.b.j.8.8.( % Y.=X<X7X7X7X5X5X5X5X5X4X.X4 e h.9.q.8.&.8.r.g.q.8.8.) ",
"f.>.*.-.f.g.g.g.g.:.5.Y t T.,X9X9X0X5X5X5X5X5X5X4X.Xy d q.f.f.,.&.0.g.v.f.9.8.) ",
"f.9.*.:.,.f.f.f.g.8.T = D.%X*X=X8X0X5X5X5X5X5X5X5XOXU.a e j.q.:.;.7.q.j.q.q.q.| ",
",.*.#.#.:.>.:.,.9.+.d % #X*X%X>X6X7X5X5X5X5X5X5X5X@X2Xs 6 >.*.&.| &.;.0.:.&.%.~ ",
":.#.O.X.#.*.&.&.%.) { 1.$X&X>X2X5X5X5X5X5X5X5X5X3X@XoXf 2 +.O.O.| @.@.+.....^ G ",
"b.j.>.:.r.k.j.k.r.%.a.].:X:X2X5X5X5X5X5X5X5X3X3X3X@XOXf 2 #.*.&.%.%.;.#.......G ",
"B.z.j.>.j.x.k.v.n.;.s.`.3X5X7X+X{.}.3X4X3X3X3X3X3X3X3Xs 6 #.:.:.8.%.&.*.' W ` G ",
"m.j.>.*.>.q.g.c.k.5.s.`.3X+X X} D 6.}.3X3X3XoXoXoX3X.Xs 6 #.>.,.8.*.+.+.X.' ' H ",
"j.f.>.*.>.:.:.:.:.$.s.'. X(./ 1 9 ).(. X3X|.[.|.oXoX'.a 8 *.,.q.:.*.*.*.X.' ' H ",
"x.j.>.*.:.>.#.*.&.O.8.7.Y M.!./ } 6X X+XoXoXOXOX[.[.a a %.*.,.q.:.:.:.*.=.X.] U ",
"V.x.>.>.,.>.:.>.8.$.-.a.d.}.+X`._. X3X3X.XoX3X3X`.[.6 e r.*.:.:.;.;.:.-.=.X.] U ",
"j.q.*.X.#.:.#.:.8.$.$.e..X4X5X5X3X}.3X3XoX@X3X3X_.{ 9 r @.O.' ' ~ | | ) ^ ! ! G ",
"#.X...W X.-.:.>.w.+.O.8./.XX4X5X7X3X3X3X@XoX'.G.{ 6 U O.+.....' W | ..] ^ ! ~ e ",
"` W J ` *.f.>.q.0.+.O.#.0.~.^.U.).3X X/.Q.Q.} 1 6 | ;.q.g.:.8.:.%.;.:.#.O.] $.U ",
"] ` _ X.>.l.l.x.c.&.%.+.*.>.8 # y _.Q.D m m D 5.%.8.q.c.b.f.f.g.8.r.j.:.] ' ] U ",
"=.=.X.*.j.m.m.V.B.8.%.+.*.*.W Q d 1 M x v z c J :.8.q.v.b.z.j.j.9.g.c.9.=.' ' U ",
"=.] ' -.l.V.C.!.B.:.+.O.#.*.*.r ; < z x v v x < 8 O.,.x.m.l.l.j.9.q.f.9.=._ E H ",
"] ' ' *.z.V.V.V.b.;.$.' X.#.;.8 o b x x V C V < O ~ q.m.V.x.l.j.9.8.q.9.*.X.R G ",
"] ' ^ +.f.x.x.x.j.&. .| O.#.G > - v v < L L A < : w @.z.b.j.f.>.;.:.>.:.#.@.! I ",
"! E R ^ *.8.:.:.;.%.$. .+.#.@ - n x v z A P _ _ N X G &.:.X.X.O.| o.;.;.;.#.] Y ",
"] ' ^ =.0.q.:.,.8.:.7.;.8.8.@ , K v b b B h.,XR.S X G &.*.X.#.+.O.%.:.q.0.:.%./ ",
"=.] O.8.j.l.q.q.q.8.:.q.j.j.& - A L L L F G.-X^.S ; T *.=.+.*.*.%.8.j.z.g.0.-.T ",
",.*.+.-.q.g.>.,.>.>.8.0.l.j.1 @ D Z B - A.;XU.4 2 1 T *.=.=.-.>.8.0.k.v.f.,.+.T ",
"f.-.=.:.g.l.>.f.r.>.>.q.z.l.d 2 1 0 >   E.6XK.. 3 + H +.-.*.,.f.q.r.d.k.g.:.#.T ",
"f.-.+.-.f.z.j.l.r.>.>.r.j.j.s.[ 4 = 3 # f l s $ = 9 T @.*.*.,.>.q.0.r.g.q.:.#.U ",
":.+.` @.>.j.q.>.>.&.;.;.0.e.u.H.f   5 w # O $ 1 . [ 5.5.=.=.*.-.;.:.:.q.:.#.+.U ",
",.X.` +.:.>.:.:.:.%.%.7.p.p.p.H.g . # q q q 5 + + } 3.G.u.&.8.8.%.@.@.#.O.' ] I ",
",.X.` O.:.0.;.;.:.t.3.4.H.H.H.K.4.g + , m < : = [ 1.3.H.K.p.i.0.%.| ^ ^ E E ! I ",
"g.=.O.&.q.r.q.r.q.7.4.H.L.L.L.L.J.2.g + X X = [ 3.3.H.L.L.L.P.r.8.O.^ ..^ ^ ' U ",
"j.:.+.-.q.z.r.k.r.7.7.a.I.L.L.L.H.p.2.a p u g J.3.3.H.J.I.Q.s.q.%.O.O.#.X.' ' H ",
"x.-.X.>.q.l.j.g.r.:.8.r.d.d.L.L.H.3.3.3.2.2.2.y.3.3.i.d.d.z.r.:.$.$.+.;.%...W H ",
"l.*.o.*.>.q.9.q.q.;.8.r.n.z.a.d.i.4.3.2.2.2.2.u.u.u.e.r.k.q.f.0.8.%.%.&.+...W G ",
"q.+...#.>.q.>.q.r.8.8.r.z.z.r.c.r.2.t.t.<.<.t.i.0.8.0.r.c.r.g.q.8.&.+.=.+...W G ",
"=.' ^ +.:.8.8.q.r.-.8.0.z.r.q.d.0.@.#.#.*.#.:.r.8.:.>.r.r.r.q.q.7.%.O.O.' ^ R e "
};
