/* XPM */
static char *result[] = {
/* columns rows colors chars-per-pixel */
"40 40 208 2 ",
"   c #150F0B",
".  c #1C1714",
"X  c #291409",
"o  c #37160A",
"O  c #281C15",
"+  c #2C221D",
"@  c #372016",
"#  c #3B2D1D",
"$  c #3C301F",
"%  c #352B23",
"&  c #382924",
"*  c #312E2D",
"=  c #363127",
"-  c #3E3028",
";  c #591E0D",
":  c #54270F",
">  c #532914",
",  c #50301C",
"<  c #6D2D12",
"1  c #772C14",
"2  c #432E24",
"3  c #463524",
"4  c #43332B",
"5  c #4B3E2A",
"6  c #553A29",
"7  c #493E34",
"8  c #4E412D",
"9  c #54442A",
"0  c #5A462B",
"q  c #454039",
"w  c #554532",
"e  c #584B3B",
"r  c #6B4E30",
"t  c #664738",
"y  c #755E3C",
"u  c #7C623D",
"i  c #474847",
"p  c #54504A",
"a  c #5B5348",
"s  c #644E40",
"d  c #665B4E",
"f  c #725F42",
"g  c #695E52",
"h  c #796445",
"j  c #6B6054",
"k  c #716455",
"l  c #74695B",
"z  c #555E67",
"x  c #56636E",
"c  c #7D6F60",
"v  c #882D13",
"b  c #8A3111",
"n  c #873318",
"m  c #933115",
"M  c #993617",
"N  c #A33D18",
"B  c #863B24",
"V  c #894619",
"C  c #974819",
"Z  c #AC461B",
"A  c #B94E1E",
"S  c #AB541D",
"D  c #B6521B",
"F  c #894C27",
"G  c #8E5134",
"H  c #84643D",
"J  c #88663D",
"K  c #9B743F",
"L  c #C65A21",
"P  c #CE6124",
"I  c #CB6A2C",
"U  c #846943",
"Y  c #8B6B43",
"T  c #886649",
"R  c #8F724B",
"E  c #937445",
"W  c #9A7445",
"Q  c #9B7B47",
"!  c #94754B",
"~  c #9A774A",
"^  c #96794C",
"/  c #9C7B4B",
"(  c #8F6A51",
")  c #887455",
"_  c #967E57",
"`  c #9C7C51",
"'  c #AB6E47",
"]  c #A17F47",
"[  c #A27D4C",
"{  c #A37F51",
"}  c #8D756A",
"|  c #8C7D6C",
" . c #9D814B",
".. c #9E8156",
"X. c #9F8258",
"o. c #A4824D",
"O. c #AA854E",
"+. c #A4884E",
"@. c #A58353",
"#. c #AA8553",
"$. c #A68851",
"%. c #AC8A55",
"&. c #A58659",
"*. c #AA8758",
"=. c #A78A5C",
"-. c #AD8C5B",
";. c #B18C56",
":. c #B18758",
">. c #B28E5A",
",. c #AE915B",
"<. c #B5925D",
"1. c #B9975C",
"2. c #B9955E",
"3. c #9E8B6F",
"4. c #938472",
"5. c #998673",
"6. c #9C8A76",
"7. c #9E8D7B",
"8. c #AA8D61",
"9. c #A68A6C",
"0. c #AE9162",
"q. c #AD946E",
"w. c #B59361",
"e. c #BA9662",
"r. c #B59866",
"t. c #BC9A64",
"y. c #B39469",
"u. c #BC9C6A",
"i. c #A28E73",
"p. c #A18E7B",
"a. c #AB9474",
"s. c #A4937D",
"d. c #AA9478",
"f. c #B39B77",
"g. c #BFA06A",
"h. c #BBA17A",
"j. c #C19D66",
"k. c #C29E69",
"l. c #C69875",
"z. c #C3A166",
"x. c #C4A26B",
"c. c #C9A56C",
"v. c #CCA96E",
"b. c #C3A472",
"n. c #C9A671",
"m. c #CCAA72",
"M. c #C7A578",
"N. c #D1AD73",
"B. c #D1AF7A",
"V. c #D4B275",
"C. c #D5B479",
"Z. c #D8B779",
"A. c #DAB97D",
"S. c #5F738B",
"D. c #6D849F",
"F. c #778EA8",
"G. c #8E8780",
"H. c #A59582",
"J. c #AA9783",
"K. c #AE9686",
"L. c #AB9A86",
"P. c #AD9D89",
"I. c #B8A385",
"U. c #B4AA9A",
"Y. c #839BAC",
"T. c #839CBA",
"R. c #A79EA0",
"E. c #BDB8B3",
"W. c #C5A588",
"Q. c #DBAA88",
"!. c #C6AC97",
"~. c #D6B898",
"^. c #E0A485",
"/. c #C9B9A3",
"(. c #D4BBA5",
"). c #DBC5AC",
"_. c #DAC6AD",
"`. c #DBC8B2",
"'. c #E5C4A9",
"]. c #ECCBAD",
"[. c #E3CBB2",
"{. c #ECCEB6",
"}. c #EDD1B6",
"|. c #E6D0B8",
" X c #ECD5BC",
".X c #ECD8BE",
"XX c #F5D7BA",
"oX c #F1D9BF",
"OX c #90ADCD",
"+X c #9CB9DC",
"@X c #9ABDE7",
"#X c #AAC5E4",
"$X c #B2C8E3",
"%X c #BFD3E2",
"&X c #C4C0C1",
"*X c #C4CEDB",
"=X c #D6D4D4",
"-X c #D8D7D6",
";X c #D7D8D8",
":X c #EDDECE",
">X c #F4DCC2",
",X c #FAE1C6",
"<X c #FDE4C9",
"1X c #ECE4D7",
"2X c #FBE8D2",
"3X c #CAD9EC",
"4X c #EDECEC",
"5X c #FAF3ED",
/* pixels */
"2.%.#.#.2.j.e.k.n.k.u.e.k.j.j.c.r.-.w.r.t.j.m.A.v.t.t.v.V.N.v.c.e.t.k.c.k.t.w.! ",
">.#.o.%.<.j.e.j.x.t.e.2.j.j.t.c.t./ ^ ` ` $.-.m.x.e.e.c.N.v.v.c.t.t.j.j.k.t.w.` ",
";.o.o.$.>.e.2.e.t.w.>.%.>.2.<.<.$.w % = = = = ..,.-.<.j.c.k.k.k.2.2.1.e.2.>.>.R ",
";.o.o.$.w.t.<.2.<.-.*.*.;.;.Q 6 $ x D.D.D.D.D.i - 0 +.<.e.>.e.>.$.$.%.-.*.@.&.Y ",
"1.%.+.;.t.k.u.t.w.&.*.*.%.^ 0 l 4.E.=X;X;X=X=XF.S.z 9 { :.#.>.*.Q / o.$.@.{ { U ",
"c.1.<.t.c.m.B.m.x.>.>.w.@.h l _.>X,X<X<X<X<X,X;X$XT.p h w.>.e.w.*.-.w.e.<.-.>.` ",
"z.1.>.2.k.v.m.n.c.<.w.e.f q |.,X<X<X<X<X<X<X2X2X;X#XY.* ` j.e.<.-.w.u.k.e.w.e.` ",
"j.2.>.>.j.k.k.k.u.w.w.=.h a  X,X<X<X<X<X<X<X5X4X1X-XT.i ) e.t.e.>.r.k.n.j.e.w.` ",
"j.2.>.2.t.j.j.j.j.e.e.t d U.>X<X<X<X<X,X,X,X5X3X$X#X@XF.q _ j.w.-.0.u.x.t.e.r./ ",
"2.>.#.%.>.1.<.2.e.#.=.3 g .X>X<X,X<X<X2X<X2X2X:X*X@X#XOX* h >.*.o.=.,.1.<.-.-.E ",
"<.%.o.O.%.%.-.-.-.^ / 3 g .X.X,X<X<X2X,X<X<X,X,X1X*X#X+XG.X.@.{ / +.$.#.o.o. .J ",
"m.z.2.<.g.x.k.x.u.=.=.8 j .XoX>X>X>X,X<X,X<X2X2X>X:X*X*X`.u.>.>.=.,.,.%.o.o. .U ",
"V.c.z.1.g.c.x.n.x.,.0.5 j >XoXoX>X>X>X>X>X,X].{.XX<X<X>X_.u.w.w.-.-.-.%.[ ] ] H ",
"N.c.1.1.1.g.j.c.g.8.-.5 j |..XoX>X>X>X>X>X].{ G 9.`.>X>X`.y.2.e.<.%.#.:.o.[ ] J ",
"z.1.1.;.,.<.>.<.w.@.8.w d _..XoX[.(.[.>X].^.!.i 2 ( ^.'.(.u.2.t.<.<.;.;.O.[ [ J ",
"v.z.1.;.1.<.>.>.>.@.-.8.d d `.[.>X>X[.>X>X{.4X} ( Q.^.T y.<.2.e.<.1.>.:.:.#.{ Y ",
"Z.v.t.;.1.1.<.e.e.&.8.u.u q ).).>X>X>X[.>X>X}.(.'.XX].f.u.2.>.2.,.,.<.>.#.@.{ Y ",
"z.t.;.O.;.;.,.<.w.*.&.*.U t | /.>X>X>X>X>X>X].>X<X>X,X|.r.@.[ [ E  . ...[ ~ ~ y ",
";.O.] ] %.>.,.1.w.&.@.@.@.! 9 | K.(.[.>X>X>X>X<X<X<X}.~.w.o.[ [ Q  .o.` ^ ~ ! H ",
"] K K ] ;.t.1.t.e.*.@.*.-.%.Q 8 & } K.W.(.{.>X/.U.!.~.g.u.2.<.<.-.,.<.%.#.@.@.Y ",
"{ [ [ :.1.c.z.v.b.>.*.*.;.;.+.o.~ G B B G W.(.p % e u.n.m.j.j.t.w.u.x.<.#.[ { Y ",
":.{ [ ;.z.N.V.Z.B.w.%.#.;.;.O.O.G v v m m B 2 T ..&.r.n.N.c.c.c.e.x.c.e.{ [ [ Y ",
":.{ [ ;.c.Z.A.Q.C.w.*.o.%.%. .9 1 v m m m v 1 , u <.e.v.N.c.z.z.2.e.k.e.:.' W J ",
"{ [ [ ;.c.Z.Z.Z.m.,.@.[ O.O.K O < Z A Z v M M o 0 <.t.N.C.v.c.z.e.e.t.e.:.#.W H ",
"{ ' ~ #.j.v.v.c.u.-.@. .#./ r > b A I L 1 m m ; 6 U <.v.m.z.j.1.,.,.r.<.-.O.^ U ",
"[ ] E { >.<.<.<.<.=.X...$.J X V ' { I D v m m N : $ o.-.<.O.O.$. .+.,.,.,.$.` T ",
"[ / / *.e.t.2.<.w.>.-.,.w.R X F R.=Xl.M M M M L < # +.;.;.O.#.#.o.-.<.u.e.w.=.R ",
":.{ #.w.x.c.t.t.t.w.r.t.x.@.2 F W.%XH.S L P P S : $ %.>.:.#.;.>.=.<.g.c.k.e.>.! ",
"2.;.#.>.t.z.1.1.e.<.<.t.x.&.2 3 7 U.&XS.: C S G # # *.:.:.;.<.2.<.t.g.n.k.w.%.R ",
"j.>.#.<.t.c.t.z.z.<.e.t.c...+ 4 . J.2XR.  , r 3 5 u @.;.:.;.2.j.r.u.g.n.k.<.%.Y ",
"k.>.#.>.t.c.z.x.z.<.r.r.x.=.e = % g | j & 4 - 7 ) 9.@.#.;.;.2.2.e.u.u.x.t.<.%.Y ",
"2.#.o.%.1.z.1.t.1.-.,.0.r.q.4.. 4 % . % s w   k s.i.=.-.:.O.:.<.,.<.<.e.<.-.#.Y ",
"2.O.[ o.<.1.<.<.<.=.=.6.s.s.4.% + 7 t s t 2 O k 7.5.7.p.y.-.w.<.%.$.$.*.@.o.{ U ",
"2.O.[ @.,.r.,.<.0.6.7.H.H.H.H.4.- > 1 n 1 O k | 4.5.7.H.L.d.f.e.=. .Q / ~ W ~ Y ",
"j.%.@.%.t.z.u.u.r.p.s.H.P.P.P.P.| - X X @ k 5.p.p.p.H.P.U.L.f.k.w.@./ [ [ W [ Y ",
"c.<.#.<.t.x.g.x.u.0.q.d.P.P.L.P.L.c a a g 5.p.p.p.G.H.P.I.M.b.t.-.@.@.*.@.[ [ J ",
"c.>.%.1.1.x.k.k.u.<.<.f.I.h.L.L.H.7.7.6.i.5.p.p.7.p.a.f.x.c.k.w.*.&.&.>.%.o.Q J ",
"j.>.+.%.1.t.e.t.t.<.w.u.m.h.f.f.s.7.6.6.5.5.6.d.i.a.r.x.c.g.k.t.>.*.*.>.#.o.Q H ",
"j.@.[ ;.1.t.2.t.k.<.r.u.n.x.g.h.f.3.i.5.i.9.i.r.w.r.r.g.x.k.k.r.y.-.*.%.#.o.Q u ",
">.[ / #.<.e.2.t.u.8.w.r.g.g.g.x.e.$.$.%.>.%.2.t.1.<.<.g.g.r.t.e.w.*.@.@.[ Q E y "
};
